<svg xmlns="http://www.w3.org/2000/svg" viewBox="0 0 300 300"><g fill="#FFF"><path d="M172.9 113.9c-6.1 0-12.3-3.5-15.3-8.8-1.3-1.8-2.2-4.4-2.2-6.6v-2.6l27.1-15.3 2.2 2.6c1.3 1.3 2.2 2.6 3.1 4.4 2.6 4.4 3.1 9.2 1.8 13.6s-4.4 8.3-8.8 10.5c-2.2 1.3-5.2 2.2-7.9 2.2zm-7.9-13.1c1.8 2.6 4.4 4.4 7.9 4.4 1.3 0 3.1-.4 3.9-.9 2.2-1.3 3.9-3.1 4.4-5.3.4-2.2.4-4.4-.9-6.6l-15.3 8.4z"/><path d="M157.6 104.7l-10.9-20.6h-1.3c-7.9 0-13.1-3.9-14.4-10.5-.9-5.7 0-10.1 2.6-13.6 3.1-3.5 7.9-5.3 14-5.3h3.5c1.3-3.1 3.1-6.6 5.7-8.3 3.1-.9 5.7-1.8 8.8-1.8 7 0 12.3 4.8 14.4 9.6 3.1 6.6.4 13.1-1.3 16.6l8.3 17.5-29.4 16.4zm-6.1-30.2l9.6 18.4 14.4-7.9-6.5-14 1.3-2.2c1.3-1.8 3.5-7 1.8-10.5-.9-2.6-3.5-4.8-6.6-4.8-1.3 0-2.6.4-4.4 1.3-.4.4-2.2 3.1-2.6 6.1l-.9 4.4-4.4-1.3c-.9-.4-2.6-.4-5.3-.4-2.2 0-5.7.4-7.4 2.2-.9 1.3-1.3 3.5-.9 6.1 0 .9.4 3.5 5.7 3.5 1.8 0 3.1-.4 3.1-.4l3.1-.5zm44.2 180.8h-.4c-7 0-12.3-5.3-13.1-12.3l-2.2-40.3 7.4-27.6c0-5.3-1.3-13.1-6.6-23.2l-5.3 4.4-28.5 1.3c-3.9 0-7.4-1.3-9.6-3.9-1.3-1.3-2.6-3.5-3.1-5.3-.9-1.3-.9-3.1-.9-3.5 0-7.4 5.7-13.6 12.7-13.6l19.7-.9c3.9-5.3 14.4-18.4 25.8-18.4 8.8 0 11.8 3.5 12.7 4.4 19.7 21.4 19.7 53 19.3 62.2v1.3l-.4 1.3-3.1 4.8-13 22 2.2 33.7c-.9 7-6.2 13.1-13.6 13.6zm-7-51.7l2.2 38.5c0 1.8 1.3 4.4 4.4 4.4l.4 4.4-.4-4.4c2.6-.4 4.4-2.2 4.4-4.8l-2.2-35.9 17.1-28.5c.4-9.2-.4-36.3-17.5-55.2 0 0-1.8-1.3-6.1-1.3-7.9 0-17.1 12.3-20.1 16.2l-1.3 1.8-24.1.9c-2.2 0-3.9 2.2-3.9 4.4l4.4 4.4h.4l25.4-1.3 10.9-8.8 2.6 4.4c8.3 14 10.1 25.4 10.1 32.4v1.3l-6.7 27.1zm-73.6-60.4c-3.5 0-7-.9-9.6-1.8-5.7-1.8-8.8-1.3-11.4 1.8l-6.6-5.7c7-8.3 17.1-5.3 20.6-4.4 5.7 1.8 10.9 3.1 16.6-4.4l7 5.3c-5.6 7-11.3 9.2-16.6 9.2z"/><circle cx="101.6" cy="119.1" r="2.6"/><circle cx="106" cy="127" r="1.8"/><circle cx="119.1" cy="125.7" r="1.8"/><circle cx="122.6" cy="117" r="2.2"/><circle cx="114.7" cy="111.3" r="2.6"/><circle cx="102" cy="106.9" r="2.6"/><path d="M164.2 252.2h-25.4v-35.5h-37.2v35.5H76.2v-73.1h88v73.1zm-16.7-8.7h7.9v-55.6H84.9v55.6h7.9V208h54.7v35.5zm-38-82.8c-8.3 0-17.9-2.2-27.1-8.3l5.3-7c22.3 14.9 47.3 0 47.3 0l4.4 7.4c-1.1.5-13.7 7.9-29.9 7.9z"/></g></svg>