<svg xmlns="http://www.w3.org/2000/svg" viewBox="0 0 300 300"><path d="M69.4 109.1h-5.2v-3.9h-.1c-1 1.5-2.4 2.6-4.1 3.4-1.8.8-3.6 1.2-5.4 1.2-2.1 0-4-.4-5.8-1.1-1.7-.7-3.2-1.8-4.4-3.1-1.2-1.3-2.2-2.8-2.8-4.6-.7-1.7-1-3.6-1-5.7 0-2 .3-3.9 1-5.7.7-1.8 1.6-3.3 2.8-4.6 1.2-1.3 2.7-2.3 4.4-3 1.7-.7 3.6-1.1 5.8-1.1 2 0 3.8.4 5.6 1.2 1.7.8 3.1 2 4 3.4h.1V65.3h5.2v43.8zm-14.2-4.2c1.4 0 2.6-.2 3.8-.7 1.1-.5 2.1-1.1 2.8-2 .8-.8 1.4-1.8 1.8-3 .4-1.2.6-2.5.6-3.8s-.2-2.7-.6-3.8c-.4-1.2-1-2.2-1.8-3-.8-.8-1.7-1.5-2.8-2-1.1-.5-2.4-.7-3.8-.7s-2.6.2-3.8.7c-1.1.5-2.1 1.1-2.8 2-.8.8-1.4 1.8-1.8 3-.4 1.2-.6 2.5-.6 3.8s.2 2.7.6 3.8c.4 1.2 1 2.2 1.8 3 .8.8 1.7 1.5 2.8 2 1.1.5 2.4.7 3.8.7zm21.3-33.1c0-1 .4-1.9 1.1-2.7.8-.8 1.6-1.1 2.7-1.1 1 0 1.9.4 2.7 1.1s1.1 1.6 1.1 2.7c0 1-.4 1.9-1.1 2.7-.8.8-1.6 1.1-2.7 1.1-1 0-1.9-.4-2.7-1.1-.8-.7-1.1-1.6-1.1-2.7zm1.2 9.9h5.2v27.4h-5.2V81.7zm13.5 0h5.2v4.2h.1c.7-1.5 1.8-2.7 3.4-3.6 1.6-.9 3.5-1.4 5.6-1.4 1.3 0 2.6.2 3.8.6 1.2.4 2.3 1 3.2 1.9.9.8 1.6 1.9 2.2 3.3.5 1.3.8 2.9.8 4.7V109h-5.2V92.9c0-1.3-.2-2.4-.5-3.3-.3-.9-.8-1.6-1.4-2.2-.6-.6-1.2-1-2-1.2-.8-.3-1.5-.4-2.3-.4-1.1 0-2.1.2-3 .5-.9.3-1.7.9-2.4 1.6-.7.8-1.2 1.7-1.6 2.9-.4 1.2-.6 2.5-.6 4.1V109h-5.2V81.7zm36.1 15.6c0 1.2.3 2.3.8 3.3s1.2 1.8 2.1 2.5 1.8 1.2 3 1.6c1.1.4 2.3.6 3.5.6 1.6 0 3-.4 4.2-1.1s2.3-1.7 3.3-3l3.9 3c-2.9 3.7-6.9 5.6-12.1 5.6-2.2 0-4.1-.4-5.9-1.1-1.8-.7-3.2-1.7-4.5-3-1.2-1.3-2.2-2.8-2.8-4.6-.7-1.8-1-3.7-1-5.7s.4-3.9 1.1-5.7c.7-1.8 1.7-3.3 3-4.6 1.3-1.3 2.7-2.3 4.5-3 1.7-.7 3.6-1.1 5.7-1.1 2.4 0 4.5.4 6.2 1.3 1.7.8 3.1 2 4.1 3.3 1.1 1.4 1.9 2.9 2.3 4.6.5 1.7.7 3.5.7 5.2v1.9h-22.1zm16.4-4.2c0-1.2-.2-2.2-.5-3.2s-.8-1.8-1.5-2.5-1.5-1.3-2.5-1.7c-1-.4-2.1-.6-3.4-.6-1.3 0-2.4.2-3.5.7-1.1.5-2 1.1-2.7 1.9-.7.8-1.3 1.6-1.7 2.6-.4.9-.6 1.9-.6 2.8h16.4zm-98 33.6h-3.2V153h3.2v1.8h-5.5v-30h5.5v1.9zM65 149.6h-2.2V147h-.1c-.4.5-.8 1-1.3 1.4-.5.4-1 .7-1.6.9-.5.2-1.1.4-1.7.5-.6.1-1.1.2-1.6.2-1.2 0-2.4-.2-3.4-.6-1-.4-1.9-1-2.6-1.7-.7-.7-1.3-1.6-1.7-2.6-.4-1-.6-2.1-.6-3.3 0-1.2.2-2.3.6-3.3.4-1 1-1.9 1.7-2.6.7-.7 1.6-1.3 2.6-1.7 1-.4 2.2-.6 3.4-.6.5 0 1.1.1 1.6.2.6.1 1.1.3 1.7.5.5.2 1.1.6 1.6.9.5.4.9.8 1.3 1.4h.1v-12.4H65v25.4zm-14.4-7.9c0 .9.1 1.7.4 2.5.3.8.7 1.4 1.2 2 .5.6 1.1 1 1.9 1.3.7.3 1.6.5 2.5.5.9 0 1.7-.2 2.5-.5s1.4-.8 2-1.3c.6-.6 1-1.2 1.3-2 .3-.8.5-1.6.5-2.5s-.2-1.7-.5-2.5-.8-1.4-1.3-2c-.6-.6-1.2-1-2-1.3-.8-.3-1.6-.5-2.5-.5-.9 0-1.8.2-2.5.5s-1.4.8-1.9 1.3c-.5.6-.9 1.2-1.2 2-.3.8-.4 1.6-.4 2.5zm29.3-1.8v-.4c0-2.7-1.3-4.1-4-4.1-1.8 0-3.5.6-4.8 1.9l-1.3-1.6c1.5-1.5 3.7-2.3 6.7-2.3.8 0 1.5.1 2.2.3.7.2 1.3.6 1.8 1 .5.5.9 1 1.2 1.7.3.7.5 1.5.5 2.5v7.1c0 .6 0 1.2.1 1.9s.1 1.2.2 1.6h-2.2c-.1-.4-.1-.8-.2-1.2 0-.5-.1-.9-.1-1.3-.7 1.1-1.4 1.8-2.3 2.3-.9.5-2 .7-3.3.7-.7 0-1.4-.1-2-.3s-1.2-.5-1.7-.9-.9-.9-1.2-1.5-.5-1.2-.5-2c0-1.3.3-2.3 1-3 .7-.7 1.5-1.3 2.5-1.6 1-.4 2.1-.6 3.2-.7 1.1-.1 2.2-.1 3.1-.1h1.1zm-1.1 1.8c-.6 0-1.3 0-2.1.1s-1.7.2-2.4.4-1.4.5-2 1c-.6.5-.8 1.1-.8 1.9 0 .5.1 1 .3 1.3.2.4.5.7.9.9.4.2.8.4 1.2.5.4.1.9.2 1.3.2.8 0 1.5-.1 2.1-.4.6-.3 1.1-.6 1.5-1.1.4-.5.7-1 .9-1.6.2-.6.3-1.3.3-2v-1.1h-1.2zm8.5-17.6h2.2v12.3h.1c.2-.4.6-.8.9-1.2.4-.4.8-.7 1.3-.9.5-.3 1-.5 1.5-.6.5-.1 1.1-.2 1.6-.2 2 0 3.5.5 4.5 1.6s1.5 2.6 1.5 4.6v10h-2.2V141c0-1.8-.3-3.1-.9-4-.6-.9-1.7-1.4-3.4-1.4-.1 0-.4 0-.9.1s-1.1.3-1.6.7c-.6.4-1.1 1-1.5 1.8-.5.8-.7 1.9-.7 3.4v8.1h-2.2v-25.6zm24.7 22.7l4.8-13.1h2.7l-7.9 19.9c-.5 1.2-1.1 2.2-1.8 2.9-.7.7-1.8 1.1-3.2 1.1h-1c-.3 0-.7-.1-1-.2l.2-2.2c.5.2 1 .4 1.7.4.8 0 1.4-.2 1.9-.7.4-.5.8-1.2 1.2-2.1l1.1-3-6.5-16h2.8l5 13zm12.5-13c0 .4.1.8.1 1.3v1.3h.1c.2-.4.6-.8.9-1.2.4-.4.8-.7 1.3-.9.5-.3 1-.5 1.5-.6.5-.1 1.1-.2 1.6-.2 2 0 3.5.5 4.5 1.6s1.5 2.6 1.5 4.6v10h-2.2V141c0-1.8-.3-3.1-.9-4-.6-.9-1.7-1.4-3.4-1.4-.1 0-.4 0-.9.1s-1.1.3-1.6.7c-.6.4-1.1 1-1.5 1.8-.5.8-.7 1.9-.7 3.4v8.1h-2.2v-12.3c0-.4 0-1-.1-1.6 0-.7-.1-1.3-.1-1.9h2.1zm15.3 19.2h3.2v-26.3h-3.2v-1.8h5.5v30h-5.5V153zm-94.7 67.9h-1.9l-4.9-12h2l3.9 10.1h.1l3.8-10.1H50l-4.9 12zm8.3-5.5c.1.6.2 1.2.4 1.7s.6 1 1 1.4.8.7 1.4.9c.5.2 1.1.3 1.7.3.9 0 1.7-.2 2.4-.6.7-.4 1.2-.9 1.5-1.5l1.3 1.1c-.7.9-1.5 1.6-2.4 2-.9.4-1.8.6-2.8.6-.9 0-1.7-.2-2.5-.5s-1.4-.8-2-1.3c-.5-.6-1-1.2-1.3-2s-.5-1.6-.5-2.5.2-1.7.5-2.5.7-1.4 1.3-2c.5-.6 1.2-1 1.9-1.3.7-.3 1.5-.5 2.4-.5.9 0 1.7.2 2.4.5s1.3.8 1.8 1.3.9 1.2 1.1 1.9c.3.7.4 1.5.4 2.3v.8h-10zm8.2-1.4c0-1.1-.3-2.1-1-2.8-.7-.7-1.6-1.1-2.9-1.1-.5 0-1.1.1-1.6.3-.5.2-1 .5-1.3.9-.4.4-.7.8-.9 1.2s-.3.9-.3 1.4h8zm5.1-1.3v-1.6c0-.5 0-1.3-.1-2.1h1.7v2.2h.1c.1-.3.3-.6.5-.9.2-.3.5-.6.8-.8s.7-.4 1.1-.6c.4-.1.9-.2 1.4-.2.5 0 .9.1 1.3.2l-.3 1.7c-.2-.1-.5-.1-1-.1-.7 0-1.2.1-1.7.4-.5.2-.8.6-1.2 1s-.5.8-.7 1.2c-.1.4-.2.9-.2 1.3v6.8h-1.7v-8.5zm8.4-11.2h1.7v9.4h.1c.3-.4.6-.8 1-1.1.4-.3.8-.5 1.2-.7.4-.2.8-.3 1.3-.4.4-.1.9-.1 1.2-.1.9 0 1.8.2 2.6.5s1.5.8 2 1.3c.6.6 1 1.2 1.3 2s.5 1.6.5 2.5-.2 1.7-.5 2.5-.8 1.4-1.3 2-1.2 1-2 1.3c-.8.3-1.6.5-2.6.5-.4 0-.8 0-1.2-.1-.4-.1-.9-.2-1.3-.4s-.8-.4-1.2-.7c-.4-.3-.7-.6-1-1.1h-.1v2h-1.7v-19.4zm11 13.4c0-.7-.1-1.3-.3-1.9-.2-.6-.5-1.1-.9-1.5-.4-.4-.9-.8-1.4-1-.6-.2-1.2-.4-1.9-.4s-1.3.1-1.9.4c-.6.2-1.1.6-1.5 1-.4.4-.8.9-1 1.5s-.4 1.2-.4 1.9.1 1.3.4 1.9.6 1.1 1 1.5c.4.4.9.8 1.5 1 .6.2 1.2.4 1.9.4s1.3-.1 1.9-.4c.6-.2 1-.6 1.4-1 .4-.4.7-.9.9-1.5.2-.6.3-1.2.3-1.9zm7.8-4.7c0 .4-.1.7-.4 1s-.6.4-1 .4-.7-.1-1-.4-.4-.6-.4-1 .1-.7.4-1 .6-.4 1-.4.7.1 1 .4.4.6.4 1zm0 9.5c0 .4-.1.7-.4 1-.3.3-.6.4-1 .4s-.7-.1-1-.4c-.3-.3-.4-.6-.4-1s.1-.7.4-1 .6-.4 1-.4.7.1 1 .4.4.6.4 1zm23.2 1.2h-1.7v-2h-.1c-.3.4-.6.8-1 1.1-.4.3-.8.5-1.2.7-.4.2-.8.3-1.3.4-.4.1-.9.1-1.2.1-.9 0-1.8-.2-2.6-.5s-1.5-.8-2-1.3c-.6-.6-1-1.2-1.3-2s-.5-1.6-.5-2.5.2-1.7.5-2.5.8-1.4 1.3-2c.6-.6 1.2-1 2-1.3.8-.3 1.6-.5 2.6-.5.4 0 .8 0 1.2.1.4.1.9.2 1.3.4s.8.4 1.2.7c.4.3.7.6 1 1.1h.1v-9.4h1.7v19.4zm-11-6c0 .7.1 1.3.3 1.9.2.6.5 1.1.9 1.5.4.4.9.8 1.4 1 .6.2 1.2.4 1.9.4s1.3-.1 1.9-.4c.6-.2 1.1-.6 1.5-1 .4-.4.8-.9 1-1.5s.4-1.2.4-1.9-.1-1.3-.4-1.9-.6-1.1-1-1.5c-.4-.4-.9-.8-1.5-1-.6-.2-1.2-.4-1.9-.4s-1.3.1-1.9.4c-.6.2-1 .6-1.4 1-.4.4-.7.9-.9 1.5-.2.6-.3 1.3-.3 1.9zm17.2-10.6c0 .4-.1.7-.4.9-.3.2-.5.3-.8.3s-.6-.1-.8-.3c-.3-.2-.4-.5-.4-.9s.1-.7.4-.9c.3-.2.5-.3.8-.3s.6.1.8.3c.2.2.4.5.4.9zm-.4 16.6h-1.7v-12h1.7v12zm5.7-12c0 .3.1.6.1 1v1h.1c.2-.3.4-.6.7-.9.3-.3.6-.5 1-.7.4-.2.7-.4 1.1-.5.4-.1.8-.2 1.2-.2 1.5 0 2.7.4 3.4 1.2.7.8 1.1 2 1.1 3.5v7.6h-1.7v-6.7c0-1.3-.2-2.4-.7-3.1-.5-.7-1.3-1.1-2.6-1.1-.1 0-.3 0-.7.1s-.8.3-1.2.6c-.4.3-.8.8-1.2 1.4s-.5 1.5-.5 2.6v6.2H127v-10.6c0-.5-.1-1-.1-1.4h1.7zm13.8 6.5c.1.6.2 1.2.4 1.7s.6 1 1 1.4.8.7 1.4.9c.5.2 1.1.3 1.7.3.9 0 1.7-.2 2.4-.6.7-.4 1.2-.9 1.5-1.5l1.3 1.1c-.7.9-1.5 1.6-2.4 2-.9.4-1.8.6-2.8.6-.9 0-1.7-.2-2.5-.5s-1.4-.8-2-1.3c-.5-.6-1-1.2-1.3-2s-.5-1.6-.5-2.5.2-1.7.5-2.5.7-1.4 1.3-2c.5-.6 1.2-1 1.9-1.3.7-.3 1.5-.5 2.4-.5.9 0 1.7.2 2.4.5s1.3.8 1.8 1.3.9 1.2 1.1 1.9c.3.7.4 1.5.4 2.3v.8h-10zm8.2-1.4c0-1.1-.3-2.1-1-2.8-.7-.7-1.6-1.1-2.9-1.1-.5 0-1.1.1-1.6.3-.5.2-1 .5-1.3.9-.4.4-.7.8-.9 1.2s-.3.9-.3 1.4h8zm17 6.9h-1.7v-2h-.1c-.3.4-.6.8-1 1.1-.4.3-.8.5-1.2.7-.4.2-.8.3-1.3.4-.4.1-.9.1-1.2.1-.9 0-1.8-.2-2.6-.5s-1.5-.8-2-1.3c-.6-.6-1-1.2-1.3-2s-.5-1.6-.5-2.5.2-1.7.5-2.5.8-1.4 1.3-2c.6-.6 1.2-1 2-1.3.8-.3 1.6-.5 2.6-.5.4 0 .8 0 1.2.1.4.1.9.2 1.3.4s.8.4 1.2.7c.4.3.7.6 1 1.1h.1v-9.4h1.7v19.4zm-11-6c0 .7.1 1.3.3 1.9.2.6.5 1.1.9 1.5.4.4.9.8 1.4 1 .6.2 1.2.4 1.9.4s1.3-.1 1.9-.4c.6-.2 1.1-.6 1.5-1 .4-.4.8-.9 1-1.5s.4-1.2.4-1.9-.1-1.3-.4-1.9-.6-1.1-1-1.5c-.4-.4-.9-.8-1.5-1-.6-.2-1.2-.4-1.9-.4s-1.3.1-1.9.4c-.6.2-1 .6-1.4 1-.4.4-.7.9-.9 1.5-.2.6-.3 1.3-.3 1.9zm16.2 9.6h-1.7l1.7-6h2.1l-2.1 6zm24.8-3.6h-1.7v-2h-.1c-.3.4-.6.8-1 1.1-.4.3-.8.5-1.2.7-.4.2-.8.3-1.3.4-.4.1-.9.1-1.2.1-.9 0-1.8-.2-2.6-.5s-1.5-.8-2-1.3c-.6-.6-1-1.2-1.3-2s-.5-1.6-.5-2.5.2-1.7.5-2.5.8-1.4 1.3-2c.6-.6 1.2-1 2-1.3.8-.3 1.6-.5 2.6-.5.4 0 .8 0 1.2.1.4.1.9.2 1.3.4s.8.4 1.2.7c.4.3.7.6 1 1.1h.1v-9.4h1.7v19.4zm-11-6c0 .7.1 1.3.3 1.9.2.6.5 1.1.9 1.5.4.4.9.8 1.4 1 .6.2 1.2.4 1.9.4s1.3-.1 1.9-.4c.6-.2 1.1-.6 1.5-1 .4-.4.8-.9 1-1.5s.4-1.2.4-1.9-.1-1.3-.4-1.9-.6-1.1-1-1.5c-.4-.4-.9-.8-1.5-1-.6-.2-1.2-.4-1.9-.4s-1.3.1-1.9.4c-.6.2-1 .6-1.4 1-.4.4-.7.9-.9 1.5-.2.6-.3 1.3-.3 1.9zm17.1-10.6c0 .4-.1.7-.4.9-.3.2-.5.3-.8.3s-.6-.1-.8-.3c-.3-.2-.4-.5-.4-.9s.1-.7.4-.9c.3-.2.5-.3.8-.3s.6.1.8.3c.3.2.4.5.4.9zm-.3 16.6h-1.7v-12h1.7v12zm5.7-12c0 .3.1.6.1 1v1h.1c.2-.3.4-.6.7-.9.3-.3.6-.5 1-.7.4-.2.7-.4 1.1-.5.4-.1.8-.2 1.2-.2 1.5 0 2.7.4 3.4 1.2.7.8 1.1 2 1.1 3.5v7.6h-1.7v-6.7c0-1.3-.2-2.4-.7-3.1-.5-.7-1.3-1.1-2.6-1.1-.1 0-.3 0-.7.1s-.8.3-1.2.6c-.4.3-.8.8-1.2 1.4s-.5 1.5-.5 2.6v6.2h-1.7v-10.6c0-.5-.1-1-.1-1.4h1.7zm15.1-4.6c0 .4-.1.7-.4.9-.3.2-.5.3-.8.3s-.6-.1-.8-.3c-.3-.2-.4-.5-.4-.9s.1-.7.4-.9c.3-.2.5-.3.8-.3s.6.1.8.3c.3.2.4.5.4.9zm-.4 16.6h-1.7v-12h1.7v12zm5.7-12c0 .3.1.6.1 1v1h.1c.2-.3.4-.6.7-.9.3-.3.6-.5 1-.7.4-.2.7-.4 1.1-.5.4-.1.8-.2 1.2-.2 1.5 0 2.7.4 3.4 1.2.7.8 1.1 2 1.1 3.5v7.6h-1.7v-6.7c0-1.3-.2-2.4-.7-3.1-.5-.7-1.3-1.1-2.6-1.1-.1 0-.3 0-.7.1s-.8.3-1.2.6c-.4.3-.8.8-1.2 1.4s-.5 1.5-.5 2.6v6.2h-1.7v-10.6c0-.5-.1-1-.1-1.4h1.7zm13.6 14.5c.5.7 1.1 1.2 1.9 1.6.8.4 1.7.6 2.7.6.9 0 1.6-.1 2.2-.4.6-.2 1.1-.6 1.5-1 .4-.4.6-.9.8-1.5.2-.6.2-1.2.2-1.8v-2.2h-.1c-.5.8-1.2 1.4-2 1.7-.8.3-1.6.5-2.5.5-.9 0-1.7-.2-2.5-.5s-1.4-.7-2-1.3c-.6-.5-1-1.2-1.3-1.9-.3-.8-.5-1.6-.5-2.4 0-.9.2-1.7.5-2.4.3-.8.7-1.4 1.3-2 .5-.6 1.2-1 1.9-1.3.7-.3 1.6-.5 2.5-.5.4 0 .7 0 1.1.1.4.1.8.2 1.2.4.4.2.8.4 1.2.7.4.3.8.7 1.1 1.1h.1v-2h1.7v11.9c0 .7-.1 1.3-.2 2.1-.2.7-.5 1.4-1 2-.5.6-1.1 1.1-2 1.5-.8.4-1.9.6-3.3.6-1.2 0-2.3-.2-3.2-.6-.9-.4-1.8-1-2.6-1.8l1.3-1.2zm.4-8.6c0 .6.1 1.2.3 1.8s.5 1 1 1.5c.4.4.9.8 1.4 1 .5.2 1.1.4 1.8.4.6 0 1.2-.1 1.8-.3.6-.2 1-.5 1.5-.9.4-.4.8-.9 1-1.5.2-.6.3-1.2.3-1.9 0-.6-.1-1.2-.3-1.8s-.5-1-.9-1.5-.9-.8-1.4-1c-.6-.2-1.2-.4-1.9-.4-.6 0-1.2.1-1.8.4-.5.2-1 .6-1.4 1-.4.4-.7.9-1 1.5s-.4 1-.4 1.7zm17.5 4.9c0 .4-.1.7-.4 1-.3.3-.6.4-1 .4s-.7-.1-1-.4c-.3-.3-.4-.6-.4-1s.1-.7.4-1 .6-.4 1-.4.7.1 1 .4.4.6.4 1z"/></svg>