<svg xmlns="http://www.w3.org/2000/svg" viewBox="0 0 300 300"><path fill="#FFF" d="M0-.5h300V300H0z"/><path fill="#FEEA3A" d="M-1870.3 0h300v300h-300V0z"/><g fill="#333"><path d="M-1720.3 208.1c50.4 0 91.3-40.9 91.3-91.3 0-7.8-1-15.4-2.9-22.9-.5-1.7-1.5-2.9-2.9-3.9-3.2-1.7-6.6-3.6-10-5.1-7.8-3.6-16.1-6.8-24.3-9.3-.5-.2-.7-.2-1.2-.5-16.1-4.6-32.9-7.3-49.9-7.3-26 0-51.9 5.9-75.5 16.8-3.4 1.7-6.8 3.4-10 5.1-1.5.7-2.5 2.2-2.9 3.9-1.9 7.3-2.9 15.1-2.9 22.9-.1 50.4 40.8 91.6 91.2 91.6zm0-12.2c-28.7 0-53.8-15.4-67.7-38.2 13.1-9 28.2-13.7 44.3-13.7 5.9 0 11.7.7 17.3 1.9v4.9c0 3.4 2.7 6.1 6.1 6.1s6.1-2.7 6.1-6.1V146c5.6-1.2 11.4-1.9 17.3-1.9 16.1 0 31.2 4.6 44.3 13.7-13.9 22.7-39 38.1-67.7 38.1zm-66.9-101.5c3.9-1.7 8-3.4 12.2-4.9v8.8c0 3.4-2.7 6.1-6.1 6.1-3.4 0-6.1-2.7-6.1-6.1v-3.9zm24.3-8.5c4.2-1 8-1.9 12.2-2.7v8c0 3.4-2.7 6.1-6.1 6.1s-6.1-2.7-6.1-6.1v-5.3zm24.3-4.6c4.2-.5 8-.7 12.2-1v5.9c0 3.4-2.7 6.1-6.1 6.1-3.4 0-6.1-2.7-6.1-6.1v-4.9zm24.4-1c4.2.2 8 .5 12.2 1v5.1c0 3.4-2.7 6.1-6.1 6.1-3.4 0-6.1-2.7-6.1-6.1v-6.1zm24.3 2.7c4.2.7 8 1.7 12.2 2.7V91c0 3.4-2.7 6.1-6.1 6.1s-6.1-2.7-6.1-6.1v-8zm24.4 6.5c4.2 1.5 8.3 3.2 12.2 4.9v3.9c0 3.4-2.7 6.1-6.1 6.1s-6.1-2.7-6.1-6.1v-8.8zm-132.9 14.9c2.5 7.3 9.3 12.4 17.3 12.4 6.8 0 12.9-3.9 15.8-9.3 2.5 1.2 5.3 1.9 8.5 1.9 6.1 0 11.4-2.9 14.8-7.6 2.7 1.7 6.1 2.7 9.5 2.7 4.6 0 9-1.7 12.2-4.6 3.2 2.9 7.6 4.6 12.2 4.6 3.4 0 6.8-1 9.5-2.7 3.4 4.6 8.8 7.6 14.8 7.6 2.9 0 5.9-.7 8.5-1.9 3.2 5.6 9 9.3 15.8 9.3 8 0 14.8-5.1 17.3-12.4.7 4.2 1 8.3 1 12.4 0 10.7-2.2 20.7-5.9 29.9-14.8-9.7-31.9-14.8-49.9-14.8-7.8 0-15.8 1-23.4 2.9-7.6-1.9-15.6-2.9-23.4-2.9-18 0-35 5.1-49.9 14.8-3.9-9.3-5.9-19.5-5.9-29.9.2-4.4.4-8.5 1.2-12.4z"/><path d="M-1647.1 189.8c-40.4 40.4-105.9 40.4-146.2 0-2.5-2.5-6.3-2.5-8.5 0s-2.5 6.3 0 8.5c22.6 22.6 52.1 33.8 81.8 33.8 29.7 0 59.1-11.2 81.8-33.8 2.5-2.5 2.5-6.3 0-8.5s-6.6-2.4-8.9 0z"/></g><g fill="#333"><path d="M-1408.6 208.1c50.4 0 91.3-40.9 91.3-91.3 0-7.8-1-15.4-2.9-22.9-.5-1.7-1.5-2.9-2.9-3.9-3.2-1.7-6.6-3.6-10-5.1-7.8-3.6-16.1-6.8-24.3-9.3-.5-.2-.7-.2-1.2-.5-16.1-4.6-32.9-7.3-49.9-7.3-26 0-51.9 5.9-75.5 16.8-3.4 1.7-6.8 3.4-10 5.1-1.5.7-2.5 2.2-2.9 3.9-1.9 7.3-2.9 15.1-2.9 22.9-.1 50.4 40.8 91.6 91.2 91.6zm0-12.2c-28.7 0-53.8-15.4-67.7-38.2 13.1-9 28.2-13.7 44.3-13.7 5.9 0 11.7.7 17.3 1.9v4.9c0 3.4 2.7 6.1 6.1 6.1s6.1-2.7 6.1-6.1V146c5.6-1.2 11.4-1.9 17.3-1.9 16.1 0 31.2 4.6 44.3 13.7-13.9 22.7-39 38.1-67.7 38.1zm-66.9-101.5c3.9-1.7 8-3.4 12.2-4.9v8.8c0 3.4-2.7 6.1-6.1 6.1-3.4 0-6.1-2.7-6.1-6.1v-3.9zm24.3-8.5c4.2-1 8-1.9 12.2-2.7v8c0 3.4-2.7 6.1-6.1 6.1s-6.1-2.7-6.1-6.1v-5.3zm24.3-4.6c4.2-.5 8-.7 12.2-1v5.9c0 3.4-2.7 6.1-6.1 6.1-3.4 0-6.1-2.7-6.1-6.1v-4.9zm24.4-1c4.2.2 8 .5 12.2 1v5.1c0 3.4-2.7 6.1-6.1 6.1-3.4 0-6.1-2.7-6.1-6.1v-6.1zm24.3 2.7c4.2.7 8 1.7 12.2 2.7V91c0 3.4-2.7 6.1-6.1 6.1s-6.1-2.7-6.1-6.1v-8zm24.4 6.5c4.2 1.5 8.3 3.2 12.2 4.9v3.9c0 3.4-2.7 6.1-6.1 6.1s-6.1-2.7-6.1-6.1v-8.8zm-132.9 14.9c2.5 7.3 9.3 12.4 17.3 12.4 6.8 0 12.9-3.9 15.8-9.3 2.5 1.2 5.3 1.9 8.5 1.9 6.1 0 11.4-2.9 14.8-7.6 2.7 1.7 6.1 2.7 9.5 2.7 4.6 0 9-1.7 12.2-4.6 3.2 2.9 7.6 4.6 12.2 4.6 3.4 0 6.8-1 9.5-2.7 3.4 4.6 8.8 7.6 14.8 7.6 2.9 0 5.9-.7 8.5-1.9 3.2 5.6 9 9.3 15.8 9.3 8 0 14.8-5.1 17.3-12.4.7 4.2 1 8.3 1 12.4 0 10.7-2.2 20.7-5.9 29.9-14.8-9.7-31.9-14.8-49.9-14.8-7.8 0-15.8 1-23.4 2.9-7.6-1.9-15.6-2.9-23.4-2.9-18 0-35 5.1-49.9 14.8-3.9-9.3-5.9-19.5-5.9-29.9.2-4.4.4-8.5 1.2-12.4z"/><path d="M-1335.4 189.8c-40.4 40.4-105.9 40.4-146.2 0-2.5-2.5-6.3-2.5-8.5 0s-2.5 6.3 0 8.5c22.6 22.6 52.1 33.8 81.8 33.8 29.7 0 59.1-11.2 81.8-33.8 2.5-2.5 2.5-6.3 0-8.5s-6.6-2.4-8.9 0z"/></g><path fill="#E91E63" d="M-1870.1 311.7h299.6v299.6h-299.6V311.7z"/><g fill="#FFF"><path d="M-1720.3 519.8c50.4 0 91.3-40.9 91.3-91.3 0-7.8-1-15.4-2.9-22.9-.5-1.7-1.5-2.9-2.9-3.9-3.2-1.7-6.6-3.6-10-5.1-7.8-3.6-16.1-6.8-24.3-9.3-.5-.2-.7-.2-1.2-.5-16.1-4.6-32.9-7.3-49.9-7.3-26 0-51.9 5.9-75.5 16.8-3.4 1.7-6.8 3.4-10 5.1-1.5.7-2.5 2.2-2.9 3.9-1.9 7.3-2.9 15.1-2.9 22.9-.1 50.5 40.8 91.6 91.2 91.6zm0-12.2c-28.7 0-53.8-15.4-67.7-38.2 13.1-9 28.2-13.7 44.3-13.7 5.9 0 11.7.7 17.3 1.9v4.9c0 3.4 2.7 6.1 6.1 6.1s6.1-2.7 6.1-6.1v-4.9c5.6-1.2 11.4-1.9 17.3-1.9 16.1 0 31.2 4.6 44.3 13.7-13.9 22.8-39 38.2-67.7 38.2zm-66.9-101.5c3.9-1.7 8-3.4 12.2-4.9v8.8c0 3.4-2.7 6.1-6.1 6.1-3.4 0-6.1-2.7-6.1-6.1v-3.9zm24.3-8.5c4.2-1 8-1.9 12.2-2.7v8c0 3.4-2.7 6.1-6.1 6.1s-6.1-2.7-6.1-6.1v-5.3zm24.3-4.6c4.2-.5 8-.7 12.2-1v5.9c0 3.4-2.7 6.1-6.1 6.1-3.4 0-6.1-2.7-6.1-6.1V393zm24.4-1c4.2.2 8 .5 12.2 1v5.1c0 3.4-2.7 6.1-6.1 6.1-3.4 0-6.1-2.7-6.1-6.1V392zm24.3 2.7c4.2.7 8 1.7 12.2 2.7v5.3c0 3.4-2.7 6.1-6.1 6.1s-6.1-2.7-6.1-6.1v-8zm24.4 6.5c4.2 1.5 8.3 3.2 12.2 4.9v3.9c0 3.4-2.7 6.1-6.1 6.1s-6.1-2.7-6.1-6.1v-8.8zm-132.9 14.9c2.5 7.3 9.3 12.4 17.3 12.4 6.8 0 12.9-3.9 15.8-9.3 2.5 1.2 5.3 1.9 8.5 1.9 6.1 0 11.4-2.9 14.8-7.6 2.7 1.7 6.1 2.7 9.5 2.7 4.6 0 9-1.7 12.2-4.6 3.2 2.9 7.6 4.6 12.2 4.6 3.4 0 6.8-1 9.5-2.7 3.4 4.6 8.8 7.6 14.8 7.6 2.9 0 5.9-.7 8.5-1.9 3.2 5.6 9 9.3 15.8 9.3 8 0 14.8-5.1 17.3-12.4.7 4.2 1 8.3 1 12.4 0 10.7-2.2 20.7-5.9 29.9-14.8-9.7-31.9-14.8-49.9-14.8-7.8 0-15.8 1-23.4 2.9-7.6-1.9-15.6-2.9-23.4-2.9-18 0-35 5.1-49.9 14.8-3.9-9.3-5.9-19.5-5.9-29.9.2-4.4.4-8.5 1.2-12.4z"/><path d="M-1647.1 501.5c-40.4 40.4-105.9 40.4-146.2 0-2.5-2.5-6.3-2.5-8.5 0s-2.5 6.3 0 8.5c22.6 22.6 52.1 33.8 81.8 33.8 29.7 0 59.1-11.2 81.8-33.8 2.5-2.5 2.5-6.3 0-8.5s-6.6-2.4-8.9 0z"/></g><path opacity=".3" fill="#F00" d="M-1246.9 0h300v50.3h-300V0z"/><path opacity=".3" fill="#FF8000" d="M-1246.9 49.8h300v50.3h-300V49.8z"/><path opacity=".3" fill="#FF0" d="M-1246.9 99.6h300v50.3h-300V99.6z"/><path opacity=".3" fill="green" d="M-1246.9 149.8h300v50.3h-300v-50.3z"/><path opacity=".3" fill="#00F" d="M-1246.9 199.6h300V250h-300v-50.4z"/><path opacity=".3" fill="#A000C0" d="M-1246.9 249.7h300V300h-300v-50.3z"/><g fill="#E91E63"><path d="M-1096.9 208.1c50.4 0 91.3-40.9 91.3-91.3 0-7.8-1-15.4-2.9-22.9-.5-1.7-1.5-2.9-2.9-3.9-3.2-1.7-6.6-3.6-10-5.1-7.8-3.6-16.1-6.8-24.3-9.3-.5-.2-.7-.2-1.2-.5-16.1-4.6-32.9-7.3-49.9-7.3-26 0-51.9 5.9-75.5 16.8-3.4 1.7-6.8 3.4-10 5.1-1.5.7-2.5 2.2-2.9 3.9-1.9 7.3-2.9 15.1-2.9 22.9-.1 50.4 40.8 91.6 91.2 91.6zm0-12.2c-28.7 0-53.8-15.4-67.7-38.2 13.1-9 28.2-13.7 44.3-13.7 5.9 0 11.7.7 17.3 1.9v4.9c0 3.4 2.7 6.1 6.1 6.1s6.1-2.7 6.1-6.1V146c5.6-1.2 11.4-1.9 17.3-1.9 16.1 0 31.2 4.6 44.3 13.7-13.9 22.7-39 38.1-67.7 38.1zm-66.9-101.5c3.9-1.7 8-3.4 12.2-4.9v8.8c0 3.4-2.7 6.1-6.1 6.1-3.4 0-6.1-2.7-6.1-6.1v-3.9zm24.3-8.5c4.2-1 8-1.9 12.2-2.7v8c0 3.4-2.7 6.1-6.1 6.1-3.4 0-6.1-2.7-6.1-6.1v-5.3zm24.3-4.6c4.2-.5 8-.7 12.2-1v5.9c0 3.4-2.7 6.1-6.1 6.1-3.4 0-6.1-2.7-6.1-6.1v-4.9zm24.4-1c4.2.2 8 .5 12.2 1v5.1c0 3.4-2.7 6.1-6.1 6.1s-6.1-2.7-6.1-6.1v-6.1zm24.3 2.7c4.2.7 8 1.7 12.2 2.7V91c0 3.4-2.7 6.1-6.1 6.1s-6.1-2.7-6.1-6.1v-8zm24.4 6.5c4.2 1.5 8.3 3.2 12.2 4.9v3.9c0 3.4-2.7 6.1-6.1 6.1s-6.1-2.7-6.1-6.1v-8.8zm-132.9 14.9c2.5 7.3 9.3 12.4 17.3 12.4 6.8 0 12.9-3.9 15.8-9.3 2.5 1.2 5.3 1.9 8.5 1.9 6.1 0 11.4-2.9 14.8-7.6 2.7 1.7 6.1 2.7 9.5 2.7 4.6 0 9-1.7 12.2-4.6 3.2 2.9 7.6 4.6 12.2 4.6 3.4 0 6.8-1 9.5-2.7 3.4 4.6 8.8 7.6 14.8 7.6 2.9 0 5.9-.7 8.5-1.9 3.2 5.6 9 9.3 15.8 9.3 8 0 14.8-5.1 17.3-12.4.7 4.2 1 8.3 1 12.4 0 10.7-2.2 20.7-5.9 29.9-14.8-9.7-31.9-14.8-49.9-14.8-7.8 0-15.8 1-23.4 2.9-7.6-1.9-15.6-2.9-23.4-2.9-18 0-35 5.1-49.9 14.8-3.9-9.3-5.9-19.5-5.9-29.9.2-4.4.5-8.5 1.2-12.4z"/><path d="M-1023.6 189.8c-40.4 40.4-105.9 40.4-146.2 0-2.5-2.5-6.3-2.5-8.5 0s-2.5 6.3 0 8.5c22.6 22.6 52.1 33.8 81.8 33.8s59.1-11.2 81.8-33.8c2.5-2.5 2.5-6.3 0-8.5s-6.7-2.4-8.9 0z"/></g><path fill="#FFEB3B" d="M-935-.5h299.6v299.6H-935V-.5z"/><g fill="#333"><path d="M-785.3 207.3c50.4 0 91.3-40.9 91.3-91.3 0-7.8-1-15.4-2.9-22.9-.5-1.7-1.5-2.9-2.9-3.9-3.2-1.7-6.6-3.6-10-5.1-7.8-3.6-16.1-6.8-24.3-9.3-.5-.2-.7-.2-1.2-.5-16.1-4.6-32.9-7.3-49.9-7.3-26 0-51.9 5.9-75.5 16.8-3.4 1.7-6.8 3.4-10 5.1-1.5.7-2.5 2.2-2.9 3.9-1.9 7.3-2.9 15.1-2.9 22.9-.1 50.5 40.8 91.6 91.2 91.6zm0-12.2c-28.7 0-53.8-15.4-67.7-38.2 13.1-9 28.2-13.7 44.3-13.7 5.9 0 11.7.7 17.3 1.9v4.9c0 3.4 2.7 6.1 6.1 6.1 3.4 0 6.1-2.7 6.1-6.1v-4.9c5.6-1.2 11.4-1.9 17.3-1.9 16.1 0 31.2 4.6 44.3 13.7-13.9 22.9-39 38.2-67.7 38.2zm-67-101.5c3.9-1.7 8-3.4 12.2-4.9v8.8c0 3.4-2.7 6.1-6.1 6.1-3.4 0-6.1-2.7-6.1-6.1v-3.9zm24.4-8.5c4.2-1 8-1.9 12.2-2.7v8c0 3.4-2.7 6.1-6.1 6.1-3.4 0-6.1-2.7-6.1-6.1v-5.3zm24.3-4.6c4.2-.5 8-.7 12.2-1v5.9c0 3.4-2.7 6.1-6.1 6.1-3.4 0-6.1-2.7-6.1-6.1v-4.9zm24.4-1c4.2.2 8 .5 12.2 1v5.1c0 3.4-2.7 6.1-6.1 6.1-3.4 0-6.1-2.7-6.1-6.1v-6.1zm24.3 2.7c4.2.7 8 1.7 12.2 2.7v5.3c0 3.4-2.7 6.1-6.1 6.1-3.4 0-6.1-2.7-6.1-6.1v-8zm24.3 6.6c4.2 1.5 8.3 3.2 12.2 4.9v3.9c0 3.4-2.7 6.1-6.1 6.1-3.4 0-6.1-2.7-6.1-6.1v-8.8zm-132.9 14.9c2.5 7.3 9.3 12.4 17.3 12.4 6.8 0 12.9-3.9 15.8-9.3 2.5 1.2 5.3 1.9 8.5 1.9 6.1 0 11.4-2.9 14.8-7.6 2.7 1.7 6.1 2.7 9.5 2.7 4.6 0 9-1.7 12.2-4.6 3.2 2.9 7.6 4.6 12.2 4.6 3.4 0 6.8-1 9.5-2.7 3.4 4.6 8.8 7.6 14.8 7.6 2.9 0 5.9-.7 8.5-1.9 3.2 5.6 9 9.3 15.8 9.3 8 0 14.8-5.1 17.3-12.4.7 4.2 1 8.3 1 12.4 0 10.7-2.2 20.7-5.9 29.9-14.8-9.7-31.9-14.8-49.9-14.8-7.8 0-15.8 1-23.4 2.9-7.6-1.9-15.6-2.9-23.4-2.9-18 0-35 5.1-49.9 14.8-3.9-9.3-5.9-19.5-5.9-29.9.3-4.4.5-8.6 1.2-12.4z"/><path d="M-712.1 189.1c-40.4 40.4-105.9 40.4-146.2 0-2.5-2.5-6.3-2.5-8.5 0s-2.5 6.3 0 8.5c22.6 22.6 52.1 33.8 81.8 33.8 29.7 0 59.1-11.2 81.8-33.8 2.5-2.5 2.5-6.3 0-8.5-2.6-2.2-6.7-2.5-8.9 0z"/></g><path fill="#FF0" d="M-623.3-.5h299.6v299.6h-299.6V-.5z"/><g fill="#333"><path d="M-473.6 207.3c50.4 0 91.3-40.9 91.3-91.3 0-7.8-1-15.4-2.9-22.9-.5-1.7-1.5-2.9-2.9-3.9-3.2-1.7-6.6-3.6-10-5.1-7.8-3.6-16.1-6.8-24.3-9.3-.5-.2-.7-.2-1.2-.5-16.1-4.6-32.9-7.3-49.9-7.3-26 0-51.9 5.9-75.5 16.8-3.4 1.7-6.8 3.4-10 5.1-1.5.7-2.5 2.2-2.9 3.9-1.9 7.3-2.9 15.1-2.9 22.9-.1 50.5 40.8 91.6 91.2 91.6zm0-12.2c-28.7 0-53.8-15.4-67.7-38.2 13.1-9 28.2-13.7 44.3-13.7 5.9 0 11.7.7 17.3 1.9v4.9c0 3.4 2.7 6.1 6.1 6.1 3.4 0 6.1-2.7 6.1-6.1v-4.9c5.6-1.2 11.4-1.9 17.3-1.9 16.1 0 31.2 4.6 44.3 13.7-13.9 22.9-39 38.2-67.7 38.2zm-67-101.5c3.9-1.7 8-3.4 12.2-4.9v8.8c0 3.4-2.7 6.1-6.1 6.1-3.4 0-6.1-2.7-6.1-6.1v-3.9zm24.4-8.5c4.2-1 8-1.9 12.2-2.7v8c0 3.4-2.7 6.1-6.1 6.1s-6.1-2.7-6.1-6.1v-5.3zm24.3-4.6c4.2-.5 8-.7 12.2-1v5.9c0 3.4-2.7 6.1-6.1 6.1s-6.1-2.7-6.1-6.1v-4.9zm24.4-1c4.2.2 8 .5 12.2 1v5.1c0 3.4-2.7 6.1-6.1 6.1-3.4 0-6.1-2.7-6.1-6.1v-6.1zm24.3 2.7c4.2.7 8 1.7 12.2 2.7v5.3c0 3.4-2.7 6.1-6.1 6.1-3.4 0-6.1-2.7-6.1-6.1v-8zm24.3 6.6c4.2 1.5 8.3 3.2 12.2 4.9v3.9c0 3.4-2.7 6.1-6.1 6.1-3.4 0-6.1-2.7-6.1-6.1v-8.8zm-132.9 14.9c2.5 7.3 9.3 12.4 17.3 12.4 6.8 0 12.9-3.9 15.8-9.3 2.5 1.2 5.3 1.9 8.5 1.9 6.1 0 11.4-2.9 14.8-7.6 2.7 1.7 6.1 2.7 9.5 2.7 4.6 0 9-1.7 12.2-4.6 3.2 2.9 7.6 4.6 12.2 4.6 3.4 0 6.8-1 9.5-2.7 3.4 4.6 8.8 7.6 14.8 7.6 2.9 0 5.9-.7 8.5-1.9 3.2 5.6 9 9.3 15.8 9.3 8 0 14.8-5.1 17.3-12.4.7 4.2 1 8.3 1 12.4 0 10.7-2.2 20.7-5.9 29.9-14.8-9.7-31.9-14.8-49.9-14.8-7.8 0-15.8 1-23.4 2.9-7.6-1.9-15.6-2.9-23.4-2.9-18 0-35 5.1-49.9 14.8-3.9-9.3-5.9-19.5-5.9-29.9.3-4.4.5-8.6 1.2-12.4z"/><path d="M-400.4 189.1c-40.4 40.4-105.9 40.4-146.2 0-2.5-2.5-6.3-2.5-8.5 0s-2.5 6.3 0 8.5c22.6 22.6 52.1 33.8 81.8 33.8s59.1-11.2 81.8-33.8c2.5-2.5 2.5-6.3 0-8.5s-6.7-2.5-8.9 0z"/></g><path fill="#5AF158" d="M-311.5-.5H-12v299.6h-299.6V-.5z"/><g fill="#FFF"><path d="M-161.9 207.3c50.4 0 91.3-40.9 91.3-91.3 0-7.8-1-15.4-2.9-22.9-.5-1.7-1.5-2.9-2.9-3.9-3.2-1.7-6.6-3.6-10-5.1-7.8-3.6-16.1-6.8-24.3-9.3-.5-.2-.7-.2-1.2-.5-16.1-4.6-32.9-7.3-49.9-7.3-26 0-51.9 5.9-75.5 16.8-3.4 1.7-6.8 3.4-10 5.1-1.5.7-2.5 2.2-2.9 3.9-1.9 7.3-2.9 15.1-2.9 22.9-.1 50.5 40.8 91.6 91.2 91.6zm0-12.2c-28.7 0-53.8-15.4-67.7-38.2 13.1-9 28.2-13.7 44.3-13.7 5.9 0 11.7.7 17.3 1.9v4.9c0 3.4 2.7 6.1 6.1 6.1 3.4 0 6.1-2.7 6.1-6.1v-4.9c5.6-1.2 11.4-1.9 17.3-1.9 16.1 0 31.2 4.6 44.3 13.7-13.9 22.9-39 38.2-67.7 38.2zm-67-101.5c3.9-1.7 8-3.4 12.2-4.9v8.8c0 3.4-2.7 6.1-6.1 6.1-3.4 0-6.1-2.7-6.1-6.1v-3.9zm24.4-8.5c4.2-1 8-1.9 12.2-2.7v8c0 3.4-2.7 6.1-6.1 6.1-3.4 0-6.1-2.7-6.1-6.1v-5.3zm24.3-4.6c4.2-.5 8-.7 12.2-1v5.9c0 3.4-2.7 6.1-6.1 6.1-3.4 0-6.1-2.7-6.1-6.1v-4.9zm24.4-1c4.2.2 8 .5 12.2 1v5.1c0 3.4-2.7 6.1-6.1 6.1s-6.1-2.7-6.1-6.1v-6.1zm24.3 2.7c4.2.7 8 1.7 12.2 2.7v5.3c0 3.4-2.7 6.1-6.1 6.1-3.4 0-6.1-2.7-6.1-6.1v-8zm24.3 6.6c4.2 1.5 8.3 3.2 12.2 4.9v3.9c0 3.4-2.7 6.1-6.1 6.1-3.4 0-6.1-2.7-6.1-6.1v-8.8zm-132.9 14.9c2.5 7.3 9.3 12.4 17.3 12.4 6.8 0 12.9-3.9 15.8-9.3 2.5 1.2 5.3 1.9 8.5 1.9 6.1 0 11.4-2.9 14.8-7.6 2.7 1.7 6.1 2.7 9.5 2.7 4.6 0 9-1.7 12.2-4.6 3.2 2.9 7.6 4.6 12.2 4.6 3.4 0 6.8-1 9.5-2.7 3.4 4.6 8.8 7.6 14.8 7.6 2.9 0 5.9-.7 8.5-1.9 3.2 5.6 9 9.3 15.8 9.3 8 0 14.8-5.1 17.3-12.4.7 4.2 1 8.3 1 12.4 0 10.7-2.2 20.7-5.9 29.9-14.8-9.7-31.9-14.8-49.9-14.8-7.8 0-15.8 1-23.4 2.9-7.6-1.9-15.6-2.9-23.4-2.9-18 0-35 5.1-49.9 14.8-3.9-9.3-5.9-19.5-5.9-29.9.3-4.4.5-8.6 1.2-12.4z"/><path d="M-88.7 189.1c-40.4 40.4-105.9 40.4-146.3 0-2.5-2.5-6.3-2.5-8.5 0s-2.5 6.3 0 8.5c22.6 22.6 52.1 33.8 81.8 33.8s59.1-11.2 81.8-33.8c2.5-2.5 2.5-6.3 0-8.5-2.4-2.2-6.6-2.5-8.8 0z"/></g><path fill="none" d="M25.2 34.3h249.6v242.6H25.2V34.3z"/><text transform="translate(45.2 74.847)" font-family="'Avenir-Medium'" font-size="30.347">dine</text><text transform="translate(45.2 96.09)" font-family="'Avenir-Light'" font-size="17.702">[dahyn]</text><text transform="translate(45.2 133.518)" font-family="'Avenir-Light'" font-size="13.488">verb: dined, dining.</text><path fill="#FEEA3A" d="M205.3 205.4h37.6V243h-37.6v-37.6z"/><g fill="#333"><path d="M223.7 231.5c6.3 0 11.4-5.1 11.4-11.4 0-1-.1-1.9-.4-2.9 0-.2-.2-.4-.4-.5-.4-.2-.8-.5-1.3-.6-1-.5-2-.8-3-1.1h-.2c-2-.6-4.1-.9-6.2-.9-3.2 0-6.5.7-9.4 2.1l-1.3.6c-.2.1-.3.3-.4.5-.3.9-.4 1.9-.4 2.9.2 6.2 5.3 11.3 11.6 11.3zm0-1.5c-3.6 0-6.7-1.9-8.5-4.8 1.6-1.1 3.5-1.7 5.6-1.7.7 0 1.5.1 2.1.3v.6c0 .4.3.8.8.8.4 0 .8-.3.8-.8v-.6c.7-.2 1.4-.3 2.1-.3 2 0 3.9.6 5.6 1.7-1.8 2.8-4.9 4.8-8.5 4.8zm-8.4-12.7l1.5-.6v1.1c0 .4-.3.8-.8.8-.4 0-.8-.3-.8-.8l.1-.5zm3-1.1c.5-.1 1-.3 1.5-.3v1c0 .4-.3.8-.8.8-.4 0-.8-.3-.8-.8l.1-.7zm3.1-.6l1.5-.1v.7c0 .4-.3.8-.8.8-.4 0-.8-.3-.8-.8l.1-.6zm3.1-.1c.5 0 1 0 1.5.1v.6c0 .4-.3.8-.8.8s-.8-.3-.8-.8l.1-.7zm3 .4l1.5.3v.7c0 .4-.3.8-.8.8-.4 0-.8-.3-.8-.8l.1-1zm3 .8c.5.2 1.1.4 1.5.6v.5c0 .4-.3.8-.8.8s-.8-.3-.8-.8l.1-1.1zm-16.6 1.8c.3.9 1.1 1.6 2.1 1.6.8 0 1.6-.5 2-1.1.3.2.7.3 1.1.3.8 0 1.4-.4 1.9-.9.3.2.8.3 1.2.3.6 0 1.1-.2 1.5-.6.4.4.9.6 1.5.6.4 0 .8-.1 1.2-.3.4.6 1.1.9 1.9.9.4 0 .7-.1 1.1-.3.4.7 1.1 1.1 2 1.1 1 0 1.9-.6 2.1-1.6.1.5.1 1.1.1 1.6 0 1.3-.3 2.6-.7 3.8-1.9-1.2-4-1.9-6.2-1.9-1 0-2 .1-2.9.4-.9-.3-1.9-.4-2.9-.4-2.2 0-4.4.6-6.2 1.9-.5-1.1-.7-2.4-.7-3.8-.2-.6-.2-1.1-.1-1.6z"/><path d="M232.8 229.2c-5.1 5.1-13.2 5.1-18.3 0-.3-.3-.8-.3-1.1 0-.3.3-.3.8 0 1.1 2.8 2.8 6.5 4.2 10.2 4.2 3.7 0 7.4-1.4 10.2-4.2.3-.3.3-.8 0-1.1-.2-.3-.7-.3-1 0z"/></g></svg>