<svg xmlns="http://www.w3.org/2000/svg" viewBox="0 0 300 300"><g fill="#FFF"><path d="M103.7 201.7c.9.6 1.7 1 3.2.6.8-.2 1.3-.6 1.6-.9 1.5-1.6 4.8-6.9 6.6-10.2 5.2-9.4 4.6-10.9 4.1-11.9-.5-1.2-1.7-1.9-2.6-1.8-3.6-.7-25-14-26.9-16.7-2.4-4-4.1-6.3-5.4-7.8 1.8-2.1 5.2-5.7 7.9-8.6 4.4-4.7 7.3-7.9 8.7-9.6 3.9-.6 21.4 5 30.3 8.7-.2 1.3-.4 2.5-.5 3.8-1 9.9.6 19.4 4.3 27.7-1.9 2.8-3.3 5.9-4.5 9.1-4.2-.3-8.3 1.2-11.3 4.2-2.4 2.4-3.9 5.5-4.2 8.8-.8 8 5 15.2 13 16 .6.1 1.2 0 1.8 0 1.7 5.2 4.3 10 7.8 14.3 7.5 9.2 18.1 14.9 29.9 16.1 13.3 1.4 26.4-3.3 35.9-12.8 5.4-5.4 9.3-12.1 11.3-19.4 3.1-.3 6.1-1.7 8.5-4.1 2.6-2.6 4.3-6.2 4.7-10 .9-8.6-4.9-16.3-12.8-17.1-1-.1-2.1-.1-3.2.1-.5-1.1-1.1-2.2-1.7-3.2.2-.4.5-.9.7-1.3-.1 1.1.1 2.1 1.1 2.8 1.3 1 2.6.6 3.6 0l12 4.5c.3.7.9 1.2 1.6 1.5.4.2 2 .7 3.5-.8.8-.8 1.9-2.5 4.5-8.8 1.1-2.7 2.7-6.7 4.6-11.3 6.6-16 16.5-40.3 18.4-49.3 2.5-11.9-.8-30.8-8.9-38.3-.7-.6-1.3-1.2-1.9-1.9-6.7-6.7-14.3-14.4-67.8-17.4-52.8-2.9-72.8 5.9-88.1 21.1-5.2 5.2-9.9 11.3-14.9 17.7-1.6 2-3.2 4.1-4.8 6.2-22 27.6-39.1 51.5-26.2 64.1 11.1 10.8 45.3 30.2 51.8 33.5 2.6 1.4 3.8 2.1 4.3 2.4zm13.5-4.3c.3-2.8 1.5-5.5 3.5-7.5 2.6-2.6 6.3-3.9 10-3.5 6.8.7 11.7 6.7 11 13.5-.3 2.8-1.5 5.5-3.5 7.5-2.6 2.6-6.3 3.9-10 3.5-6.8-.6-11.7-6.7-11-13.5zm83.9 31c-8.8 8.8-20.9 13.1-33.2 11.8-10.9-1.1-20.8-6.4-27.7-14.9-3.1-3.8-5.5-8.1-7-12.7 2.5-.6 4.8-1.8 6.7-3.7 2.4-2.4 3.9-5.5 4.2-8.8.7-7-3.7-13.4-10.2-15.4.8-2.1 1.8-4.1 2.9-6.1 1.3 2.5 2.9 4.9 4.6 7l.7 4.1 2.7-.3c.9 1 1.9 1.8 3 2.7l.1 3.8 3.7-1c.5.4 1.1.7 1.6 1l-.3 5.2 6.4-2.3c1.7.6 3.4 1.2 5.2 1.6l1.6 1.8 2-1.2c.2 0 .4.1.6.1 2.4.2 4.9.2 7.3-.1l2.3 4.3 1.9-4.9c1.1-.2 2.2-.5 3.3-.8l1.2 1.4 1.1-2.1c1.9-.7 3.7-1.5 5.5-2.5l1.6 1.3 1.8-3.3c1.5-1 3-2.2 4.4-3.4l.9 2.9 1.3-2.8c.6-1.4 1.3-2.8 1.9-4.1.6-.6 1.2-1.3 1.7-1.9.2.3.5.5.7.8l1.4 1.3.5-1.8s.5-1.7 1.2-4.5c1.9 3.8 3.2 7.9 3.9 12.1-1 .2-2 .6-2.7 1.4-.9.9-1.5 2-1.6 3.3-.2 1.5.3 2.9 1.2 4 .9 1.1 2.1 1.7 3.4 1.9-1 9.4-5.2 18.2-11.8 24.8zm9.8-27.8c-.6-.8-.9-1.7-.8-2.7.2-2 2.1-3.5 4-3.3 2 .2 3.5 2 3.3 4-.1.9-.4 1.6-1 2.2-.8.8-1.9 1.1-3 1-1 0-1.9-.5-2.5-1.2zm4-18.2c6.6.7 11.4 7.2 10.7 14.5-.3 3.3-1.7 6.3-4 8.6-1.8 1.8-4 2.9-6.3 3.3.4-1.7.8-3.3 1-5 0-.3 0-.7.1-1 1.5-.9 2.7-2.3 2.9-4.1.2-2.4-1.1-4.5-3.2-5.4-.5-3.7-1.5-7.4-2.9-10.9h1.7zm-137-77.3c1.7-2.1 3.3-4.2 4.9-6.2 5.1-6.6 9.6-12.3 14.5-17.2 14.5-14.5 32.9-22.4 84-19.5 51.4 2.9 58.5 10.1 64.3 15.8l2.1 2.1c6.7 6.1 9.4 22.9 7.3 33.2-1.8 8.5-11.6 32.5-18.1 48.4-1.9 4.6-3.5 8.6-4.6 11.3-1 2.5-1.7 4.2-2.2 5.2l-12.8-4.8c.6-1.6 1.2-3.6 1.7-5.9 1.5-7 7-33.9 7-33.9l1.1-5.3-12.4 6c-1.6-5.3-3.8-10.4-6.8-14.9-7.2-10.8-17.5-17.4-29-18.5-11.5-1.2-23 3.3-32.3 12.6-6.8 6.8-11.7 15.5-14.2 25.1-10.4-4.3-30.9-11.4-35-7.6l-.2.2-.2.2c-.9 1.3-5.1 5.7-8.7 9.6-10.7 11.4-10.9 11.6-10.1 13.6l.6 1.6 1.1.1c.9.9 3.1 3.9 5.2 7.4 1.8 3.1 20.7 15.4 28.6 18.5-1.4 3.6-6 11.5-8.2 14.5-.8-.5-1.9-1.1-3.7-2.1-8.4-4.3-40.6-22.9-50.5-32.6-8.8-8.5 3.7-28.1 26.6-56.9z"/><path d="M175.7 218.4c-.9-1.1-2.2-1.8-3.6-2-.5-.1-.9.1-1.4.2l-.9-.3c-.6-1.9-2.4-3.5-4.5-3.7-1.6-.2-3.2.4-4.4 1.6-.2.2-.3.4-.4.6-.7-1.8-2.3-3.1-4.4-3.4a5 5 0 0 0-4.3 1.6c-.9.9-1.4 2-1.5 3.2-.2 1.4.3 2.8 1.2 4 .5.6 1.2 1.1 1.9 1.4-.2.2-.6.3-.8.5-.9.9-1.4 2-1.5 3.3-.3 2.9 1.8 5.6 4.8 5.9.3.1.6-.1.9-.1.6 2.1 2.3 3.8 4.6 4a5 5 0 0 0 4.3-1.6c.6-.6 1-1.4 1.3-2.2.1 0 .1.1.2.1.6.1 1.1-.1 1.7-.2.9 1 2.1 1.8 3.6 1.9 1.6.1 3.2-.4 4.3-1.6.9-.9 1.4-2 1.6-3.2.1-1.4-.3-2.8-1.2-4-.2-.3-.5-.4-.8-.6.2-.5.4-1 .4-1.5.3-1.4-.2-2.8-1.1-3.9zm-10.5-4.5c1.9.2 3.3 1.6 3.6 3.4-.3.2-.7.3-1 .6-.9.9-1.4 2-1.6 3.2 0 .2.1.4.1.6-.1.1-.3.1-.4.1-.6-2.1-2.4-3.7-4.6-4-.1 0-.3.1-.4.1.1-.2.1-.4.2-.6 0-.2-.1-.3-.1-.5.5-1.7 2.3-3.1 4.2-2.9zm-.4 9.8c-.1.9-.5 1.8-1.2 2.5-.9.9-2.1 1.3-3.3 1.2-1.1-.1-2.1-.6-2.8-1.5-.7-.8-1-1.9-.9-3 .2-2.2 2.3-3.9 4.5-3.6 2.3.1 3.9 2.2 3.7 4.4zm-13.2-7.3c.2-2.2 2.3-3.9 4.5-3.7 2.3.2 3.9 2.2 3.6 4.5 0 .3-.1.6-.2.9-1 .2-1.9.6-2.6 1.3-.4.4-.7.8-.9 1.3-.2 0-.5.1-.7.1-1.1-.1-2.1-.6-2.8-1.5-.7-.8-1-1.8-.9-2.9zm.7 9.1c.2-1.5 1.3-2.8 2.7-3.4h.1c.1 0 .3-.1.4-.1-.1.2-.1.4-.2.6-.2 1.4.3 2.8 1.2 3.9.8.9 1.8 1.5 3 1.8-.1.1-.1.3-.3.4-.9.9-2.1 1.3-3.3 1.2-2.2-.1-3.8-2.1-3.6-4.4zm12.5 7.2c-.9.9-2.1 1.3-3.3 1.2-1.7-.2-3-1.4-3.5-2.9.8-.3 1.5-.7 2.1-1.3.4-.3.6-.8.9-1.2 1.3-.1 2.5-.5 3.4-1.4l.2-.2c.9.8 1.5 2 1.4 3.4-.1.9-.5 1.7-1.2 2.4zm3.5-2.6c-.3 0-.6.1-.9.1h-.1c.1-1.7-.7-3.3-1.9-4.3.3-.6.6-1.3.7-2 0-.2-.1-.5-.1-.7.1 0 .3 0 .4-.1.2.8.5 1.5 1 2.1.2.3.5.4.8.6-.2.5-.4 1-.4 1.5-.2 1 .1 1.9.5 2.8zm8.8-1.8c-.1.9-.5 1.8-1.2 2.5-.9.9-2.1 1.3-3.3 1.2-2.2-.2-3.9-2.2-3.7-4.5.2-2.2 2.3-3.9 4.5-3.7 1.1.1 2.1.6 2.7 1.5.9.8 1.2 1.9 1 3zm-1.7-5.2c-.5-.3-1.1-.5-1.7-.5-1.6-.2-3.2.4-4.4 1.6-.2.2-.3.4-.5.6-.1-.1-.3-.2-.4-.4-.7-.8-1-1.9-.9-3 .2-2.2 2.3-3.9 4.5-3.6 1.1.1 2.1.6 2.8 1.5.7.8 1 1.9.9 3-.1.2-.2.5-.3.8zm15.8-20.7c-1.2 1.2-2.3 2.7-3.4 4.3-.9-1-2-1.6-3.1-1.5-.6.1-1.2.4-1.7.9-1.9 1.9-2.7 6.7-2 12.2l.3 2.7c.2 1.7.4 3.4.8 4.9v.1c.5 1.9 1.5 3.4 3.4 3.9 1 .4 2 .6 3.2.1.1 0 .3-.2.4-.2.7-.2 1.3-.5 1.8-1l.1-.1c.7-.5 1.5-1.2 2.3-2 .8-.8 1.7-1.8 2.6-2.8l.4-.4c2.2-2.3 3.9-4.9 4.8-7.1 1-2.6.9-4.6-.3-5.7-.7-.6-1.6-.8-2.6-.8.7-1.6 1.3-3.2 1.6-4.6.5-2.7 0-4.7-1.4-5.5-1.6-1.3-4.3-.3-7.2 2.6zm-7.9 18.4l-.3-2.7c-.8-6.1.6-10.7 2-10.9 1.2-.2 3.2 2.8 4.3 7.8l-.1.1c-.3.3-.5.6-.8.8-.6.7-1.3 1.3-1.9 1.9-1.2 1.2-2.3 2.4-3.1 3.6 0-.2 0-.4-.1-.6zm16-5.4c-.8 2-2.4 4.4-4.4 6.5l-.4.4c-.9 1-1.7 1.9-2.6 2.7-1.6 1.7-2.8 2.5-3.9 2.9-1.1.4-1.9.2-2.8-.7-2.4-2.4-1.3-4 2.7-8.1.6-.6 1.3-1.3 1.9-2l.8-.8c4.3-4.3 8-5.4 8.9-4.6.6.7.5 2-.2 3.7zm-1.4-10.6c-.3 1.7-1.1 3.7-2.2 5.6-1.5.7-3.1 1.7-4.7 3-.5-1.9-1.2-3.7-2-5.1 1.1-1.7 2.3-3.3 3.5-4.5 2.3-2.3 4.1-3 4.8-2.5.8.4 1 1.7.6 3.5z"/></g></svg>