<svg xmlns="http://www.w3.org/2000/svg" viewBox="0 0 512 512"><path fill="#FEEA3A" d="M-4256 0h512v512h-512z"/><g fill="#333"><path d="M-4000 325.1c86 0 155.8-69.8 155.8-155.8 0-13.3-1.7-26.2-5-39-.8-2.9-2.5-5-5-6.6-5.4-2.9-11.2-6.2-17-8.7-13.3-6.2-27.4-11.6-41.5-15.8-.8-.4-1.2-.4-2.1-.8-27.4-7.9-56.1-12.5-85.1-12.5-44.4 0-88.5 10-128.8 28.7-5.8 2.9-11.6 5.8-17 8.7-2.5 1.2-4.2 3.7-5 6.6-3.3 12.5-5 25.8-5 39-.1 86 69.7 156.2 155.7 156.2zm0-20.8c-49 0-91.8-26.2-115.5-65.2 22.4-15.4 48.2-23.3 75.6-23.3 10 0 19.9 1.2 29.5 3.3v8.3c0 5.8 4.6 10.4 10.4 10.4s10.4-4.6 10.4-10.4v-8.3c9.6-2.1 19.5-3.3 29.5-3.3 27.4 0 53.2 7.9 75.6 23.3-23.7 39-66.5 65.2-115.5 65.2zm-114.2-173.2c6.6-2.9 13.7-5.8 20.8-8.3v15c0 5.8-4.6 10.4-10.4 10.4-5.8 0-10.4-4.6-10.4-10.4v-6.7zm41.5-14.5c7.1-1.7 13.7-3.3 20.8-4.6v13.7c0 5.8-4.6 10.4-10.4 10.4s-10.4-4.6-10.4-10.4v-9.1zm41.5-7.9c7.1-.8 13.7-1.2 20.8-1.7v10c0 5.8-4.6 10.4-10.4 10.4-5.8 0-10.4-4.6-10.4-10.4v-8.3zm41.6-1.7c7.1.4 13.7.8 20.8 1.7v8.7c0 5.8-4.6 10.4-10.4 10.4-5.8 0-10.4-4.6-10.4-10.4V107zm41.5 4.6c7.1 1.2 13.7 2.9 20.8 4.6v9.1c0 5.8-4.6 10.4-10.4 10.4s-10.4-4.6-10.4-10.4v-13.7zm41.6 11.2c7.1 2.5 14.1 5.4 20.8 8.3v6.6c0 5.8-4.6 10.4-10.4 10.4s-10.4-4.6-10.4-10.4v-14.9zm-226.8 25.3c4.2 12.5 15.8 21.2 29.5 21.2 11.6 0 22-6.6 27-15.8 4.2 2.1 9.1 3.3 14.5 3.3 10.4 0 19.5-5 25.3-12.9 4.6 2.9 10.4 4.6 16.2 4.6 7.9 0 15.4-2.9 20.8-7.9 5.4 5 12.9 7.9 20.8 7.9 5.8 0 11.6-1.7 16.2-4.6 5.8 7.9 15 12.9 25.3 12.9 5 0 10-1.2 14.5-3.3 5.4 9.6 15.4 15.8 27 15.8 13.7 0 25.3-8.7 29.5-21.2 1.2 7.1 1.7 14.1 1.7 21.2 0 18.3-3.7 35.3-10 51.1-25.3-16.6-54.4-25.3-85.1-25.3-13.3 0-27 1.7-39.9 5-12.9-3.3-26.6-5-39.9-5-30.7 0-59.8 8.7-85.1 25.3-6.6-15.8-10-33.2-10-51.1 0-7.5.4-14.5 1.7-21.2z"/><path d="M-3875 293.9c-69 69-180.7 69-249.6 0-4.2-4.2-10.8-4.2-14.5 0-3.7 4.2-4.2 10.8 0 14.5 38.6 38.6 88.9 57.7 139.6 57.7 50.7 0 100.9-19.1 139.6-57.7 4.2-4.2 4.2-10.8 0-14.5s-11.3-4.1-15.1 0z"/></g><g fill="#232323"><path d="M-3468 355.1c86 0 155.8-69.8 155.8-155.8 0-13.3-1.7-26.2-5-39-.8-2.9-2.5-5-5-6.6-5.4-2.9-11.2-6.2-17-8.7-13.3-6.2-27.4-11.6-41.5-15.8-.8-.4-1.2-.4-2.1-.8-27.4-7.9-56.1-12.5-85.1-12.5-44.4 0-88.5 10-128.8 28.7-5.8 2.9-11.6 5.8-17 8.7-2.5 1.2-4.2 3.7-5 6.6-3.3 12.5-5 25.8-5 39-.1 86 69.7 156.2 155.7 156.2zm0-20.8c-49 0-91.8-26.2-115.5-65.2 22.4-15.4 48.2-23.3 75.6-23.3 10 0 19.9 1.2 29.5 3.3v8.3c0 5.8 4.6 10.4 10.4 10.4s10.4-4.6 10.4-10.4v-8.3c9.6-2.1 19.5-3.3 29.5-3.3 27.4 0 53.2 7.9 75.6 23.3-23.7 39-66.5 65.2-115.5 65.2zm-114.2-173.2c6.6-2.9 13.7-5.8 20.8-8.3v15c0 5.8-4.6 10.4-10.4 10.4-5.8 0-10.4-4.6-10.4-10.4v-6.7zm41.5-14.5c7.1-1.7 13.7-3.3 20.8-4.6v13.7c0 5.8-4.6 10.4-10.4 10.4s-10.4-4.6-10.4-10.4v-9.1zm41.5-7.9c7.1-.8 13.7-1.2 20.8-1.7v10c0 5.8-4.6 10.4-10.4 10.4-5.8 0-10.4-4.6-10.4-10.4v-8.3zm41.6-1.7c7.1.4 13.7.8 20.8 1.7v8.7c0 5.8-4.6 10.4-10.4 10.4-5.8 0-10.4-4.6-10.4-10.4V137zm41.5 4.6c7.1 1.2 13.7 2.9 20.8 4.6v9.1c0 5.8-4.6 10.4-10.4 10.4s-10.4-4.6-10.4-10.4v-13.7zm41.6 11.2c7.1 2.5 14.1 5.4 20.8 8.3v6.6c0 5.8-4.6 10.4-10.4 10.4s-10.4-4.6-10.4-10.4v-14.9zm-226.8 25.3c4.2 12.5 15.8 21.2 29.5 21.2 11.6 0 22-6.6 27-15.8 4.2 2.1 9.1 3.3 14.5 3.3 10.4 0 19.5-5 25.3-12.9 4.6 2.9 10.4 4.6 16.2 4.6 7.9 0 15.4-2.9 20.8-7.9 5.4 5 12.9 7.9 20.8 7.9 5.8 0 11.6-1.7 16.2-4.6 5.8 7.9 15 12.9 25.3 12.9 5 0 10-1.2 14.5-3.3 5.4 9.6 15.4 15.8 27 15.8 13.7 0 25.3-8.7 29.5-21.2 1.2 7.1 1.7 14.1 1.7 21.2 0 18.3-3.7 35.3-10 51.1-25.3-16.6-54.4-25.3-85.1-25.3-13.3 0-27 1.7-39.9 5-12.9-3.3-26.6-5-39.9-5-30.7 0-59.8 8.7-85.1 25.3-6.6-15.8-10-33.2-10-51.1 0-7.5.4-14.5 1.7-21.2z"/><path d="M-3343 323.9c-69 69-180.7 69-249.6 0-4.2-4.2-10.8-4.2-14.5 0-3.7 4.2-4.2 10.8 0 14.5 38.6 38.6 88.9 57.7 139.6 57.7 50.7 0 100.9-19.1 139.6-57.7 4.2-4.2 4.2-10.8 0-14.5s-11.3-4.1-15.1 0z"/></g><path fill="#E91E63" d="M-4255.7 532h511.3v511.3h-511.3z"/><g fill="#FFF"><path d="M-4000 887.1c86 0 155.8-69.8 155.8-155.8 0-13.3-1.7-26.2-5-39-.8-2.9-2.5-5-5-6.6-5.4-2.9-11.2-6.2-17-8.7-13.3-6.2-27.4-11.6-41.5-15.8-.8-.4-1.2-.4-2.1-.8-27.4-7.9-56.1-12.5-85.1-12.5-44.4 0-88.5 10-128.8 28.7-5.8 2.9-11.6 5.8-17 8.7-2.5 1.2-4.2 3.7-5 6.6-3.3 12.5-5 25.8-5 39-.1 86 69.7 156.2 155.7 156.2zm0-20.8c-49 0-91.8-26.2-115.5-65.2 22.4-15.4 48.2-23.3 75.6-23.3 10 0 19.9 1.2 29.5 3.3v8.3c0 5.8 4.6 10.4 10.4 10.4s10.4-4.6 10.4-10.4v-8.3c9.6-2.1 19.5-3.3 29.5-3.3 27.4 0 53.2 7.9 75.6 23.3-23.7 39-66.5 65.2-115.5 65.2zm-114.2-173.2c6.6-2.9 13.7-5.8 20.8-8.3v15c0 5.8-4.6 10.4-10.4 10.4-5.8 0-10.4-4.6-10.4-10.4v-6.7zm41.5-14.5c7.1-1.7 13.7-3.3 20.8-4.6v13.7c0 5.8-4.6 10.4-10.4 10.4s-10.4-4.6-10.4-10.4v-9.1zm41.5-7.9c7.1-.8 13.7-1.2 20.8-1.7v10c0 5.8-4.6 10.4-10.4 10.4-5.8 0-10.4-4.6-10.4-10.4v-8.3zm41.6-1.7c7.1.4 13.7.8 20.8 1.7v8.7c0 5.8-4.6 10.4-10.4 10.4-5.8 0-10.4-4.6-10.4-10.4V669zm41.5 4.6c7.1 1.2 13.7 2.9 20.8 4.6v9.1c0 5.8-4.6 10.4-10.4 10.4s-10.4-4.6-10.4-10.4v-13.7zm41.6 11.2c7.1 2.5 14.1 5.4 20.8 8.3v6.6c0 5.8-4.6 10.4-10.4 10.4s-10.4-4.6-10.4-10.4v-14.9zm-226.8 25.3c4.2 12.5 15.8 21.2 29.5 21.2 11.6 0 22-6.6 27-15.8 4.2 2.1 9.1 3.3 14.5 3.3 10.4 0 19.5-5 25.3-12.9 4.6 2.9 10.4 4.6 16.2 4.6 7.9 0 15.4-2.9 20.8-7.9 5.4 5 12.9 7.9 20.8 7.9 5.8 0 11.6-1.7 16.2-4.6 5.8 7.9 15 12.9 25.3 12.9 5 0 10-1.2 14.5-3.3 5.4 9.6 15.4 15.8 27 15.8 13.7 0 25.3-8.7 29.5-21.2 1.2 7.1 1.7 14.1 1.7 21.2 0 18.3-3.7 35.3-10 51.1-25.3-16.6-54.4-25.3-85.1-25.3-13.3 0-27 1.7-39.9 5-12.9-3.3-26.6-5-39.9-5-30.7 0-59.8 8.7-85.1 25.3-6.6-15.8-10-33.2-10-51.1 0-7.5.4-14.5 1.7-21.2z"/><path d="M-3875 855.9c-69 69-180.7 69-249.6 0-4.2-4.2-10.8-4.2-14.5 0-3.7 4.2-4.2 10.8 0 14.5 38.6 38.6 88.9 57.7 139.6 57.7 50.7 0 100.9-19.1 139.6-57.7 4.2-4.2 4.2-10.8 0-14.5s-11.3-4.1-15.1 0z"/></g><path opacity=".3" fill="#F00" d="M-3192 0h512v85.9h-512z"/><path opacity=".3" fill="#FF8000" d="M-3192 85h512v85.9h-512z"/><path opacity=".3" fill="#FF0" d="M-3192 169.9h512v85.9h-512z"/><path opacity=".3" fill="green" d="M-3192 255.7h512v85.9h-512z"/><path opacity=".3" fill="#00F" d="M-3192 340.7h512v85.9h-512z"/><path opacity=".3" fill="#A000C0" d="M-3192 426.1h512V512h-512z"/><g fill="#E91E63"><path d="M-2936 355.1c86 0 155.8-69.8 155.8-155.8 0-13.3-1.7-26.2-5-39-.8-2.9-2.5-5-5-6.6-5.4-2.9-11.2-6.2-17-8.7-13.3-6.2-27.4-11.6-41.5-15.8-.8-.4-1.2-.4-2.1-.8-27.4-7.9-56.1-12.5-85.1-12.5-44.4 0-88.5 10-128.8 28.7-5.8 2.9-11.6 5.8-17 8.7-2.5 1.2-4.2 3.7-5 6.6-3.3 12.5-5 25.8-5 39-.1 86 69.7 156.2 155.7 156.2zm0-20.8c-49 0-91.8-26.2-115.5-65.2 22.4-15.4 48.2-23.3 75.6-23.3 10 0 19.9 1.2 29.5 3.3v8.3c0 5.8 4.6 10.4 10.4 10.4s10.4-4.6 10.4-10.4v-8.3c9.6-2.1 19.5-3.3 29.5-3.3 27.4 0 53.2 7.9 75.6 23.3-23.7 39-66.5 65.2-115.5 65.2zm-114.2-173.2c6.6-2.9 13.7-5.8 20.8-8.3v15c0 5.8-4.6 10.4-10.4 10.4-5.8 0-10.4-4.6-10.4-10.4v-6.7zm41.5-14.5c7.1-1.7 13.7-3.3 20.8-4.6v13.7c0 5.8-4.6 10.4-10.4 10.4s-10.4-4.6-10.4-10.4v-9.1zm41.5-7.9c7.1-.8 13.7-1.2 20.8-1.7v10c0 5.8-4.6 10.4-10.4 10.4-5.8 0-10.4-4.6-10.4-10.4v-8.3zm41.6-1.7c7.1.4 13.7.8 20.8 1.7v8.7c0 5.8-4.6 10.4-10.4 10.4-5.8 0-10.4-4.6-10.4-10.4V137zm41.5 4.6c7.1 1.2 13.7 2.9 20.8 4.6v9.1c0 5.8-4.6 10.4-10.4 10.4s-10.4-4.6-10.4-10.4v-13.7zm41.6 11.2c7.1 2.5 14.1 5.4 20.8 8.3v6.6c0 5.8-4.6 10.4-10.4 10.4s-10.4-4.6-10.4-10.4v-14.9zm-226.8 25.3c4.2 12.5 15.8 21.2 29.5 21.2 11.6 0 22-6.6 27-15.8 4.2 2.1 9.1 3.3 14.5 3.3 10.4 0 19.5-5 25.3-12.9 4.6 2.9 10.4 4.6 16.2 4.6 7.9 0 15.4-2.9 20.8-7.9 5.4 5 12.9 7.9 20.8 7.9 5.8 0 11.6-1.7 16.2-4.6 5.8 7.9 15 12.9 25.3 12.9 5 0 10-1.2 14.5-3.3 5.4 9.6 15.4 15.8 27 15.8 13.7 0 25.3-8.7 29.5-21.2 1.2 7.1 1.7 14.1 1.7 21.2 0 18.3-3.7 35.3-10 51.1-25.3-16.6-54.4-25.3-85.1-25.3-13.3 0-27 1.7-39.9 5-12.9-3.3-26.6-5-39.9-5-30.7 0-59.8 8.7-85.1 25.3-6.6-15.8-10-33.2-10-51.1 0-7.5.4-14.5 1.7-21.2z"/><path d="M-2811 323.9c-69 69-180.7 69-249.6 0-4.2-4.2-10.8-4.2-14.5 0-3.7 4.2-4.2 10.8 0 14.5 38.6 38.6 88.9 57.7 139.6 57.7 50.7 0 100.9-19.1 139.6-57.7 4.2-4.2 4.2-10.8 0-14.5s-11.3-4.1-15.1 0z"/></g><path fill="#FFEB3B" d="M-2659.7-.9h511.3v511.3h-511.3z"/><g fill="#333"><path d="M-2404.3 353.8c86 0 155.8-69.8 155.8-155.8 0-13.3-1.7-26.2-5-39-.8-2.9-2.5-5-5-6.6-5.4-2.9-11.2-6.2-17-8.7-13.3-6.2-27.4-11.6-41.5-15.8-.8-.4-1.2-.4-2.1-.8-27.4-7.9-56.1-12.5-85.1-12.5-44.4 0-88.5 10-128.8 28.7-5.8 2.9-11.6 5.8-17 8.7-2.5 1.2-4.2 3.7-5 6.6-3.3 12.5-5 25.8-5 39-.1 86 69.7 156.2 155.7 156.2zm0-20.8c-49 0-91.8-26.2-115.5-65.2 22.4-15.4 48.2-23.3 75.6-23.3 10 0 19.9 1.2 29.5 3.3v8.3c0 5.8 4.6 10.4 10.4 10.4 5.8 0 10.4-4.6 10.4-10.4v-8.3c9.6-2.1 19.5-3.3 29.5-3.3 27.4 0 53.2 7.9 75.6 23.3-23.7 39.1-66.5 65.2-115.5 65.2zm-114.3-173.2c6.6-2.9 13.7-5.8 20.8-8.3v15c0 5.8-4.6 10.4-10.4 10.4s-10.4-4.6-10.4-10.4v-6.7zm41.6-14.5c7.1-1.7 13.7-3.3 20.8-4.6v13.7c0 5.8-4.6 10.4-10.4 10.4-5.8 0-10.4-4.6-10.4-10.4v-9.1zm41.5-7.9c7.1-.8 13.7-1.2 20.8-1.7v10c0 5.8-4.6 10.4-10.4 10.4-5.8 0-10.4-4.6-10.4-10.4v-8.3zm41.6-1.7c7.1.4 13.7.8 20.8 1.7v8.7c0 5.8-4.6 10.4-10.4 10.4s-10.4-4.6-10.4-10.4v-10.4zm41.5 4.6c7.1 1.2 13.7 2.9 20.8 4.6v9.1c0 5.8-4.6 10.4-10.4 10.4s-10.4-4.6-10.4-10.4v-13.7zm41.5 11.2c7.1 2.5 14.1 5.4 20.8 8.3v6.6c0 5.8-4.6 10.4-10.4 10.4-5.8 0-10.4-4.6-10.4-10.4v-14.9zm-226.8 25.4c4.2 12.5 15.8 21.2 29.5 21.2 11.6 0 22-6.6 27-15.8 4.2 2.1 9.1 3.3 14.5 3.3 10.4 0 19.5-5 25.3-12.9 4.6 2.9 10.4 4.6 16.2 4.6 7.9 0 15.4-2.9 20.8-7.9 5.4 5 12.9 7.9 20.8 7.9 5.8 0 11.6-1.7 16.2-4.6 5.8 7.9 15 12.9 25.3 12.9 5 0 10-1.2 14.5-3.3 5.4 9.6 15.4 15.8 27 15.8 13.7 0 25.3-8.7 29.5-21.2 1.2 7.1 1.7 14.1 1.7 21.2 0 18.3-3.7 35.3-10 51.1-25.3-16.6-54.4-25.3-85.1-25.3-13.3 0-27 1.7-39.9 5-12.9-3.3-26.6-5-39.9-5-30.7 0-59.8 8.7-85.1 25.3-6.6-15.8-10-33.2-10-51.1.1-7.5.5-14.6 1.7-21.2z"/><path d="M-2279.3 322.7c-69 69-180.7 69-249.6 0-4.2-4.2-10.8-4.2-14.5 0-3.7 4.2-4.2 10.8 0 14.5 38.6 38.6 88.9 57.7 139.6 57.7 50.7 0 100.9-19.1 139.6-57.7 4.2-4.2 4.2-10.8 0-14.5-4.3-3.8-11.4-4.2-15.1 0z"/></g><path fill="#FF0" d="M-2127.7-.9h511.3v511.3h-511.3z"/><g fill="#333"><path d="M-1872.3 353.8c86 0 155.8-69.8 155.8-155.8 0-13.3-1.7-26.2-5-39-.8-2.9-2.5-5-5-6.6-5.4-2.9-11.2-6.2-17-8.7-13.3-6.2-27.4-11.6-41.5-15.8-.8-.4-1.2-.4-2.1-.8-27.4-7.9-56.1-12.5-85.1-12.5-44.4 0-88.5 10-128.8 28.7-5.8 2.9-11.6 5.8-17 8.7-2.5 1.2-4.2 3.7-5 6.6-3.3 12.5-5 25.8-5 39-.1 86 69.7 156.2 155.7 156.2zm0-20.8c-49 0-91.8-26.2-115.5-65.2 22.4-15.4 48.2-23.3 75.6-23.3 10 0 19.9 1.2 29.5 3.3v8.3c0 5.8 4.6 10.4 10.4 10.4 5.8 0 10.4-4.6 10.4-10.4v-8.3c9.6-2.1 19.5-3.3 29.5-3.3 27.4 0 53.2 7.9 75.6 23.3-23.7 39.1-66.5 65.2-115.5 65.2zm-114.3-173.2c6.6-2.9 13.7-5.8 20.8-8.3v15c0 5.8-4.6 10.4-10.4 10.4s-10.4-4.6-10.4-10.4v-6.7zm41.6-14.5c7.1-1.7 13.7-3.3 20.8-4.6v13.7c0 5.8-4.6 10.4-10.4 10.4-5.8 0-10.4-4.6-10.4-10.4v-9.1zm41.5-7.9c7.1-.8 13.7-1.2 20.8-1.7v10c0 5.8-4.6 10.4-10.4 10.4s-10.4-4.6-10.4-10.4v-8.3zm41.6-1.7c7.1.4 13.7.8 20.8 1.7v8.7c0 5.8-4.6 10.4-10.4 10.4-5.8 0-10.4-4.6-10.4-10.4v-10.4zm41.5 4.6c7.1 1.2 13.7 2.9 20.8 4.6v9.1c0 5.8-4.6 10.4-10.4 10.4-5.8 0-10.4-4.6-10.4-10.4v-13.7zm41.5 11.2c7.1 2.5 14.1 5.4 20.8 8.3v6.6c0 5.8-4.6 10.4-10.4 10.4-5.8 0-10.4-4.6-10.4-10.4v-14.9zm-226.8 25.4c4.2 12.5 15.8 21.2 29.5 21.2 11.6 0 22-6.6 27-15.8 4.2 2.1 9.1 3.3 14.5 3.3 10.4 0 19.5-5 25.3-12.9 4.6 2.9 10.4 4.6 16.2 4.6 7.9 0 15.4-2.9 20.8-7.9 5.4 5 12.9 7.9 20.8 7.9 5.8 0 11.6-1.7 16.2-4.6 5.8 7.9 15 12.9 25.3 12.9 5 0 10-1.2 14.5-3.3 5.4 9.6 15.4 15.8 27 15.8 13.7 0 25.3-8.7 29.5-21.2 1.2 7.1 1.7 14.1 1.7 21.2 0 18.3-3.7 35.3-10 51.1-25.3-16.6-54.4-25.3-85.1-25.3-13.3 0-27 1.7-39.9 5-12.9-3.3-26.6-5-39.9-5-30.7 0-59.8 8.7-85.1 25.3-6.6-15.8-10-33.2-10-51.1.1-7.5.5-14.6 1.7-21.2z"/><path d="M-1747.3 322.7c-69 69-180.7 69-249.6 0-4.2-4.2-10.8-4.2-14.5 0-3.7 4.2-4.2 10.8 0 14.5 38.6 38.6 88.9 57.7 139.6 57.7s100.9-19.1 139.6-57.7c4.2-4.2 4.2-10.8 0-14.5-4.3-3.8-11.4-4.2-15.1 0z"/></g><path fill="#5AF158" d="M-1595.7-.9h511.3v511.3h-511.3z"/><g fill="#FFF"><path d="M-1340.3 353.8c86 0 155.8-69.8 155.8-155.8 0-13.3-1.7-26.2-5-39-.8-2.9-2.5-5-5-6.6-5.4-2.9-11.2-6.2-17-8.7-13.3-6.2-27.4-11.6-41.5-15.8-.8-.4-1.2-.4-2.1-.8-27.4-7.9-56.1-12.5-85.1-12.5-44.4 0-88.5 10-128.8 28.7-5.8 2.9-11.6 5.8-17 8.7-2.5 1.2-4.2 3.7-5 6.6-3.3 12.5-5 25.8-5 39-.1 86 69.7 156.2 155.7 156.2zm0-20.8c-49 0-91.8-26.2-115.5-65.2 22.4-15.4 48.2-23.3 75.6-23.3 10 0 19.9 1.2 29.5 3.3v8.3c0 5.8 4.6 10.4 10.4 10.4 5.8 0 10.4-4.6 10.4-10.4v-8.3c9.6-2.1 19.5-3.3 29.5-3.3 27.4 0 53.2 7.9 75.6 23.3-23.7 39.1-66.5 65.2-115.5 65.2zm-114.3-173.2c6.6-2.9 13.7-5.8 20.8-8.3v15c0 5.8-4.6 10.4-10.4 10.4s-10.4-4.6-10.4-10.4v-6.7zm41.6-14.5c7.1-1.7 13.7-3.3 20.8-4.6v13.7c0 5.8-4.6 10.4-10.4 10.4-5.8 0-10.4-4.6-10.4-10.4v-9.1zm41.5-7.9c7.1-.8 13.7-1.2 20.8-1.7v10c0 5.8-4.6 10.4-10.4 10.4s-10.4-4.6-10.4-10.4v-8.3zm41.6-1.7c7.1.4 13.7.8 20.8 1.7v8.7c0 5.8-4.6 10.4-10.4 10.4-5.8 0-10.4-4.6-10.4-10.4v-10.4zm41.5 4.6c7.1 1.2 13.7 2.9 20.8 4.6v9.1c0 5.8-4.6 10.4-10.4 10.4-5.8 0-10.4-4.6-10.4-10.4v-13.7zm41.5 11.2c7.1 2.5 14.1 5.4 20.8 8.3v6.6c0 5.8-4.6 10.4-10.4 10.4-5.8 0-10.4-4.6-10.4-10.4v-14.9zm-226.8 25.4c4.2 12.5 15.8 21.2 29.5 21.2 11.6 0 22-6.6 27-15.8 4.2 2.1 9.1 3.3 14.5 3.3 10.4 0 19.5-5 25.3-12.9 4.6 2.9 10.4 4.6 16.2 4.6 7.9 0 15.4-2.9 20.8-7.9 5.4 5 12.9 7.9 20.8 7.9 5.8 0 11.6-1.7 16.2-4.6 5.8 7.9 15 12.9 25.3 12.9 5 0 10-1.2 14.5-3.3 5.4 9.6 15.4 15.8 27 15.8 13.7 0 25.3-8.7 29.5-21.2 1.2 7.1 1.7 14.1 1.7 21.2 0 18.3-3.7 35.3-10 51.1-25.3-16.6-54.4-25.3-85.1-25.3-13.3 0-27 1.7-39.9 5-12.9-3.3-26.6-5-39.9-5-30.7 0-59.8 8.7-85.1 25.3-6.6-15.8-10-33.2-10-51.1.1-7.5.5-14.6 1.7-21.2z"/><path d="M-1215.3 322.7c-69 69-180.7 69-249.6 0-4.2-4.2-10.8-4.2-14.5 0-3.7 4.2-4.2 10.8 0 14.5 38.6 38.6 88.9 57.7 139.6 57.7s100.9-19.1 139.6-57.7c4.2-4.2 4.2-10.8 0-14.5-4.3-3.8-11.4-4.2-15.1 0z"/></g><path fill="none" d="M-1021 58.6h426v414h-426z"/><text transform="translate(-1020.99 113.045)"><tspan x="0" y="0" font-family="'Avenir-Medium'" font-size="72">dine</tspan><tspan x="0" y="50.4" font-family="'Avenir-Light'" font-size="42">[dahyn]</tspan><tspan x="0" y="139.2" font-family="'Avenir-Light'" font-size="32">verb: dined, dining.</tspan></text><path fill="#FEEA3A" d="M-641.1 422.9h89.1V512h-89.1z"/><g fill="#333"><path d="M-597.5 484.7c15 0 27.1-12.1 27.1-27.1 0-2.3-.3-4.6-.9-6.8-.1-.5-.4-.9-.9-1.2-.9-.5-2-1.1-3-1.5-2.3-1.1-4.8-2-7.2-2.7-.1-.1-.2-.1-.4-.1-4.8-1.4-9.8-2.2-14.8-2.2-7.7 0-15.4 1.7-22.4 5l-3 1.5c-.4.2-.7.7-.9 1.2-.6 2.2-.9 4.5-.9 6.8.2 14.9 12.3 27.1 27.3 27.1zm0-3.6c-8.5 0-16-4.6-20.1-11.3 3.9-2.7 8.4-4 13.2-4 1.7 0 3.5.2 5.1.6v1.4c0 1 .8 1.8 1.8 1.8s1.8-.8 1.8-1.8v-1.4c1.7-.4 3.4-.6 5.1-.6 4.8 0 9.2 1.4 13.2 4-4.2 6.7-11.6 11.3-20.1 11.3zm-19.9-30.1c1.2-.5 2.4-1 3.6-1.4v2.6c0 1-.8 1.8-1.8 1.8s-1.8-.8-1.8-1.8V451zm7.2-2.6c1.2-.3 2.4-.6 3.6-.8v2.4c0 1-.8 1.8-1.8 1.8s-1.8-.8-1.8-1.8v-1.6zm7.2-1.3l3.6-.3v1.7c0 1-.8 1.8-1.8 1.8s-1.8-.8-1.8-1.8v-1.4zm7.3-.3c1.2.1 2.4.1 3.6.3v1.5c0 1-.8 1.8-1.8 1.8s-1.8-.8-1.8-1.8v-1.8zm7.2.8c1.2.2 2.4.5 3.6.8v1.6c0 1-.8 1.8-1.8 1.8s-1.8-.8-1.8-1.8v-2.4zm7.2 1.9c1.2.4 2.5.9 3.6 1.4v1.2c0 1-.8 1.8-1.8 1.8s-1.8-.8-1.8-1.8v-2.6zm-39.4 4.4c.7 2.2 2.7 3.7 5.1 3.7 2 0 3.8-1.2 4.7-2.7.7.4 1.6.6 2.5.6 1.8 0 3.4-.9 4.4-2.2.8.5 1.8.8 2.8.8 1.4 0 2.7-.5 3.6-1.4.9.9 2.2 1.4 3.6 1.4 1 0 2-.3 2.8-.8 1 1.4 2.6 2.2 4.4 2.2.9 0 1.7-.2 2.5-.6.9 1.7 2.7 2.7 4.7 2.7 2.4 0 4.4-1.5 5.1-3.7.2 1.2.3 2.5.3 3.7 0 3.2-.7 6.1-1.7 8.9-4.4-2.9-9.5-4.4-14.8-4.4-2.3 0-4.7.3-6.9.9-2.2-.6-4.6-.9-6.9-.9-5.3 0-10.4 1.5-14.8 4.4-1.2-2.7-1.7-5.8-1.7-8.9 0-1.3.1-2.5.3-3.7z"/><path d="M-575.8 479.3c-12 12-31.4 12-43.4 0-.7-.7-1.9-.7-2.5 0-.7.7-.7 1.9 0 2.5 6.7 6.7 15.5 10 24.3 10s17.6-3.3 24.3-10c.7-.7.7-1.9 0-2.5-.8-.7-2-.7-2.7 0z"/></g><path fill="none" d="M-4230.2 416.1h772v308h-772z"/><text transform="translate(-4230.238 472.108)" fill="#333" font-family="'BrandonGrotesque-Regular'" font-size="80">Dine</text><path fill="#FEEA3A" d="M-532 0h512v512h-512z"/><g fill="#333"><path d="M-276 303.1c86 0 155.8-69.8 155.8-155.8 0-13.3-1.7-26.2-5-39-.8-2.9-2.5-5-5-6.6-5.4-2.9-11.2-6.2-17-8.7-13.3-6.2-27.4-11.6-41.5-15.8-.8-.4-1.2-.4-2.1-.8-27.4-7.9-56.1-12.5-85.1-12.5-44.4 0-88.5 10-128.8 28.7-5.8 2.9-11.6 5.8-17 8.7-2.5 1.2-4.2 3.7-5 6.6-3.3 12.5-5 25.8-5 39-.1 86 69.7 156.2 155.7 156.2zm0-20.8c-49 0-91.8-26.2-115.5-65.2 22.4-15.4 48.2-23.3 75.6-23.3 10 0 19.9 1.2 29.5 3.3v8.3c0 5.8 4.6 10.4 10.4 10.4 5.8 0 10.4-4.6 10.4-10.4v-8.3c9.6-2.1 19.5-3.3 29.5-3.3 27.4 0 53.2 7.9 75.6 23.3-23.7 39-66.5 65.2-115.5 65.2zm-114.2-173.2c6.6-2.9 13.7-5.8 20.8-8.3v15c0 5.8-4.6 10.4-10.4 10.4s-10.4-4.6-10.4-10.4v-6.7zm41.5-14.5c7.1-1.7 13.7-3.3 20.8-4.6v13.7c0 5.8-4.6 10.4-10.4 10.4-5.8 0-10.4-4.6-10.4-10.4v-9.1zm41.5-7.9c7.1-.8 13.7-1.2 20.8-1.7v10c0 5.8-4.6 10.4-10.4 10.4-5.8 0-10.4-4.6-10.4-10.4v-8.3zm41.6-1.7c7.1.4 13.7.8 20.8 1.7v8.7c0 5.8-4.6 10.4-10.4 10.4s-10.4-4.6-10.4-10.4V85zm41.5 4.6c7.1 1.2 13.7 2.9 20.8 4.6v9.1c0 5.8-4.6 10.4-10.4 10.4s-10.4-4.6-10.4-10.4V89.6zm41.6 11.2c7.1 2.5 14.1 5.4 20.8 8.3v6.6c0 5.8-4.6 10.4-10.4 10.4s-10.4-4.6-10.4-10.4v-14.9zm-226.8 25.3c4.2 12.5 15.8 21.2 29.5 21.2 11.6 0 22-6.6 27-15.8 4.2 2.1 9.1 3.3 14.5 3.3 10.4 0 19.5-5 25.3-12.9 4.6 2.9 10.4 4.6 16.2 4.6 7.9 0 15.4-2.9 20.8-7.9 5.4 5 12.9 7.9 20.8 7.9 5.8 0 11.6-1.7 16.2-4.6 5.8 7.9 15 12.9 25.3 12.9 5 0 10-1.2 14.5-3.3 5.4 9.6 15.4 15.8 27 15.8 13.7 0 25.3-8.7 29.5-21.2 1.2 7.1 1.7 14.1 1.7 21.2 0 18.3-3.7 35.3-10 51.1-25.3-16.6-54.4-25.3-85.1-25.3-13.3 0-27 1.7-39.9 5-12.9-3.3-26.6-5-39.9-5-30.7 0-59.8 8.7-85.1 25.3-6.6-15.8-10-33.2-10-51.1 0-7.5.4-14.5 1.7-21.2z"/><path d="M-151 271.9c-69 69-180.7 69-249.6 0-4.2-4.2-10.8-4.2-14.5 0-3.7 4.2-4.2 10.8 0 14.5 38.6 38.6 88.9 57.7 139.6 57.7s100.9-19.1 139.6-57.7c4.2-4.2 4.2-10.8 0-14.5-4.3-3.7-11.3-4.1-15.1 0z"/></g><path fill="none" d="M-371.2 386.1h772v308h-772z"/><text transform="translate(-371.238 456.108)" fill="#333" font-family="'BrandonGrotesque-Regular'" font-size="100">Dine</text><path fill="#FEEA3A" d="M0 0h512v512H0z"/><g fill="#333"><path d="M256 299.1c86 0 155.8-69.8 155.8-155.8 0-13.3-1.7-26.2-5-39-.8-2.9-2.5-5-5-6.6-5.4-2.9-11.2-6.2-17-8.7-13.3-6.2-27.4-11.6-41.5-15.8-.8-.4-1.2-.4-2.1-.8-27.4-7.9-56.1-12.5-85.1-12.5-44.4 0-88.5 10-128.8 28.7-5.8 2.9-11.6 5.8-17 8.7-2.5 1.2-4.2 3.7-5 6.6-3.3 12.5-5 25.8-5 39-.1 86 69.7 156.2 155.7 156.2zm0-20.8c-49 0-91.8-26.2-115.5-65.2 22.4-15.4 48.2-23.3 75.6-23.3 10 0 19.9 1.2 29.5 3.3v8.3c0 5.8 4.6 10.4 10.4 10.4s10.4-4.6 10.4-10.4v-8.3c9.6-2.1 19.5-3.3 29.5-3.3 27.4 0 53.2 7.9 75.6 23.3-23.7 39-66.5 65.2-115.5 65.2zM141.8 105.1c6.6-2.9 13.7-5.8 20.8-8.3v15c0 5.8-4.6 10.4-10.4 10.4-5.8 0-10.4-4.6-10.4-10.4v-6.7zm41.5-14.5c7.1-1.7 13.7-3.3 20.8-4.6v13.7c0 5.8-4.6 10.4-10.4 10.4s-10.4-4.6-10.4-10.4v-9.1zm41.5-7.9c7.1-.8 13.7-1.2 20.8-1.7v10c0 5.8-4.6 10.4-10.4 10.4s-10.4-4.6-10.4-10.4v-8.3zm41.6-1.7c7.1.4 13.7.8 20.8 1.7v8.7c0 5.8-4.6 10.4-10.4 10.4-5.8 0-10.4-4.6-10.4-10.4V81zm41.5 4.6c7.1 1.2 13.7 2.9 20.8 4.6v9.1c0 5.8-4.6 10.4-10.4 10.4-5.8 0-10.4-4.6-10.4-10.4V85.6zm41.6 11.2c7.1 2.5 14.1 5.4 20.8 8.3v6.6c0 5.8-4.6 10.4-10.4 10.4-5.8 0-10.4-4.6-10.4-10.4V96.8zm-226.8 25.3c4.2 12.5 15.8 21.2 29.5 21.2 11.6 0 22-6.6 27-15.8 4.2 2.1 9.1 3.3 14.5 3.3 10.4 0 19.5-5 25.3-12.9 4.6 2.9 10.4 4.6 16.2 4.6 7.9 0 15.4-2.9 20.8-7.9 5.4 5 12.9 7.9 20.8 7.9 5.8 0 11.6-1.7 16.2-4.6 5.8 7.9 15 12.9 25.3 12.9 5 0 10-1.2 14.5-3.3 5.4 9.6 15.4 15.8 27 15.8 13.7 0 25.3-8.7 29.5-21.2 1.2 7.1 1.7 14.1 1.7 21.2 0 18.3-3.7 35.3-10 51.1-25.3-16.6-54.4-25.3-85.1-25.3-13.3 0-27 1.7-39.9 5-12.9-3.3-26.6-5-39.9-5-30.7 0-59.8 8.7-85.1 25.3-6.6-15.8-10-33.2-10-51.1 0-7.5.4-14.5 1.7-21.2z"/><path d="M381 267.9c-69 69-180.7 69-249.6 0-4.2-4.2-10.8-4.2-14.5 0-3.7 4.2-4.2 10.8 0 14.5 38.6 38.6 88.9 57.7 139.6 57.7s100.9-19.1 139.6-57.7c4.2-4.2 4.2-10.8 0-14.5-4.3-3.7-11.3-4.1-15.1 0z"/></g><path d="M154.4 445.7v-79.4c0-.6.2-1.2.7-1.6.4-.4.9-.7 1.5-.7h26.9c11.6 0 21.5 4.1 29.8 12.3 8.2 8.2 12.4 18.1 12.4 29.6 0 11.6-4.1 21.5-12.4 29.8-8.2 8.2-18.2 12.4-29.8 12.4h-26.9c-.6 0-1.1-.2-1.5-.7-.5-.5-.7-1-.7-1.7zm9.1-6h18c9.8 0 18-3.2 24.4-9.5 6.4-6.4 9.6-14.5 9.6-24.3s-3.2-17.9-9.6-24.2c-6.4-6.3-14.5-9.5-24.4-9.5h-18v67.5zm83.3-63.5c-1.1 1.1-2.5 1.6-4.1 1.6-1.6 0-2.9-.5-4-1.6s-1.6-2.4-1.6-4 .5-3 1.6-4.1c1.1-1.1 2.4-1.7 4-1.7s3 .6 4.1 1.7c1.1 1.1 1.7 2.5 1.7 4.1 0 1.6-.6 2.9-1.7 4zm-8 69.5v-43.4c0-.6.2-1.1.7-1.6.4-.5 1-.7 1.6-.7h3.7c.6 0 1.1.2 1.6.7s.7 1 .7 1.6v43.4c0 .6-.2 1.1-.7 1.6s-1 .7-1.6.7h-3.7c-.6 0-1.2-.2-1.6-.7-.5-.5-.7-1-.7-1.6zm25.3 0v-43.4c0-.6.2-1.1.7-1.6.4-.5 1-.7 1.6-.7h2.3c1 0 1.7.5 1.9 1.4l1.1 3.7 1.9-1.6c1.4-1.1 3.4-2.2 6.2-3.2 2.8-1 5.7-1.6 8.6-1.6 12.4 0 18.6 7.2 18.6 21.6v25.3c0 .6-.2 1.1-.7 1.6-.4.5-1 .7-1.6.7h-3.8c-.6 0-1.2-.2-1.6-.7-.4-.5-.7-1-.7-1.6v-25.3c0-4.5-.9-7.9-2.8-10.1-1.9-2.3-4.5-3.4-8-3.4-2.6 0-5.3.6-7.9 1.7-2.6 1.2-4.5 2.3-5.7 3.4l-1.9 1.7v32c0 .6-.2 1.1-.7 1.6-.5.5-1 .7-1.6.7h-3.7c-.6 0-1.2-.2-1.6-.7-.4-.4-.6-.9-.6-1.5zM320 424c0-7 2.2-13 6.5-17.9 4.3-4.9 10-7.3 17-7.3 6.3 0 11.5 2.1 15.6 6.2 4.1 4.2 6.1 9.4 6.1 15.7 0 1-.1 2.1-.2 3.2-.2 1.4-.9 2-2.2 2h-34.6c.2 4.1 1.9 7.7 5.1 10.9 3.2 3.2 6.8 4.7 11 4.7 4 0 8-1.2 11.9-3.6 1-.6 1.7-.9 1.9-1 .2-.1.7.2 1.4.7l2 2.8c.5.6.7 1.2.7 1.6 0 .4-.4.9-1.2 1.6-4.6 3.7-10.5 5.5-17.6 5.5-7 0-12.7-2.4-17-7.3-4.2-4.7-6.4-10.7-6.4-17.8zm8.4-4.7H357c-.2-3.5-1.5-6.6-4.1-9.2-2.6-2.6-5.7-4-9.3-4-4 0-7.4 1.3-10.3 3.8-2.9 2.5-4.5 5.7-4.9 9.4z" fill="#333"/><path fill="#FEEA3A" d="M532 0h512v512H532z"/><g fill="#333"><path d="M788 303.1c86 0 155.8-69.8 155.8-155.8 0-13.3-1.7-26.2-5-39-.8-2.9-2.5-5-5-6.6-5.4-2.9-11.2-6.2-17-8.7-13.3-6.2-27.4-11.6-41.5-15.8-.8-.4-1.2-.4-2.1-.8-27.4-7.9-56.1-12.5-85.1-12.5-44.4 0-88.5 10-128.8 28.7-5.8 2.9-11.6 5.8-17 8.7-2.5 1.2-4.2 3.7-5 6.6-3.3 12.5-5 25.8-5 39-.1 86 69.7 156.2 155.7 156.2zm0-20.8c-49 0-91.8-26.2-115.5-65.2 22.4-15.4 48.2-23.3 75.6-23.3 10 0 19.9 1.2 29.5 3.3v8.3c0 5.8 4.6 10.4 10.4 10.4 5.8 0 10.4-4.6 10.4-10.4v-8.3c9.6-2.1 19.5-3.3 29.5-3.3 27.4 0 53.2 7.9 75.6 23.3-23.7 39-66.5 65.2-115.5 65.2zM673.8 109.1c6.6-2.9 13.7-5.8 20.8-8.3v15c0 5.8-4.6 10.4-10.4 10.4s-10.4-4.6-10.4-10.4v-6.7zm41.5-14.5c7.1-1.7 13.7-3.3 20.8-4.6v13.7c0 5.8-4.6 10.4-10.4 10.4s-10.4-4.6-10.4-10.4v-9.1zm41.5-7.9c7.1-.8 13.7-1.2 20.8-1.7v10c0 5.8-4.6 10.4-10.4 10.4s-10.4-4.6-10.4-10.4v-8.3zm41.6-1.7c7.1.4 13.7.8 20.8 1.7v8.7c0 5.8-4.6 10.4-10.4 10.4-5.8 0-10.4-4.6-10.4-10.4V85zm41.5 4.6c7.1 1.2 13.7 2.9 20.8 4.6v9.1c0 5.8-4.6 10.4-10.4 10.4-5.8 0-10.4-4.6-10.4-10.4V89.6zm41.6 11.2c7.1 2.5 14.1 5.4 20.8 8.3v6.6c0 5.8-4.6 10.4-10.4 10.4-5.8 0-10.4-4.6-10.4-10.4v-14.9zm-226.8 25.3c4.2 12.5 15.8 21.2 29.5 21.2 11.6 0 22-6.6 27-15.8 4.2 2.1 9.1 3.3 14.5 3.3 10.4 0 19.5-5 25.3-12.9 4.6 2.9 10.4 4.6 16.2 4.6 7.9 0 15.4-2.9 20.8-7.9 5.4 5 12.9 7.9 20.8 7.9 5.8 0 11.6-1.7 16.2-4.6 5.8 7.9 15 12.9 25.3 12.9 5 0 10-1.2 14.5-3.3 5.4 9.6 15.4 15.8 27 15.8 13.7 0 25.3-8.7 29.5-21.2 1.2 7.1 1.7 14.1 1.7 21.2 0 18.3-3.7 35.3-10 51.1-25.3-16.6-54.4-25.3-85.1-25.3-13.3 0-27 1.7-39.9 5-12.9-3.3-26.6-5-39.9-5-30.7 0-59.8 8.7-85.1 25.3-6.6-15.8-10-33.2-10-51.1 0-7.5.4-14.5 1.7-21.2z"/><path d="M913 271.9c-69 69-180.7 69-249.6 0-4.2-4.2-10.8-4.2-14.5 0-3.7 4.2-4.2 10.8 0 14.5 38.6 38.6 88.9 57.7 139.6 57.7s100.9-19.1 139.6-57.7c4.2-4.2 4.2-10.8 0-14.5s-11.3-4.1-15.1 0z"/></g><path fill="none" d="M692.8 386.1h772v308h-772z"/><text transform="translate(692.762 456.108)" fill="#333" font-family="'BrandonGrotesque-Regular'" font-size="100">Dine</text></svg>