<svg xmlns="http://www.w3.org/2000/svg" viewBox="0 0 300 300"><path fill="#EEE" d="M-867.6-119.3h2079.1V440H-867.6z"/><path fill="#FFF" d="M152.1-25.6c-.9 0-1.8-.4-2.3-1.2L120.9-70c-.9-1.3-.5-3 .8-3.8 1.3-.9 3-.5 3.8.8l28.9 43.2c.9 1.3.5 3-.8 3.8-.4.3-.9.4-1.5.4z"/><path fill="#DDD" d="M-262.3 32.1l17.7 25.9 43.7-34.3 41.6-17.6 32.2-16.7 60.2-9.3 34.4-6.3 22.9-15.6 9.3-26-23.9-27L7-124.9l-150.8-4.2-1 30.2 29.1 40.5zM54.6-119l33 49.9 73.3-49.9zm-5.1 243.9l25 29.1 53.4-43.7s10.1 3.8 17-8.3l7.3-4.9v-3.8l87.3-67.6s-11.9-18.2 0-23.2c6-2.5 11.1 6.2 10.1-11.4-1-17.7.1-4.2.1-4.2l-26.8-35.3-6.6 3.8-11.4-2.1-2.4-8-3.5-1.7v-4.9l-9.4-14.6h-14.9L157-61.5l-2.4 10.4 12.1 18-21.8 15.6-18.4-22.2-12.5-2.1L43.3 14 24.2 41.8l-3.1 34 7.6 11.1 11.1-2.1 20.4-16.3 9 2.4L85.9 91l-35.7 29.1-.7 4.8z"/><path fill="#FFF" d="M-873.7 328.4l-6.6-12.2C-800.5 273-735 247-674.4 234.4c54.9-11.5 101.1-10.9 150-10.4 21.1.2 42.9.5 66.5-.2 30.4-.8 78.8-17 144-48.2 55.2-26.4 122.6-63.8 195-108.3 134.3-82.5 256-170.6 285.5-201.1l10 9.6C146.5-93 23.6-3.8-111.7 79.2c-94.9 58.2-265.9 156.3-345.9 158.5-23.9.7-45.8.4-67 .2-99.4-1.2-177.9-2.1-349.1 90.5z"/><path fill="#DDD" d="M165.6 200.8h3.1l29.5-21.1v-3.1l10.4-9.7v-2.1l11.8-11.1V152l12.8-9v-2.4l19.4-18.4v-2.4l15.6-12.5v-2.4l16.6-12.5-1.7-3.1 18.7-13.9-26.7-32.2 2.8-1.7-2.8-5.2-3.1 2.1-7.3-8.3s-11.1 8.7-22.2 0l-28.4 22.2 1.4 1.7-74.2 58.6v6.6l4.2 8.3-7.3 6.6 4.5 6.6s-1.4 3.8 1.7 6.6c3.1 2.8-1.4 5.5-1.4 5.5l-1.7.7-1.7 8.4 5.2 8.3v3.5l20.8 27.1z"/><path fill="#C1B4A2" d="M397.3 197.8l-15.9-25.5 15.6-12.8-20.9-29.3 1.2-.8 21.5 30.3-15.5 12.9 15.2 24.4z"/><g fill="#F2F2F2"><path d="M792.9-124.4l-.8-1.2c-8.5 5.5-846.8 553.2-898.1 569l.4 1.3c51.6-15.8 890.1-563.6 898.5-569.1z"/><path d="M792.2-121.3c-8.5 5.5-846.8 553.2-898.1 569l.4 1.3c51.5-15.8 890-563.6 898.5-569.1l-.8-1.2z"/><path d="M806.1-126.2C797.6-120.7-40.7 427-92 442.8l.4 1.3c51.5-15.8 890-563.6 898.5-569.1l-.8-1.2zM509.4 72.7l.8 1.1L745.3-80.7l69.8-43.7-.7-1.2-69.8 43.7zm.8 10.8L658.5-17.7l169.8-106.7-.8-1.2L657.7-18.8 509.4 82.4 210 267.4-74.9 442.9l.7 1.2 284.9-175.5z"/><path d="M849-129L713.2-43.1l-23.5 9h-.1l-65.2 43-218.3 142.8-205.6 126.8-262.9 164.4.7 1.2 262.9-164.3 44.8-16.6h.1l97.8-58.3-.7-1.2-97.7 58.2-38.3 14.1 199.7-123.2L625.2 10.1l3.3-2.2 29.8-13h.1l49.3-33.6-.4-.6 6.5-2.5h.1l135.9-86-.8-1.2zM657.8-6.4l-22.5 9.8 55-36.3 14.4-5.5-46.9 32z"/><path d="M271.8 252.2l-71.5 33.9-256.5 157.4.8 1.2L201 287.3l71.4-33.9 24.3-16-.8-1.1z"/><path d="M253 266.5l43.6-24.2-.6-1.2-43.7 24.2-52 25-196.2 122-47.8 31.2.7 1.2 47.9-31.2 37-23L81.7 374l88.1-56.2 41.5-23.5 51.3-21.5-.5-1.3-51.3 21.5-41.7 23.6-88 56.2L49 386l136.1-84.6 95.5-41.1-.5-1.2-87.1 37.4 8-5zM48.5 393.6l-81.8 49.3.7 1.2 81.8-49.3 51.9-26.4-.6-1.2z"/></g><g fill="#FFF"><path d="M1248.5 416.4c-22.8-1.4-85.1-7.6-98.9-19-15.9-13.1-47.8-49.6-52.9-55.5 4.1-2.9 8.3-6.8 12.7-10.7 5.8-5.3 11.9-10.9 17.9-14.3 14.1-8.1 121-44.1 122.1-44.4 1.8-.6 2.8-2.6 2.2-4.4-.6-1.8-2.6-2.8-4.4-2.2-4.4 1.5-108.6 36.6-123.3 45-6.8 3.9-13.1 9.6-19.2 15.2-7.1 6.5-13.9 12.7-19.4 13.9-1.4.3-8.4.4-37.2-11.1-10.3-4.1-20.2-8.4-25.8-10.9 32.3-39.3 68.3-81.6 83.8-92.1 16.4-11.1 20.5-22.6 21-30.3.6-8.5-2.8-14.2-3.2-14.9v-.1c-.3-.4-18.7-28.7-28.3-68.1l145 67.3c.5.2 1 .3 1.5.3 1.3 0 2.6-.7 3.1-2 .8-1.7.1-3.8-1.7-4.6l-149.8-69.6c-2.7-13.3-4.2-27.6-3.6-42.3l87.9-23.4 6.6 30c.4 1.6 1.8 2.7 3.4 2.7.2 0 .5 0 .7-.1 1.9-.4 3.1-2.3 2.6-4.1l-6.6-30.3 24.9-6.6c1.8-.5 2.9-2.4 2.5-4.2-.5-1.8-2.4-2.9-4.2-2.5l-117.4 31.3c.2-2.4.4-4.7.8-7.1 9-69.1 151.7-168.7 153.1-169.7 1.9-1.3 2.4-3.9 1.1-5.8-1.3-1.9-3.9-2.4-5.8-1.1-.4.3-37 25.8-74.4 59.7-9.9 9-18.9 17.8-27.1 26.2l-11.5-7-10.6-20c-.9-1.7-3-2.3-4.7-1.4-1.7.9-2.3 3-1.4 4.7l11 20.8c.3.5.7 1 1.3 1.3l11 6.7c-3.8 4.1-7.5 8.2-10.9 12.1l-35.1-15.6c-1.7-.8-3.8 0-4.6 1.8-.8 1.7 0 3.8 1.8 4.6l33.3 14.8c-20.7 25.2-32.4 47.6-34.9 66.7-2.4 18.8-1.4 37 1.4 53.5l-34-15.8c2.2-7.2 3.1-13.8 2.1-19-1.6-9-17.1-38.4-34.6-69.7l32.2-6.4c1.9-.4 3.1-2.2 2.7-4.1-.4-1.9-2.2-3.1-4.1-2.7l-34.4 6.9c-9.7-17.3-19.9-34.7-28.4-49.3l27.2-8.3h18.2c1.9 0 3.5-1.6 3.5-3.5s-1.6-3.5-3.5-3.5h-18.7c-.3 0-.7.1-1 .2l-29.2 8.9c-6.4-10.9-11.6-19.6-14.7-24.8 36-19.7 70.9-38.7 98.2-53.5 2.7-1.5 3.7-4.8 2.2-7.5s-4.8-3.7-7.5-2.2c-10.9 5.9-267.9 145-287.9 161.8-4.6 3.9-14 13-25.7 24.7L712.4-9.6c-1.2-1.5-3.4-1.7-4.9-.4-1.5 1.2-1.7 3.4-.4 4.9l35 41.9c-9.7 9.7-20.5 20.8-31.5 32.1L686 48c-1.5-1.2-3.6-1.1-4.9.4-1.2 1.5-1.1 3.6.4 4.9l24.2 20.4c-29.5 30.3-58.4 60.5-64.4 66.8-14.1 4.1-65.3 11.5-91.3 15-2.5.3-4.5 2.3-4.8 4.9 0 .3-.1.6-.1 1h-20.4c-.8 0-1.6.2-2.2.6l-3.1 2L417 228.9l-10.7-27.7 57.3-36.7c1.9-1.2 2.5-3.8 1.3-5.7-1.2-1.9-3.8-2.5-5.7-1.3L398.9 196l-102.3 65.5c-.1 0-.1.1-.2.1-1.1.8-24.9 18.5-30.7 47.6-.3.4-.7.8-1 1.2-12.2 15.9-26.3 24.9-42 26.9-23.1 2.9-43-10.4-46.9-13.2L83.1 179.8c1.5-2.1 1.4-4.9-.4-6.9-.1-.1-2.4-2.6-5.9-6.6 12.7-9.7 21.2-16.1 21.3-16.2.1 0 .1-.1.2-.2 7.8-6.4 10.4-4.7 16.2-1 1.4.9 3 2 4.8 2.9 5.1 6.6 34 45.1 47.2 72.8 4.3 8.9 10.2 14.6 17.6 16.9 13.8 4.2 28.7-4.6 38.6-10.4 2.7-1.6 5.2-3.1 6.7-3.7 10.4-4.1 460.3-291.2 550.4-348.8 2.6-1.6 3.3-5.1 1.7-7.7-1.6-2.6-5.1-3.3-7.7-1.7-26.6 17-56.7 36.2-88.8 56.7l-33.6-53.6c.5-1.1.5-2.4-.2-3.5-1-1.6-3.2-2.1-4.8-1l-43.1 27.8-15.8-26.7c-1-1.6-3.1-2.2-4.8-1.2-1.6 1-2.2 3.1-1.2 4.8L621-61c.6 1.1 1.8 1.7 3 1.7.6 0 1.2-.2 1.8-.5 1.6-1 2.2-3.1 1.2-4.8l-20-33.7 39-25.1 33.3 53.2c-21.2 13.5-43.2 27.6-65.6 41.8.3-5 0-10.1-2.2-12.8-2.5-3.2-31-53.4-49.5-86.4-.9-1.7-3-2.3-4.7-1.3-1.7.9-2.3 3-1.3 4.7 4.8 8.5 46.7 83.1 50.1 87.4 1 1.3.9 7.1 0 13.3-15.6 9.9-31.3 19.9-47 29.9-15.5-24.2-54.3-57.5-86.7-74.1l30.5-59.8c.9-1.7.2-3.8-1.5-4.7-1.7-.9-3.8-.2-4.7 1.5L418 23.4c-6.6-8.5-12.9-17.4-13.5-19.5-.7-3.2-3.1-6.9-7.1-7.9-3-.7-7.7-.2-13.2 6.4-7.8 9.4-43.4 40.2-43.7 40.5-1.4 1.3-1.6 3.4-.4 4.9.7.8 1.7 1.2 2.6 1.2.8 0 1.6-.3 2.3-.8 1.5-1.3 36.4-31.5 44.5-41.3 2.9-3.4 5.1-4.4 6.2-4.1 1 .2 1.8 1.5 2 2.6.8 4.1 11.2 17.7 16.8 24.9L375 107.7c-.4.8-.5 1.7-.3 2.5l3.1 11.3c-30.8 19.5-58.7 37.2-81.9 51.8-4.8-4.5-21.2-20.8-26.5-34.5-2.4-6.2-5.4-9.5-9.1-10.2-5.1-.9-9.2 3.6-11.9 6.6-.7.7-1.5 1.7-1.9 2-3.2 2.3-51.4 54.4-72.6 77.4-15.8-30.7-45.3-68.9-46.6-70.6-.5-.7-1.2-1.3-2-1.6-1.6-.7-3.1-1.7-4.7-2.8-6.4-4.2-15.1-9.8-29.2 1.6-1 .8-9.5 7.2-22 16.7-5.9-6.6-12.9-14.4-19-21.2-4.3-11.6 2.3-22.4 6.7-29.6.9-1.4 1.7-2.8 2.3-4 2.6-4.9 2-10.7-1.6-15.7-4.1-5.4-11.2-8.4-17.5-7.2-3.6.7-7.7 2.9-12 5.3-3.2 1.8-9 5-11.2 4.9-3.8-9.3-6.3-19.9-5.5-31 .1-2 .4-4.1.8-6.1.1-.3.2-.7.2-1 2.9-14.9 11.9-28.6 26.8-41C126.5-61 241.4-120.4 242.5-121c.2-.1.5-.3.7-.4h6.9c-.5 1.2-.4 2.7.6 3.7l34.7 38.9c.3.3.7.6 1 .8l-28.9 21c-1.5 1.1-1.9 3.3-.8 4.8.7.9 1.7 1.4 2.8 1.4.7 0 1.4-.2 2-.7L296.6-77c1.7 3.9 5.1 10.2 11.7 20.8 5 8.1 10.2 16.1 12.6 19.7l-5.4 7.3-22.7 15.7c-1.6 1.1-2 3.2-.9 4.8.7 1 1.8 1.5 2.9 1.5.7 0 1.4-.2 2-.6L317.5-22l4.3 44.7c.2 1.8 1.7 3.1 3.4 3.1h.3c1.9-.2 3.3-1.9 3.1-3.8l-4.7-49c0-.5-.2-.9-.4-1.3l4.1-5.5 35.1-24.3c.8.1 1.5-.1 2.3-.4 1.2-.6 2.1-1.7 2.4-2.9l80.5-55.8c1.6-1.1 2-3.2.9-4.8-1.1-1.6-3.2-2-4.8-.9l-78.6 54.5-2.7-5.8-.3-.6-35.8-53.6c-.8-1.3-2.2-2-3.7-2h-79.7c-1.6-1.2-3.9-1.4-5.8-.4-.1 0-.3.2-.8.4h-10.8c.5-1.4.4-2.9-.4-4.3-1.4-2.7-4.8-3.7-7.5-2.3-.2.1-4.6 2.4-12.1 6.6H20.4c-.8 0-1.5.2-2.2.6-59 32.3-133.7 73-193.2 105.2l-25.8-55.9v-22.8c0-1.8-1.4-3.3-3.2-3.5l-83.4-6.8-19.5-17.9c-1.4-1.3-3.6-1.2-4.9.2-1.3 1.4-1.2 3.6.2 4.9l20.4 18.7c.6.5 1.3.8 2.1.9l81.4 6.7v20.4c0 .5.1 1 .3 1.5l26.3 57c-51 27.5-89.5 48-94.7 50-1.6.2-3.6 1.1-7.6 2.8-16.2 7-59.3 25.5-95.2 3.2-12.8-7.9-25.9-14.2-38.5-19.5.1-.3.1-.5.1-.8v-78l19.4-20.2 87.9 14.9h.6c1.7 0 3.1-1.2 3.4-2.9.3-1.9-.9-3.7-2.8-4l-85.9-14.6 9.9-37.9c.5-1.9-.6-3.7-2.5-4.2s-3.7.6-4.2 2.5l-10.7 40.7-21 21.9c-.6.6-1 1.5-1 2.4v77.4c-9.5-3.8-18.6-7.1-26.9-10-16.3-5.8-30.4-10.9-34.1-15.7-5.4-7-11.1-10.1-15.3-12.4-4.1-2.3-5.5-3.2-6-5.3-1.6-6.5-4.6-32.7-4.5-49.6l41.5-26.7c1.6-1 2.1-3.2 1-4.8-1-1.6-3.2-2.1-4.8-1l-37.3 24.1c1.1-16.6-14-38.3-14.6-39.3-1.4-2-4.2-2.5-6.3-1.1-2 1.4-2.5 4.2-1.1 6.3 4 5.7 14.1 22.8 13 34-1.4 14.1 1.5 45.3 3.8 57.6l-27.2 21.7c-2.9.6-11.4 2.3-21.2 4.3l-56.4-124.7c-.8-1.7-2.8-2.5-4.6-1.7-1.7.8-2.5 2.8-1.7 4.6l55.7 123.3c-4.5.9-9.1 1.8-13.4 2.7-1.8-2.9-5.3-5.3-10-6.8-7.7-2.5-18.1-2.1-24 4.2-14.5-6.9-36.8-18.1-57.7-28.8l-29.7-100.3c-.7-2.4-3.2-3.7-5.6-3-2.4.7-3.7 3.2-3 5.6l16.1 54.5-80 18.1-7.3-15.5c-.2-.4-.4-.7-.7-1l-9.9-9.7c-1.4-1.3-3.6-1.3-4.9.1-1.3 1.4-1.3 3.6.1 4.9l9.5 9.3 7.2 15.3-25 26.8-29.3 11.7c-7.1-23.6-14-45-15.5-47.3-1.4-2.1-4.2-2.6-6.2-1.2-2 1.3-2.6 4.1-1.3 6.1 3 5.9 31.3 98.8 32.6 110 .1 1.2.3 3 .6 5.3.4 3.6.9 8.4 1.5 13.9 2.5 24.3 6.3 61.1 8.4 70.6.9 4.3 6 13.3 37.5 44 15.5 15.1 30.8 29.1 33.8 31.8l9.7 16.2c-32.7 7.3-62.6 14.5-86.2 20.3-22.1 5.4-39.6 9.6-48.7 11.3-3 .5-5 3.4-4.5 6.4.5 2.7 2.8 4.6 5.4 4.6.3 0 .7 0 1-.1 9.4-1.7 27-6 49.3-11.4 59.6-14.5 159.3-38.7 242.4-47.8 21.3-2.3 40.9-2.7 61.7-3.1 75.1-1.4 152.7-2.8 309.6-100.6l7.7-4.8C-127 63.1-127 63.1-41 59.8c2.6-.1 5.3-.2 8.1-.3l21.8 21.4c4.4 13.9 12.1 27 19.9 37.8l-21.1 18.9c-.7.7-1.2 1.6-1.2 2.6v7.4c0 1.9 1.6 3.5 3.5 3.5s3.5-1.6 3.5-3.5v-5.8L13 124.3c3.7 4.7 7.2 8.8 10.4 12.3l.1.1c4.9 5.4 19.1 21.2 30.1 33.6-9.9 7.7-20.9 16.3-32 25.2L-4.5 163c-1.2-1.5-3.4-1.7-4.9-.5-1.5 1.2-1.7 3.4-.5 4.9l26.1 32.4c-13.1 10.5-24.4 19.9-34 28l-16.4-16.9c-1.3-1.4-3.5-1.4-4.9-.1-1.4 1.3-1.4 3.5-.1 4.9l16.1 16.7c-2.9 2.5-5.7 5-8.2 7.2-8.8 7.9-14.4 13.6-18.1 17.7l-18-16.4c-.2-.2-.4-.3-.6-.4-1.6-.8-15.8-7.4-21.4.8-3.4 5-17.5 17.4-23.6 22.8l-12.8-23.4c.1-.4.2-.9.1-1.4-.2-1.4-1.2-2.6-2.5-3l-25.3-46.2c26.6-9.6 48.4-16 48.7-16.1.3-.1.5-.2.7-.4l14.3 17.2-5.2 7.1c-.8 1.1-.6 2.6.5 3.4.4.3.9.5 1.4.5.7 0 1.5-.3 2-1l12.3-16.7c.8-1.1.6-2.6-.5-3.4-1.1-.8-2.6-.6-3.4.5l-4.1 5.6-34.1-41c-.9-1-2.4-1.2-3.4-.3-1 .9-1.2 2.4-.3 3.4l17.3 20.8c-4.9 1.5-24.2 7.3-47.2 15.6l-5.8-25c-.3-1.3-1.6-2.1-2.9-1.8-1.3.3-2.1 1.6-1.8 2.9l5.9 25.5c-5.2 1.9-10.6 3.9-15.9 6-6.3 2.5-12.2 4.9-17.7 7.2l-9.3-18.6c-.6-1.2-2.1-1.7-3.3-1.1-1.2.6-1.7 2.1-1.1 3.3l9.2 18.4c-10.6 4.6-19.7 9.1-27.5 13.5l-7.4-17.2c-.5-1.2-2-1.8-3.2-1.3-1.2.5-1.8 2-1.3 3.2l7.6 17.7c-13.4 7.9-21.9 15.2-25.5 22-8.2-.6-33-2.1-38.1.4-2.5 1.2-6.7 1.5-9.1-.2-1.6-1.1-2.2-2.9-2-5.6 1.1-10.1 0-24.4-.1-25-.1-1.3-1.3-2.3-2.6-2.2-1.3.1-2.3 1.3-2.2 2.6 0 .1 1.1 14.5.1 24.2-.6 5.6 1.9 8.6 4 10.1s4.7 2.1 7.2 2.1 4.9-.6 6.8-1.5c2.7-1.3 18.8-1 33.9 0-11.9 30.7-3.3 54.2-2.9 55.2.4 1 1.3 1.6 2.3 1.6.3 0 .6 0 .9-.2 1.3-.5 1.9-1.9 1.4-3.1-.1-.2-8.8-24.4 4.1-54.7 2.2-5.1 8.8-12.4 25.9-22.2.2-.1.3-.2.5-.3 8.1-4.6 18.4-9.8 31.6-15.5 5.9-2.6 12.4-5.2 19.5-8 5.1-2 10.3-3.9 15.2-5.8l24.5 44.8-35.1 3.8c-1.9.2-3.3 1.9-3.1 3.8.2 1.8 1.7 3.1 3.4 3.1h.4l37.9-4.1 13.3 24.4c-.3.8-.2 1.7.4 2.4.4.4.8.7 1.3.8l6 11c-13 2.5-28.2 5.2-45.3 8-46 7.5-90.8 13.3-91.3 13.3-3 .4-5.2 3.2-4.8 6.2.4 2.8 2.7 4.8 5.5 4.8h.7c.5-.1 49.3-6.3 97.4-14.3 21.9-3.6 40.3-7 55.1-10.2-.1 14.5-.4 47.7.1 54.1.2 2.7.5 11.6-5 15.6-5.1 3.7-14.4 2.8-27.1-2.5-33.5-13.9-88.3-36.7-92.8-38.2-.2-.1-.9-.4-1.3-.7-2.4-1.4-6.9-3.9-12-1.8-5.7 2.4-10.2 10-13.9 23.8 0 .1-.1.2-.1.3l-1.1-18c-.1-2.3-2.1-4-4.4-3.9-2.3.1-4 2.1-3.9 4.4l2.5 41.6c-3.3 10.9-5.5 17-6.2 18.8l-6.8 8.3c-1.5 1.8-1.2 4.4.6 5.9.8.6 1.7.9 2.6.9 1.2 0 2.4-.5 3.2-1.5l7.3-8.9c.3-.3.5-.7.7-1.1.1-.3 2.6-6.6 6.9-20.8 2.2-7.3 4.5-15.4 6.8-24 4-14.8 7.6-17.7 9-18.3 1.2-.5 2.7.2 4.7 1.4.9.5 1.8 1 2.8 1.3 1.2.4 6.8 2.7 15.2 6.1-.6.5-1.1 1.3-1.3 2.1 0 .1-3.2 12.9-5.8 25.8-1.5 7.7-2.6 13.9-3.1 18.6-.9 8.3-.4 11.7 2.3 13.4 3.9 2.6 37.3 18 43.8 18 2.4.4 7.8 8.5 7.4 11.2-.5 2.2.9 4.5 3.1 5 .3.1.6.1.9.1 1.9 0 3.6-1.3 4-3.2 1.2-5.1-2.9-11.9-5.5-15.1-2.3-2.8-5.8-6.2-10-6.2-4.2-.3-31.6-12.3-38.3-16-.5-5.8 4.1-29.5 9-49.5.1-.4.1-.8.1-1.3 18.2 7.5 44.8 18.5 70.1 29.1 3.6 1.5 6.9 2.7 10.1 3.5l-5.3 30.4c-.1.6-.1 1.2.1 1.7l5.4 21.3-20 21.2c-1.6 1.7-1.5 4.3.2 5.9.8.8 1.8 1.1 2.9 1.1 1.1 0 2.2-.4 3-1.3l21.6-22.9c1-1 1.4-2.5 1-3.9l-5.8-22.7 5.1-29.3c6.9.7 12.6-.5 16.9-3.6 6.8-4.9 8.3-13.1 8.5-18.8l49.4-4.1v13c0 2.3 1.9 4.2 4.2 4.2s4.2-1.9 4.2-4.2v-17.5c0-1.2-.5-2.3-1.3-3.1-.9-.8-2-1.2-3.2-1.1l-53.5 4.4c-.2-10.5-.1-35 .1-51.1 1.3-.3 2.6-.6 3.8-.9 17-4.1 26-7.4 30.5-10.6 4.6 3.6 12.5 7.9 24 7.9 1.7 0 3.4-.1 5.3-.3 3.5-.4 8.3-.9 14-1.4 0 .2-.1.3-.1.5-.1 2-1.4 50 9.4 65.8.5.7 1.2 1.1 2 1.1.5 0 .9-.1 1.4-.4 1.1-.8 1.4-2.3.6-3.4-9.9-14.5-8.6-62.4-8.6-62.9 0-.4-.1-.8-.2-1.1 11-1.1 24.3-2.4 36.7-3.6 20.1-1.9 37.4-3.6 41.4-4.1 7.8-1 35.9-1.9 53.1-.4l35.8 55.9 4.9 120.5c.1 3 2.6 5.3 5.5 5.3h.2c3.1-.1 5.4-2.7 5.3-5.8l-4.5-111.4c8.6 4.7 22.3 10.5 38.3 10.5 2.6 0 5.3-.2 8.1-.5 6.5-.8 12.8-2.6 18.8-5.4l-39.2 109.3c-1 2.9.5 6.1 3.3 7.1.6.2 1.3.3 1.9.3 2.3 0 4.4-1.4 5.2-3.7l44-122.7c5.4-4.4 10.6-9.8 15.4-16.2 3.5-4.5 7-6.9 10.4-6.9h.1c4.7 0 9.2 4.3 10.5 5.9.5.6 1 1.1 1.7 1.5 1 .5 24.1 13.1 56.8 21 35.9 8.7 69.1 8.2 97.2-1.3l45.8 118.3c.6 1.6 2.2 2.7 3.9 2.7.5 0 1-.1 1.5-.3 2.1-.8 3.2-3.2 2.4-5.4L471 370.3l6.8-3.3 17.9 48.5c.3.9 1 1.6 1.8 1.9l17.6 8.1c.5.2 1 .3 1.5.3 1.3 0 2.6-.7 3.1-2 .8-1.7 0-3.8-1.7-4.6l-16.3-7.5-17.6-49.7c0-.4-.1-.8-.3-1.3-.1-.2-.2-.4-.3-.5l-3.3-8.9c-.7-1.8-2.7-2.7-4.5-2.1-1.8.7-2.7 2.7-2.1 4.4l2.5 6.8-6.9 3.4-11.4-29.5c3.3-1.4 6.5-2.8 9.7-4.5 39.3-20.4 66.2-60.8 80.5-120.5 21.7-1.4 115.8-8.8 173.7-30.5 21.4-8 31.1.6 43.5 11.4 6.6 5.8 13.9 12.2 23.5 16-2.8 11.6-11.7 49.1-19.2 92-7.6 43.2-11.6 78.7-12.1 106.3-14.7 12.8-32.3 23.2-51.4 3.4-1.3-1.4-3.5-1.4-4.9-.1-1.4 1.3-1.4 3.5-.1 4.9 8.4 8.8 17.5 13.2 27.2 13.2 3.2 0 6.5-.5 9.8-1.5 7.8-2.3 14.4-6.8 19.3-10.8.2 12.8 1.2 23.6 3 32.4.3 1.6 1.8 2.7 3.4 2.7.2 0 .5 0 .7-.1 1.9-.4 3.1-2.2 2.7-4.1-13-60.6 21.6-209.5 28.1-236.2 2.4.6 4.8 1 7.5 1.2 3 .6 41.2 7.9 86.9 22.2 27.1 8.5 51.5 17.7 72.8 27.6l-18.1 18.1-26-10.8c-.9-.4-1.9 0-2.3.9-.4.9 0 1.9.9 2.3l27 11.3c.2.1.4.1.7.1.4 0 .9-.2 1.2-.5l19.8-19.8c25.3 11.9 46 24.7 61.3 37.9-15.7 18.9-31.3 38.2-44.5 54.6-2.9 3.5-5.6 6.9-8.1 10l-27.5-23c-1.5-1.2-3.7-1-4.9.4-1.2 1.5-1 3.7.4 4.9l27.6 23.1c-6.3 7.7-11.1 13.6-14 16.9-.7.8-1.4 1.6-2.2 2.5-14.6 16.8-31 35.4-85.5 47.4-4.2-26.6-9.9-63.6-11.8-79.8-2.2-19.4 4.4-24.9 13.7-32.5 2.7-2.2 5.4-4.5 8.2-7.3 1.4-1.4 1.4-3.5 0-4.9-1.4-1.4-3.5-1.4-4.9 0-2.5 2.5-5.2 4.7-7.7 6.8-2.1 1.7-4.2 3.5-6.1 5.3v-43.8c0-1.9-1.6-3.5-3.5-3.5s-3.5 1.6-3.5 3.5V330c0 .5.1 1.1.4 1.5-3.2 5.8-4.8 13.5-3.5 25 1.9 16.4 7.6 53.7 11.9 80.4-7.5 1.5-15.7 2.9-24.6 4.1-2.3.3-3.9 2.4-3.5 4.7.3 2.1 2.1 3.6 4.1 3.6h.6c9-1.2 17.2-2.6 24.8-4.1 2 12.7 3.4 21.4 3.5 21.7.3 1.7 1.7 2.9 3.4 2.9h.6a3.5 3.5 0 0 0 2.9-4c0-.3-1.5-9.2-3.5-22 22.5-4.9 38.8-10.9 51.3-17.5v27.6c0 1.9 1.6 3.5 3.5 3.5s3.5-1.6 3.5-3.5v-31.5c15.2-9.2 24-19.3 32.3-28.8l.3-.3 53.8 33.4c.6.4 1.2.5 1.8.5 1.2 0 2.3-.6 2.9-1.6 1-1.6.5-3.8-1.1-4.8L965.2 388c5.2-6.2 13.7-16.7 23.9-29.4 8.5-10.5 18.3-22.7 28.7-35.4 13.7 6.2 52.9 23.5 66.7 23.5.9 0 1.6-.1 2.3-.2 1.3-.3 2.6-.7 3.9-1.3 0 .1.1.1.1.2 1.5 1.7 36.7 42.6 54.5 57.2 18.4 15.1 99.4 20.3 102.9 20.5h.2c1.8 0 3.3-1.4 3.5-3.2 0-1.7-1.5-3.4-3.4-3.5zM553.2 10.1C536.1 21 518.9 31.9 502 42.7c-5.1-6.7-16.9-23-19.6-28.6-2.9-6.2-3.6-19.9 4-23.7l1.7-.8c8.8-4.4 19.6-9.7 26.3-20.5 16.5 13.7 31 28.7 38.8 41zm-171.4 99.6l87.4-171.3c12.7 6.5 26.7 15.9 39.7 26.2-5.6 9.6-15.3 14.5-23.9 18.7l-1.7.8c-12.1 6.1-11.1 24.3-7.1 32.8 3.1 6.8 16.4 24.6 20 29.4-39.3 25-77.5 49.2-112.2 71.2l-2.2-7.8zm-131.3 33.2c1-.7 1.9-1.8 3-3 1.2-1.4 4.2-4.7 5.5-4.4.6.1 2.2 1.5 3.9 5.9 5.4 14.1 20.6 29.7 26.9 35.8-37.3 23.5-61.4 38.5-64.6 40.1-2.3.9-5 2.5-8.2 4.4-8.2 4.8-20.6 12.2-29.7 9.4-4.1-1.2-7.4-4.4-10.2-9.7 28.9-31.4 70.1-75.7 73.4-78.5zM-26.7 47.7l13.2-9.6c-.7 3-1.3 6-1.6 9.1-4 .2-7.9.4-11.6.5zm27.3 10c0 .3-.1.7-.1 1-.9 12.9 2 25.1 6.3 35.7.1.2.1.4.2.7C.9 83.7-3.7 71-4.4 57.9c1.7-.1 3.3-.1 5-.2zm33 37.5c3.2-1.7 6.8-3.7 8.7-4.1 2.5-.5 5.2 1.2 6.6 3.1.6.8 1.5 2.4.8 3.9-.5.9-1.2 2.1-2 3.4-3.1 5.1-7.8 12.8-9.3 22-.2-.2-.3-.4-.5-.5-3.2-3.6-10-11.6-15.9-22.3 3.8-1.2 7.8-3.4 11.6-5.5zm257-178.6l-33.9-38h39.4c-8.9 10.9-4.4 25.4-1.9 33.2.4 1.3.9 2.8 1.1 3.8l-3.8 2.8c-.2-.7-.5-1.3-.9-1.8zm64.1 13.3l3.2 6.9-31.8 22c-11.6-17.5-23.2-36.7-24-40.9.5-2-.3-4.5-1.4-8.3-3.7-11.7-6.1-23.6 5.8-31.1h13.9l34.3 51.4zM32.2 2.9C16.5 15.9 6.5 30.5 2.5 46.5c-2.2.1-4.3.2-6.4.3 2-14.8 10-28.1 23.8-39.5 71.7-59.5 162-111.6 192.6-128.7h7.3C184-101.7 99.9-53.3 32.2 2.9zm-155.4-45.4C-85.5-63-47.7-83.6-20-98.7c4.5 5.2 13.8 15.9 18.8 21.2 1.4 1.5 3 5.8 2.8 13-.3 9.6-4.2 23.1-13.9 32-6.8 6.2-67 30.7-153.4 62.6-30.7 11.3-60.3 21.9-85.5 30.7l-15.1-26.6c6.6-3.3 18.7-9.6 41.8-21.9 24.7-13.3 58.8-31.7 101.3-54.8zm-216.2 96.8c25.5 0 48.5-9.8 59.6-14.6 2.1-.9 4.5-1.9 5.3-2.2.4 0 .9-.1 1.9-.5l14.7 26c-34.6 12-59.7 20-65.2 20.7-7.8 1-47.2 7.2-94.4 14.6-3.9-30 8.3-57.8 13.2-67.5 7 3.4 14.1 7.2 21 11.5 14.4 8.9 29.6 12 43.9 12zm-165-72.2c3.9 2.1 8.3 4.6 12.5 10.1 5.3 6.8 19.1 11.8 38.2 18.6 13 4.7 27.9 10 43.2 17-5.4 10.6-18.1 39.5-13.8 71.6-68.1 10.8-149.4 23.8-174.7 27.9.8-1.5 2.2-4.3 4-8v-.1l.3-.6C-581.6 90.8-547.6 14.3-541.5.5l29.6-23.7c2.1 2.3 4.8 3.8 7.5 5.3zM-596.3-2c1.5.5 2.9 1.1 4 1.9-5.3 1.1-9.4 1.9-11.2 2.2-1.3-.4-4-1.6-7.8-3.3 4.1-2.3 10.3-2.3 15-.8zm-240.2-7.7l30.6-12.2c.5-.2.9-.5 1.3-.9l26.4-28.3 50.4-11.4c2.5 9.4 7.5 28 9.4 33-.8 1.6-4 5.9-10.7 9.7-4.3 2.5-10.7 5-19.1 5.5v-11.6c0-1.9-1.6-3.5-3.5-3.5s-3.5 1.6-3.5 3.5v11c-.6 0-1.1.2-1.5.4-.9-.1-1.8-.2-2.7-.4-1.9-.3-3.7 1-4 2.9-.3 1.9 1 3.7 2.9 4 .6.1 1.3.2 1.9.3V2.4l-11.7-2.6c-1.9-.4-3.7.8-4.1 2.6-.4 1.9.8 3.7 2.6 4.1l13.2 2.9v1.4c0 1.9 1.6 3.5 3.5 3.5s3.5-1.6 3.5-3.5v-18h.6c19.6 0 32.4-9.9 37.3-16.6 2.3-3.2 3-5.7 2-7.7-.8-1.8-5.2-17.5-9.2-32.5l25-5.7 12.1 41c.3 1.2 1.2 2.2 2.3 2.7.1 0 3 1.6 7.7 4l-7 9.2c-.5.6-.7 1.3-.7 2.1V-.3c0 1.9 1.6 3.5 3.5 3.5s3.5-1.6 3.5-3.5v-9.3l7.1-9.3c6.5 3.3 14.7 7.4 22.9 11.5 33.2 16.5 39.1 18.6 41.4 18.6.4 0 .7-.1.9-.1l51-10.2c-7 15.7-14.9 33.5-22.6 50.7h-245.7c-.1-.6-.1-1.1-.2-1.5-1-5.4-8.8-33.1-16.8-59.8zm61.8 188.4c-6.4-6.3-11.6-11.6-15.9-16.1l42.3-18.1 43.9-6.1c2.5-.3 4.2-2.6 3.8-5.1-.3-2.5-2.6-4.2-5.1-3.8l-44.5 6.2-1.2.3-45.8 19.6c-11-12.1-12.3-15.7-12.5-16.4-2-9.1-5.9-47-8.3-69.6-.3-3.3-.7-6.3-.9-9h240.7c-9.1 20.2-17.4 38.5-22.8 50.2l-16.2-8.9c-.7-.4-1.4-.6-2.2-.6h-28.4c-2.5 0-4.5 2-4.5 4.5s2 4.5 4.5 4.5h27.3l15.7 8.6c-1.1 2.4-1.9 3.9-2.3 4.5-.3.4-.6.9-.9 1.4-4.8 7.5-19.4 30.2-56 39.6-43.3 11.1-55.2 19.2-61 25.7-4 4.4-10.7 14.6-15 21.2-.2-.2-.4-.5-.6-.7-.3-.1-17.2-15.3-34.1-31.9zM-41.5 48.3c-88.1 3.3-89.6 3.8-164.1 50.3l-7.7 4.8c-154.4 96.2-230.4 97.6-304 98.9-20.1.4-40.8.7-62.7 3.1-47.6 5.2-100.5 15.3-148.3 25.7l-6.7-11.2c.4-.5.8-1.2 1.3-1.9 3.7-5.7 11.4-17.5 15.3-21.8 4.7-5.1 15.3-12.4 56.6-23 33.3-8.6 50-27.2 57.7-38 13.3-2.1 105.3-16.9 180.9-28.9 6.5 38.1 10.4 68.7 10.5 69 .2 1.7 1.7 3 3.4 3h.4c1.9-.2 3.2-2 3-3.9 0-.3-4-30.9-10.5-69.2 47.1-7.5 86.4-13.6 94.2-14.6 11.6-1.5 89.9-28.7 158.9-54.1 43.2-15.9 144.7-54 155.7-64C2-36.2 8-50 8.5-64.3c.3-8-1.4-14.6-4.7-18C-.7-87-9.1-96.6-13.8-102.1c18.7-10.2 31.8-17.4 35.4-19.3H190C150-98.4 74.6-52.6 12.8-1.3 2.7 7.1-4.8 16.5-9.5 26.7l-29.2 21.2c-.1.1-.3.2-.4.4-.8-.1-1.6 0-2.4 0zm18 10.4c2.6-.1 5.3-.2 8.1-.3.2 3.1.5 6.2 1 9.3l-9.1-9zm-65 218.9c-4.6 1-9.7 2.1-15.2 3.2l-6.8-12.3c5.8-5 21.4-18.7 25.3-24.4 2.7-3.9 11.6-.9 14.9.7l17.9 16.4c-2.1 2.9-2.9 4.8-3.2 6.4-1.7 1.1-8.4 4.5-32.9 10zM76.1 266c-4 .5-22.1 2.2-41.2 4.1-20.9 2-44.5 4.3-55.3 5.5-12.5 1.4-20.4-3.4-24-6.5 1.9-3.6 12.9-17.1 72.5-64.7 11.4-9.1 22.7-18 32.9-25.9 4.2 4.7 7 7.9 7.1 8 1.1 1.2 2.6 1.9 4.1 1.9.9 0 1.8-.2 2.7-.7l49.7 77.5c-17.9-.9-41.5 0-48.5.8zM961.6-88.2c4.5 7.5 10 16.8 16.1 27.1 27.5 46.7 65.8 113.9 68.1 127 1.6 9-3.7 24.7-13.8 41-10.5 17-23.9 31-35.9 37.5-29.1 15.6-86.9 27.5-124.4 4.9-38.9-23.4-41.8-31.1-49.5-51.8-.2-.6-.4-1.1-.6-1.7l48-19.4 14.7 9.7c.3.2.7.4 1.1.5L895 89c1.9.5 3.7-.7 4.2-2.5.5-1.9-.7-3.7-2.5-4.2l-9.1-2.2-15.8-10.3c-1-.6-2.1-.7-3.2-.3l-49.5 20c-.9-2.4-2-5-3.2-7.7-11.7-27.6-31.1-53.6-39-63.5 1.1-1 2.1-1.9 3-2.6 10.5-9 98.1-57.9 181.7-103.9zM543.2 175.4l-9.9-5.8H544c-.2 2-.5 3.9-.8 5.8zm-83.4 36.2c14.6 42.9-10.6 55.6-24.4 62.5-.3.1-.5.3-.7.4L420 236.8l39.8-25.2zm-179.8 88c-1.1.2-2.1.5-3.2 1 1-2.4 2-4.7 3.2-6.9v5.9zm8.3.1v-18.5c6.2-7.7 12-12.2 12.8-12.8l98-62.6 10.7 27.6-112 70.9c-2.4-1.9-5.7-3.7-9.5-4.6zm16.6 10l5.6-3.5-1.3 5.5c-1.8-.8-3.2-1.4-4.3-2zm50.9 18.3c-15.7-3.8-29.3-8.8-39-12.9l3.6-14.9c0-.1.1-.3.1-.4l92.4-58.5 33.2 85.8c-32.1 10.7-66 6.7-90.3.9zm106.7-7.9c-2.8 1.5-5.7 2.8-8.6 4L437.1 281c.4-.2.9-.4 1.4-.7 7.5-3.8 18.9-9.5 26.2-21.2 8.2-13.2 8.6-30.5 1.1-51.4l55.8-35.4 20.2 11.8c-11.8 69.1-38.4 114.8-79.3 136zm341.6-118.5c-.1 0-.3 0-.4-.1-14.7-1.2-24.1-9.4-33.1-17.3-12.7-11.1-25.9-22.7-51.9-12.9-54.9 20.6-143.6 28-168.8 29.8 2.4-11.1 4.3-22.8 5.8-35.1 16.7-2.3 76.4-10.6 90.3-15.3.9-.3 1.6-.8 2.3-1.4 1-1.1 91.7-95.9 123.6-126.3 7.8 10 26.6 35.4 37.7 61.5 2.5 6 4.5 11.1 6.1 15.6 8.1 21.5 11.4 30.5 51.6 54.8l36.1 72.8c-3.7-1.2-7.4-2.4-11.2-3.6-48-15-87.7-22.5-88.1-22.5zm108.5 29.2l-35-70.5c13.9 6 29.6 8.5 45.4 8.5 29 0 58.1-8.4 76.4-18.2 19.2-10.4 39.7-37.2 48.8-60.2l37.9 17.6c2.8 13.4 6.6 25.4 10.3 35.1 9.4 24.7 19.7 40.7 20.5 42 .4.6 9.6 16.8-15.5 33.8-13.7 9.3-41 40.2-69 73.7-26.5-22.8-66.7-43.6-119.8-61.8z"/><path d="M649.9 307.1c-1.1-.8-2.6-.6-3.4.5l-11.4 15.5c-.2.3-.4.7-.4 1.1l-19.8 121c-.2 1.3.7 2.6 2 2.8h.4c1.2 0 2.2-.8 2.4-2l19.7-120.4 11.1-15c.7-1.2.5-2.7-.6-3.5zM-336 415.4c.4 1.9 2.2 3.2 4.1 3.2.3 0 .6 0 .9-.1 2.2-.5 3.6-2.7 3.1-5l-12.6-55.4c14.4-9.4 26.9-25 34.5-53.7 19.9 4.8 32 9.7 32.3 9.8 2.8 1.2 6.1-.2 7.2-3 1.2-2.8-.2-6.1-3-7.2-1.6-.7-39.5-16-94.1-19.5-11-.7-21.9-.9-32.7-.5v-49.5c0-1.3-1.1-2.4-2.4-2.4-1.3 0-2.4 1.1-2.4 2.4v49.7c-18.9.9-37.4 3.5-55.2 7.7-20.2 4.8-39.6 11.7-58 20.7-5.5-7.2-17.3-22.6-24.5-30.6-10.3-11.5-17.3-15.9-24.9-15.9-1.7 0-4.8 0-44.6 17.7-18.9 8.4-37.4 16.9-38.2 17.3-.1 0-.2.1-.2.1s-.1 0-.1.1l-53 30.9c-.1.1-.2.2-.4.2l-17.5-53.9c-.7-2.2-3.1-3.4-5.2-2.7-2.2.7-3.4 3.1-2.7 5.2l14.3 44.1c-5.9 1.3-17.1 3.2-27.1.8-6.7-1.6-13.2-5-19.4-8.3-7.7-4.1-14.9-7.9-22.1-7.9-2.3 0-4.2 1.9-4.2 4.2 0 2.3 1.9 4.2 4.2 4.2 5.1 0 11.4 3.4 18.2 7 6.4 3.4 13.6 7.3 21.4 9.1 4.2 1 8.5 1.4 12.6 1.4 7.8 0 14.8-1.3 19-2.3l6.8 20.9v75.4c-3.7 4.6-6.6 9.3-8.3 14.3-1 2.9.5 6.1 3.4 7.1.6.2 1.2.3 1.9.3 1.1 0 2.2-.3 3.1-1 0 2.3 1.9 4.1 4.2 4.1 2.3 0 4.2-1.9 4.2-4.2v-13.3c14.6-18.2 47.7-35.6 80-52.5 22.4-11.7 45.6-23.9 62.6-36.4 66.1-48.8 137.8-55.4 186.4-52.3 19.2 1.2 36.4 4 50.5 7.1-12.8 48-39.4 55.1-67.5 62.7-14.4 3.9-29.3 7.9-42.5 17.5-3.2-5.4-9.1-13.1-19.7-16.6-11.9-3.9-26.3-1.4-42.9 7.5-2 1.1-2.8 3.6-1.7 5.6 1.1 2 3.6 2.8 5.6 1.7 14.5-7.8 26.8-10.1 36.4-7 8.6 2.8 13.3 9.6 15.7 14-2.9 2.4-6.2 5.1-9.6 7.8-20.5 16.6-46.1 37.4-52 52.7-.8 2.1.3 4.5 2.4 5.4.5.2 1 .3 1.5.3 1.7 0 3.3-1 3.9-2.7 5.1-13.3 30.7-34.1 49.5-49.3 4.5-3.6 8.7-7.1 12.2-10.1 12.7-10.7 27.6-14.7 43.3-19 10.6-2.9 21.4-5.7 31.4-10.8l11.9 52.9zm-357.7 5.2v-67.3c0-.4-.1-.9-.2-1.3l-4-12.2c.7 0 1.4-.2 2.1-.6l49-28.6 28.5 63.4-.6.3c-29.1 15.4-57.2 30.1-74.8 46.3zm136-81.7c-14.3 10.6-33.7 21.1-53.2 31.4l-28.5-63.4c33.8-15.6 70.7-31.8 75.7-32.5 4.9.1 10.3 3.9 18.6 13.2 6.5 7.2 17.4 21.3 23.1 28.9-12.3 6.4-24.3 13.9-35.7 22.4zm301.4-17.8c-.8-2.1-3.2-3.2-5.3-2.4-2.1.8-3.2 3.2-2.4 5.3.1.3 10.4 29.3-9.1 65.1-1.1 2-.4 4.5 1.7 5.6.6.3 1.3.5 2 .5 1.5 0 2.9-.8 3.7-2.2 21.3-39.2 9.9-70.6 9.4-71.9zm-22.6 84l-60.3 43.7c-1.9 1.3-2.3 3.9-.9 5.8.8 1.1 2.1 1.7 3.4 1.7.8 0 1.7-.3 2.4-.8l60.3-43.7c1.9-1.3 2.3-3.9.9-5.8s-4-2.3-5.8-.9zm222.6-241.2c.6.4 1.2.6 1.9.6h14.2l18.3-1.4c1.9-.1 3.3-1.8 3.2-3.7-.1-1.9-1.8-3.3-3.7-3.2l-18.1 1.4h-12.7l-8.1-5.4c-1.6-1.1-3.7-.6-4.8 1-1.1 1.6-.6 3.7 1 4.8l8.8 5.9z"/></g><path fill="#F4F3EF" stroke="#F4F3EF" stroke-width="2.079" d="M382.4 171.8v-2.1h-5.7l-5.4-3h-4.2l5.4 3h-10.8v2.1h10.8l-10.6 3h-.2v2.1h6.6l5.8 3.3h4.2l-5.8-3.3h9.9v-2.1h-12.7l10.6-3z"/><path fill="#ED232E" d="M382.4 171.8v-2.1h-5.7l-5.4-3h-4.2l5.4 3h-10.8v2.1h10.8l-10.6 3h-.2v2.1h6.6l5.8 3.3h4.2l-5.8-3.3h9.9v-2.1h-12.7l10.6-3z"/><path d="M77.1 39.2h-1v-7.4h-2.4v-.9h5.8v.9h-2.4v7.4zm8.3 0h-1v-3.7c0-.4 0-.8-.1-1-.1-.2-.2-.4-.4-.6-.2-.2-.4-.2-.7-.2-.5 0-.9.2-1.2.6s-.5.9-.5 1.6v3.3h-1v-8.3h1v3.3c.4-.9 1.1-1.3 1.9-1.3.4 0 .7.1 1 .2s.5.3.6.6.3.5.3.7c.1.2.1.6.1 1.1v3.7zm5.9-1.9l.9.2c-.2.5-.5 1-1 1.3-.5.3-1 .5-1.7.5-.8 0-1.5-.3-2-.9-.5-.6-.8-1.4-.8-2.3 0-1 .3-1.8.8-2.4.5-.6 1.2-.9 2-.9s1.5.3 1.9.8c.5.6.7 1.4.8 2.5h-4.5c0 .9.2 1.6.6 1.9.4.3.8.5 1.2.5 1 0 1.5-.4 1.8-1.2zm0-1.8c0-.3-.1-.7-.2-.9-.1-.3-.3-.5-.5-.7-.3-.2-.6-.3-.9-.3-.5 0-.9.2-1.2.5-.3.3-.5.8-.6 1.4h3.4zm6.7 3.7h-1v-8.3h2.9c.9 0 1.6.3 2 .8.4.5.7 1.1.7 1.7 0 .7-.2 1.3-.7 1.8-.5.5-1.1.7-1.9.7h-2v3.3zm0-4.3h1.9c.5 0 .9-.1 1.2-.4.3-.3.5-.7.5-1.2 0-.4-.1-.8-.4-1.1-.3-.3-.7-.5-1.2-.5h-2v3.2zm9.7 2.4l.9.2c-.2.5-.5 1-1 1.3-.5.3-1 .5-1.7.5-.8 0-1.5-.3-2-.9-.5-.6-.8-1.4-.8-2.3 0-1 .3-1.8.8-2.4.5-.6 1.2-.9 2-.9s1.5.3 1.9.8c.5.6.7 1.4.8 2.5h-4.5c0 .9.2 1.6.6 1.9.4.3.8.5 1.2.5 1 0 1.5-.4 1.8-1.2zm0-1.8c0-.3-.1-.7-.2-.9-.1-.3-.3-.5-.5-.7-.3-.2-.6-.3-.9-.3-.5 0-.9.2-1.2.5-.3.3-.5.8-.6 1.4h3.4zm7.3 3.7h-1c0-.2-.1-.6-.1-1.1-.4.9-1.1 1.3-2.2 1.3-.7 0-1.2-.2-1.6-.5s-.6-.8-.6-1.3c0-.6.3-1.1.8-1.5.5-.4 1.4-.6 2.7-.6h.8c0-.5 0-.8-.1-1.1-.1-.2-.2-.4-.5-.5-.2-.1-.6-.2-1-.2-1 0-1.5.4-1.7 1.1l-.9-.2c.2-1.1 1.1-1.7 2.7-1.7.8 0 1.5.2 1.8.6.4.4.5 1 .5 2V38c.3.4.3.8.4 1.2zm-1.1-3.1h-.9c-.8 0-1.3.1-1.8.4-.4.2-.6.6-.6 1.1 0 .3.1.6.3.8.2.2.6.3 1 .3.6 0 1.1-.2 1.4-.6.4-.4.6-.9.6-1.5v-.5zm6.5.9l.9.2c-.1.7-.4 1.2-.8 1.6-.4.4-.9.6-1.6.6-.8 0-1.5-.3-1.9-.9-.4-.6-.7-1.4-.7-2.3 0-.9.2-1.7.7-2.3.5-.6 1.1-.9 1.9-.9.7 0 1.2.2 1.6.6.4.4.7.9.8 1.5l-.9.2c-.2-1-.7-1.5-1.5-1.5-.5 0-.9.2-1.2.7-.3.4-.4 1-.4 1.7 0 .8.1 1.4.4 1.8.3.4.7.7 1.2.7.8-.2 1.3-.7 1.5-1.7zm4.4 2.3c-.8 0-1.5-.3-2-.9-.5-.6-.7-1.4-.7-2.3 0-1 .3-1.8.8-2.3.5-.6 1.2-.9 2-.9s1.5.3 2 .9c.5.6.7 1.4.7 2.3 0 1-.3 1.7-.8 2.4-.5.5-1.2.8-2 .8zm.1-.8c.5 0 .9-.2 1.2-.6.3-.4.5-1 .5-1.9 0-.9-.2-1.5-.5-1.9-.3-.4-.7-.6-1.2-.6s-.9.2-1.2.6c-.3.4-.5 1-.5 1.8 0 .9.2 1.5.5 1.9.3.5.7.7 1.2.7zm7.8-1.5l.9.2c-.1.7-.4 1.2-.8 1.6-.4.4-.9.6-1.6.6-.8 0-1.5-.3-1.9-.9-.4-.6-.7-1.4-.7-2.3 0-.9.2-1.7.7-2.3.5-.6 1.1-.9 1.9-.9.7 0 1.2.2 1.6.6s.7.9.8 1.5l-.9.2c-.2-1-.7-1.5-1.5-1.5-.5 0-.9.2-1.2.7-.3.4-.4 1-.4 1.7 0 .8.1 1.4.4 1.8.3.4.7.7 1.2.7.8-.2 1.3-.7 1.5-1.7zm7.3 2.2h-1l-1.8-3.4-1.3 1.5v1.9h-1v-8.3h1v5.3l2.9-3.2h1l-1.9 2.2 2.1 4zm.3-1.6l.9-.2c.2.8.8 1.2 1.9 1.2.4 0 .7-.1 1-.3.3-.2.4-.4.4-.8 0-.5-.4-.8-1.1-.9l-1.3-.2c-.5-.1-.9-.3-1.2-.6-.3-.3-.4-.7-.4-1.1 0-.5.2-.9.6-1.3.4-.3 1-.5 1.7-.5 1.3 0 2.2.5 2.5 1.6l-.9.2c-.3-.6-.8-1-1.6-1-.4 0-.7.1-1 .2s-.4.4-.4.7c0 .5.3.7 1 .9l1.2.2c1.3.2 1.9.8 1.9 1.8 0 .6-.2 1-.7 1.4-.5.3-1.1.5-1.9.5-1.4-.1-2.3-.7-2.6-1.8zm14.8-1.2l1 .2c-.5 1.8-1.5 2.8-3.1 2.8-1.1 0-1.9-.4-2.5-1.3-.6-.8-.9-1.9-.9-3.1 0-1.3.3-2.3.9-3.1.6-.8 1.5-1.2 2.5-1.2 1.6 0 2.6.9 3 2.7l-1 .2c-.4-1.3-1-2-2-2-.7 0-1.3.3-1.7.9-.4.6-.6 1.5-.6 2.6 0 1 .2 1.8.6 2.5.4.6 1 .9 1.6.9 1.1-.1 1.8-.8 2.2-2.1zm6.2.9l.9.2c-.2.5-.5 1-1 1.3-.5.3-1 .5-1.7.5-.8 0-1.5-.3-2-.9-.5-.6-.8-1.4-.8-2.3 0-1 .3-1.8.8-2.4.5-.6 1.2-.9 2-.9s1.5.3 1.9.8.7 1.4.8 2.5h-4.5c0 .9.2 1.6.6 1.9.4.3.8.5 1.2.5.9 0 1.5-.4 1.8-1.2zm0-1.8c0-.3-.1-.7-.2-.9-.1-.3-.3-.5-.5-.7-.3-.2-.6-.3-.9-.3-.5 0-.9.2-1.2.5-.3.3-.5.8-.6 1.4h3.4zm7.3 3.7h-.9v-4c0-.6-.1-1-.4-1.2-.2-.2-.5-.3-.9-.3-.5 0-.9.2-1.2.6-.3.4-.5.9-.5 1.5v3.4h-1V33h.9v1.1c.5-.9 1.1-1.3 1.9-1.3.5 0 .8.1 1.2.4.3.2.5.5.7.8.1.3.2.8.2 1.6v3.6zm4.7-.7v.8c-.3 0-.6.1-.9.1-1.2 0-1.8-.6-1.8-1.9v-3.7h-1.1V33h1.1v-1.5l.9-.1V33h1.4v.7h-1.4v3.9c0 .6.3 1 1 1 .3 0 .5-.1.8-.1zm2 .7h-1V33h.8v1.4c.3-.7.6-1.1.9-1.3.3-.2.6-.3.9-.3h.4v.9h-.2c-.5 0-1 .2-1.3.6-.3.4-.5.9-.6 1.6l.1 3.3zm7.2-1.9l.9.2c-.2.5-.5 1-.9 1.3-.5.3-1 .5-1.7.5-.8 0-1.5-.3-2-.9-.5-.6-.8-1.4-.8-2.3 0-1 .3-1.8.8-2.4.5-.6 1.2-.9 2-.9s1.4.3 1.9.8c.5.6.7 1.4.8 2.5H179c0 .9.2 1.6.6 1.9.4.3.8.5 1.2.5.8 0 1.4-.4 1.7-1.2zm0-1.8c0-.3-.1-.7-.2-.9-.1-.3-.3-.5-.5-.7-.3-.2-.6-.3-.9-.3-.5 0-.9.2-1.2.5-.3.3-.5.8-.6 1.4h3.4z" fill="#9D9A9A"/><path d="M362.7 152.2l-2.3 9.7h-1.2l-2.1-7.5-2 7.5h-1.2l-2.5-9.7h1.3l1.9 7.9 2.1-7.9h1l2.2 7.9 1.8-7.9h1zm3.7 9.9c-1 0-1.8-.4-2.3-1.1-.6-.7-.8-1.6-.8-2.7s.3-2.1.9-2.7c.6-.7 1.4-1 2.3-1 1 0 1.8.4 2.3 1.1.6.7.9 1.6.9 2.7s-.3 2-.9 2.7c-.7.7-1.5 1-2.4 1zm0-.9c.6 0 1-.2 1.4-.7.4-.5.6-1.2.6-2.2 0-1-.2-1.7-.6-2.2-.4-.4-.9-.7-1.4-.7-.6 0-1 .2-1.4.7-.4.5-.6 1.2-.6 2.2 0 1 .2 1.8.6 2.2.4.5.9.7 1.4.7zm10.9.7h-1.2l-2.1-4-1.6 1.8v2.2h-1.1v-9.7h1.1v6.2l3.3-3.7h1.2l-2.2 2.5 2.6 4.7zm2.5-9.7v1.2h-1.2v-1.2h1.2zm0 2.5v7.2h-1.1v-7.2h1.1zm7.8 7.2h-1v-4.6c0-.7-.1-1.1-.4-1.4-.3-.3-.6-.4-1.1-.4-.6 0-1 .2-1.4.7-.4.5-.6 1.1-.6 1.8v3.9H382v-7.2h1v1.3c.6-1 1.3-1.5 2.3-1.5.5 0 1 .1 1.4.4.4.3.6.6.8.9.1.3.2 1 .2 1.9l-.1 4.2zm8.1-8.3v.9c-.5 0-.9.1-1 .2-.2.1-.3.3-.3.6.5.5.7 1.1.7 1.7 0 .7-.3 1.2-.8 1.7s-1.2.7-2 .7h-.5c-.3-.1-.4-.1-.5-.1-.1 0-.3.1-.5.2s-.3.3-.3.5c0 .3.1.5.4.6.3.1.9.1 1.8.2.8 0 1.4.1 1.8.2.4.1.7.3 1 .6.3.3.4.7.4 1.1 0 1.4-1.2 2.1-3.6 2.1-1.1 0-2-.2-2.5-.5s-.8-.8-.8-1.4c0-.7.4-1.2 1.1-1.4-.5-.3-.7-.7-.7-1.2 0-.6.3-1 1-1.3-.6-.5-.9-1.1-.9-1.9 0-.7.3-1.3.8-1.7.5-.5 1.2-.7 1.9-.7.5 0 1 .1 1.5.3.1-.5.2-.8.5-1s.7-.3 1.2-.3c.1-.1.2-.1.3-.1zm-4.7 8c-.5.2-.8.6-.8 1s.2.6.6.9c.4.2 1 .3 1.6.3.6 0 1.2-.1 1.7-.3.5-.2.8-.5.8-.9 0-.2-.1-.4-.2-.5l-.6-.3c-.3 0-.7-.1-1.4-.1-.8 0-1.3 0-1.7-.1zm1.3-3c.5 0 .9-.1 1.2-.4.3-.3.4-.7.4-1.1 0-.5-.2-.9-.5-1.2-.3-.3-.7-.4-1.1-.4-.4 0-.8.1-1.1.4-.3.3-.5.7-.5 1.2s.1.8.4 1.1c.4.3.7.4 1.2.4z" fill="#3E4242"/><path fill="#EFEBE7" d="M101.2 151.6l-15.3 12 9.7 16.6 12.5-6.8 3.5 2.7 8.7-4.4-6.6-14.3-7.3-6.8z"/><path d="M98.7 163.1h-.6v-4.6h2.8v.5h-2.3v1.5h1.9v.5h-1.9l.1 2.1zm3.5-4.6v.6h-.6v-.6h.6zm0 1.2v3.4h-.5v-3.4h.5zm1.6 3.4h-.5v-3.4h.5v.8c.2-.4.3-.6.5-.7.2-.1.3-.2.5-.2h.2v.5h-.1c-.3 0-.5.1-.7.3-.2.2-.3.5-.3.9v1.8zm4-1l.5.1c-.1.3-.3.5-.5.7-.3.2-.6.3-.9.3-.5 0-.8-.2-1.1-.5-.3-.3-.4-.8-.4-1.3s.1-1 .4-1.3c.3-.3.7-.5 1.1-.5.4 0 .8.2 1.1.5.3.3.4.8.4 1.4h-2.5c0 .5.1.9.3 1 .2.2.4.3.7.3.4-.1.7-.3.9-.7zm-.1-1.1c0-.2 0-.4-.1-.5-.1-.1-.2-.3-.3-.4-.1-.1-.3-.2-.5-.2-.3 0-.5.1-.7.3-.2.2-.3.4-.3.8h1.9zm-14.9 7.1l.5-.1c.2.6.7.9 1.4.9.4 0 .6-.1.8-.2.2-.2.3-.4.3-.6 0-.2-.1-.4-.2-.5-.1-.1-.3-.2-.5-.2l-.9-.2c-.2-.1-.4-.1-.6-.2-.2-.1-.3-.2-.4-.4-.1-.2-.2-.4-.2-.6 0-.4.1-.7.4-.9.3-.2.7-.3 1.1-.3.8 0 1.4.4 1.7 1.1l-.5.2c-.1-.3-.2-.5-.4-.6-.2-.1-.5-.2-.7-.2-.3 0-.5.1-.7.2-.2.1-.3.3-.3.6s.2.6.8.7l.9.2c.8.2 1.2.6 1.2 1.3 0 .4-.1.7-.4 1-.3.3-.7.4-1.3.4-1.1-.3-1.7-.7-2-1.6zm5.9.9v.4h-.5c-.7 0-1-.3-1-1v-2.1h-.6v-.4h.6v-.9h.5v.9h.8v.4h-.8v2.1c0 .4.2.5.5.5.2.1.4.1.5.1zm3.3.3h-.5c0-.1 0-.3-.1-.6-.2.5-.6.7-1.2.7-.4 0-.7-.1-.9-.3-.2-.2-.3-.4-.3-.7 0-.3.1-.6.4-.9.3-.2.8-.3 1.5-.3h.5c0-.3 0-.5-.1-.6 0-.1-.1-.2-.3-.3-.1-.1-.3-.1-.5-.1-.5 0-.9.2-.9.6l-.5-.1c.1-.6.6-.9 1.5-.9.5 0 .8.1 1 .3.2.2.3.6.3 1.1v1.5c0 .2 0 .4.1.6zm-.6-1.7h-.5c-.4 0-.7.1-1 .2-.2.1-.3.3-.3.6 0 .2.1.3.2.4.1.1.3.2.5.2.3 0 .6-.1.8-.3.2-.2.3-.5.3-.8v-.3zm3.1 1.4v.4h-.5c-.7 0-1-.3-1-1v-2.1h-.6v-.4h.6v-.9h.5v.9h.8v.4h-.8v2.1c0 .4.2.5.5.5.2.1.4.1.5.1zm1.1-4.3v.6h-.6v-.6h.6zm0 1.2v3.4h-.5v-3.4h.5zm2.3 3.5c-.5 0-.8-.2-1.1-.5-.3-.3-.4-.8-.4-1.3s.1-1 .4-1.3c.3-.3.7-.5 1.1-.5.5 0 .8.2 1.1.5.3.3.4.8.4 1.3s-.1 1-.4 1.3c-.3.4-.6.5-1.1.5zm0-.4c.3 0 .5-.1.7-.3.2-.2.3-.6.3-1 0-.5-.1-.8-.3-1-.2-.2-.4-.3-.7-.3-.3 0-.5.1-.7.3-.2.2-.3.6-.3 1 0 .5.1.8.3 1.1.2.1.5.2.7.2zm5.1.3h-.5v-2.2c0-.3-.1-.5-.2-.7-.1-.1-.3-.2-.5-.2-.3 0-.5.1-.7.3-.2.2-.3.5-.3.9v1.9h-.5v-3.4h.5v.6c.3-.5.6-.7 1.1-.7.3 0 .5.1.7.2.2.1.3.3.4.4.1.2.1.5.1.9l-.1 2zm-48.1-36h-.7v-4.9h-1.6v-.6h3.9v.6h-1.6v4.9zm3.2.1c-.6 0-1-.2-1.3-.6-.3-.4-.5-.9-.5-1.6 0-.7.2-1.2.5-1.6.4-.4.8-.6 1.3-.6.6 0 1 .2 1.3.6.3.4.5.9.5 1.5s-.2 1.2-.5 1.6c-.2.5-.7.7-1.3.7zm.1-.5c.3 0 .6-.1.8-.4.2-.3.3-.7.3-1.3 0-.6-.1-1-.3-1.2s-.5-.4-.8-.4c-.3 0-.6.1-.8.4-.2.3-.3.7-.3 1.2 0 .6.1 1 .3 1.3.2.2.5.4.8.4zm5.5-3.7l-1.6 4.6c-.2.7-.6 1-1.1 1-.2 0-.3 0-.5-.1v-.5c.2 0 .3.1.4.1.2 0 .4-.1.5-.2.1-.1.3-.4.4-.9l-1.4-4h.6l1.1 3.1 1.1-3.1h.5zm.1 3l.6-.1c.1.5.6.8 1.3.8.3 0 .5-.1.7-.2.2-.1.3-.3.3-.5 0-.3-.2-.5-.7-.6l-.9-.2c-.3-.1-.6-.2-.8-.4-.2-.2-.3-.4-.3-.8 0-.3.1-.6.4-.9.3-.2.6-.3 1.1-.3.9 0 1.4.3 1.6 1l-.6.1c-.2-.4-.5-.6-1-.6-.3 0-.5.1-.6.2-.2.1-.2.3-.2.4 0 .3.2.5.6.6l.8.1c.8.2 1.3.6 1.3 1.2 0 .4-.2.7-.5.9-.3.2-.7.3-1.2.3-1.1.2-1.7-.2-1.9-1zm10.5 1.1h-.7l-1-2.4H81v2.4h-.7v-5.5h2.2c.6 0 1 .2 1.3.5.3.3.4.7.4 1.1 0 .3-.1.6-.2.8-.2.3-.4.5-.8.6l1.1 2.5zm-3.3-3h1.4c.4 0 .7-.1.9-.3.2-.2.3-.4.3-.7s-.1-.5-.3-.7c-.2-.2-.4-.2-.8-.2H81v1.9zm9.6-2.6h.6v3.6c0 .7-.2 1.2-.5 1.6-.4.3-.8.5-1.4.5-.6 0-1.1-.2-1.4-.5-.3-.3-.5-.8-.5-1.5v-3.6h.7v3.6c0 .4 0 .7.2.9.1.2.3.3.5.4.2.1.4.1.6.1.4 0 .8-.1 1-.3.2-.2.3-.6.3-1.1l-.1-3.7zm1.3 4.5l.6-.1c.1.5.6.8 1.3.8.3 0 .5-.1.7-.2.2-.1.3-.3.3-.5 0-.3-.2-.5-.7-.6l-.9-.2c-.3-.1-.6-.2-.8-.4-.2-.2-.3-.4-.3-.8 0-.3.1-.6.4-.9s.6-.3 1.1-.3c.9 0 1.4.3 1.6 1l-.6.1c-.2-.4-.5-.6-1-.6-.3 0-.5.1-.6.2-.2.1-.2.3-.2.4 0 .3.2.5.6.6l.8.1c.8.2 1.3.6 1.3 1.2 0 .4-.2.7-.5.9-.3.2-.7.3-1.2.3-1.1.2-1.7-.2-1.9-1zm44.7 31.3l-.8-1.1c.6-.5.8-.9.5-1.4-.4-.6-1.1-.5-2.1.2-.6.4-.9.7-1 1-.1.3-.1.6.1.8.3.4.8.5 1.4.2l.6 1.1c-.6.3-1.2.4-1.7.2-.5-.1-.9-.5-1.3-1-.4-.6-.5-1.2-.4-1.9.2-.7.6-1.2 1.4-1.7.7-.5 1.4-.7 2.1-.6.7.1 1.3.4 1.7 1.1.8 1.2.6 2.2-.5 3.1zm-.5 5.5l-.7-1c.1-.1.3-.3.5-.4-.4 0-.6-.1-.8-.2s-.4-.3-.5-.5c-.2-.3-.3-.6-.3-.9 0-.3.2-.6.5-.8.2-.1.4-.2.7-.2.3 0 .5.1.8.3.3.2.7.6 1.2 1.2l.2-.1c.3-.2.4-.5.2-.8-.2-.4-.5-.4-.9-.3l-.5-1c.4-.2.8-.2 1.2 0 .4.2.7.5.9.9.2.2.3.5.4.7.1.2.1.5.1.6 0 .2-.1.3-.2.5-.1.1-.3.3-.6.5l-1.5 1c-.4.2-.6.4-.7.5zm.9-2.1c-.5-.7-1-.9-1.3-.6-.1.1-.2.2-.2.3 0 .1 0 .3.1.4.1.2.3.3.5.3s.4 0 .7-.2l.2-.2zm6.1 5l-4.1 1.3-.6-.9 1.8-2-2.5.9-.6-.8 2.7-3.4.7 1-1.7 2 2.4-.9.6.9-1.8 1.9 2.5-.8.6.8zm1.2 3.6l-.7-.6c.2-.3.3-.6 0-1-.2-.3-.4-.4-.6-.3-.1.1-.1.1-.1.2s.1.3.2.6c.2.4.3.7.4 1 .1.2 0 .5 0 .7-.1.2-.2.4-.5.6-.4.2-.7.3-1.1.2-.4-.1-.8-.4-1.1-.9-.6-.9-.6-1.6 0-2.2l.7.8c-.3.3-.2.6.1 1.1.1.2.2.3.4.4.1.1.3.1.4 0 .2-.1.2-.3 0-.6-.4-.7-.6-1.3-.5-1.6 0-.3.2-.6.5-.8.3-.2.7-.3 1.1-.2.4.1.7.4 1 .8.2.4.4.7.4 1-.3.2-.4.5-.6.8zm1.5 4.5l-1.5-2.2c-.1 0-.1.1-.2.1-.2.2-.4.4-.4.6 0 .2 0 .4.1.6.2.3.5.4.9.2l.5 1c-1 .3-1.7 0-2.2-.7-.2-.3-.4-.7-.4-1 0-.3 0-.7.2-1 .2-.3.4-.6.8-.9.5-.4 1.1-.5 1.6-.4.5.1 1 .4 1.3.9.3.4.4.9.3 1.4 0 .4-.3.9-1 1.4zm-.9-2.6l.8 1.2c.4-.3.5-.7.3-1-.2-.4-.6-.5-1.1-.2zm4.9 4.5l-4 1.1c-.4.1-.8.2-1 .2-.2 0-.4 0-.6-.1-.2-.1-.4-.3-.6-.6-.1-.1-.2-.3-.3-.5l.8-.5c.1.2.2.4.3.5.1.2.3.3.4.3s.3 0 .4-.1l2.6-3.5.7 1.1-1.6 2 2.4-.7.5.8zm6.4 6.9l-5.4 2-.7-1.1 2.5-2.8-3.5 1.3-.7-1 3.8-4.3.7 1.1-2.4 2.5-.1.1-.1.1 3.6-1.3.7 1-2.6 2.9c.1 0 .2-.1.3-.1l3.2-1.2.7.8zm-2.4 6.3l-.7-1c.1-.1.3-.3.5-.4-.4 0-.6-.1-.8-.2-.2-.1-.4-.3-.5-.5-.2-.3-.3-.6-.3-.9 0-.3.2-.6.5-.8.2-.1.4-.2.7-.2.3 0 .5.1.8.3.3.2.7.6 1.2 1.2l.2-.1c.3-.2.4-.5.2-.8-.2-.4-.5-.4-.9-.3l-.5-1c.4-.2.8-.2 1.2 0 .4.2.7.5.9.9.2.2.3.5.4.7.1.2.1.5.1.6 0 .2-.1.3-.2.5-.1.1-.3.3-.6.5l-1.5 1c-.4.2-.6.4-.7.5zm.9-2.1c-.5-.7-1-.9-1.3-.6-.1.1-.2.2-.2.3 0 .1 0 .3.1.4.1.2.3.3.5.3s.4 0 .7-.2l.2-.2zm4.7 3.2l-4 1.1c-.4.1-.8.2-1 .2-.2 0-.4 0-.6-.1-.2-.1-.4-.3-.6-.6-.1-.1-.2-.3-.3-.5l.8-.5c.1.2.2.4.3.5.1.2.3.3.4.3.1 0 .3 0 .4-.1l2.6-3.5.7 1.1-1.6 2 2.4-.7.5.8zm244 48.6c-.6.4-1.3.5-1.9.2-.6-.3-1.2-.7-1.6-1.4-.4-.7-.6-1.4-.6-2 .1-.7.4-1.2 1.1-1.6.7-.4 1.3-.5 1.9-.2.6.3 1.2.7 1.6 1.4.4.7.6 1.4.6 2-.1.7-.5 1.2-1.1 1.6zm-2.5-3.9c-.6.4-.5 1.1.1 2.1s1.3 1.3 1.8 1c.6-.4.5-1-.1-2-.6-1.1-1.2-1.4-1.8-1.1zm6.1 1.5l-1 .6-2.2-3.5.9-.6.4.6c-.2-.6-.1-1 .3-1.2 0 0 .1-.1.2-.1l.6 1c-.2.1-.3.3-.4.4-.1.1-.1.3-.1.5s.1.5.3.7l1 1.6zm-.6-6.3l.7 1-1 .7-.7-1 1-.7zm.9 1.3l2.2 3.5-1 .7-2.2-3.5 1-.7zm5.1-.6l-2.2 1.4c0 .1.1.1.1.2.2.2.3.4.6.4.2 0 .4 0 .6-.1.3-.2.4-.5.3-.9l1-.5c.3 1 0 1.7-.8 2.2-.3.2-.7.3-1 .4-.3 0-.7-.1-1-.2-.3-.2-.6-.4-.8-.8-.4-.5-.5-1.1-.4-1.6.1-.5.4-1 .9-1.3.4-.3.9-.4 1.4-.3s.9.4 1.3 1.1zm-2.6.8l1.2-.8c-.3-.5-.7-.6-1-.3-.4.2-.4.6-.2 1.1zm7.3-1.6l-1 .7-1.2-1.9c-.2-.2-.3-.4-.3-.5-.1-.1-.2-.1-.3-.1-.1 0-.2 0-.3.1-.4.2-.4.6 0 1.1l1.2 1.9-1 .7-2.2-3.5.9-.6.4.6c0-.4 0-.7.1-.8.1-.2.2-.3.4-.4.3-.2.7-.3 1-.2.3 0 .6.3 1 .9l1.3 2zm.3-3.9l.9 1.5c.1.2.2.3.3.3.1 0 .2 0 .4-.2.1-.1.2-.1.3-.2l.5.8c-.3.2-.5.4-.6.5-.4.3-.8.4-1.1.3-.3 0-.6-.3-.8-.7l-1-1.6-.5.3-.5-.8.6-.4-.6-1.1.8-.6.7 1.1.7-.5.5.8-.6.5zm6.1-.2l-1 .6c-.1-.1-.2-.3-.4-.5 0 .4-.1.6-.2.8-.1.2-.3.4-.5.5-.3.2-.6.3-1 .2-.3 0-.6-.2-.8-.5-.1-.2-.2-.5-.2-.7 0-.3.1-.5.3-.8.2-.3.6-.6 1.3-1.1l-.1-.2c-.2-.3-.5-.4-.8-.2-.4.2-.4.5-.3.9l-1 .5c-.2-.4-.2-.8 0-1.2.2-.4.5-.7.9-.9.2-.2.5-.3.7-.3.2-.1.5-.1.6-.1.2 0 .3.1.5.2.1.1.3.3.5.6l1 1.6c.2.3.3.5.5.6zm-2.2-.9c-.7.5-.9 1-.7 1.3.1.1.2.2.3.2.1 0 .3 0 .4-.1.2-.1.3-.3.3-.5s0-.4-.2-.7l-.1-.2zm2.9.4l-3-4.7 1-.7 3 4.7-1 .7zm3.6-4.9l1.2 1.9-1.1.7-3-4.7 2.1-1.3c.4-.2.7-.4 1-.5.3-.1.6 0 .9.1.3.1.5.4.7.6.4.6.3 1.1 0 1.7l2.2 1.5-1.2.8-1.9-1.4-.9.6zm-1.3-1.9l.8 1.2.7-.4c.2-.1.4-.3.4-.4.1-.1.1-.2.1-.4s0-.3-.1-.4l-.3-.3c-.1-.1-.3-.1-.4 0-.1 0-.3.1-.5.3l-.7.4zm5.9-5l3 4.7-.9.6-.3-.5c0 .6-.2 1-.6 1.2-.4.2-.8.3-1.2.1-.4-.2-.8-.5-1.2-1.1-.4-.6-.5-1.1-.5-1.6s.2-.8.6-1.1c.4-.2.7-.3 1.1-.1l-1-1.6 1-.6zm.7 3.3c-.3-.5-.7-.7-1-.5-.4.3-.3.8.1 1.5s.8.9 1.2.7c.1-.1.2-.2.3-.4 0-.2 0-.4-.2-.6l-.4-.7zm-85.7 106.4l-.7 5.5-1.3-.2.3-2.3-1.7-.2-.3 2.3-1.3-.2.7-5.5 1.3.2-.3 2.1 1.7.2.3-2.1 1.3.2zm4.2 4.3l-2.6-.4v.2c0 .3 0 .5.1.7.1.2.3.3.5.3.4.1.7-.1.8-.5l1.1.2c-.4.9-1.1 1.3-2 1.2-.4-.1-.7-.2-1-.4-.3-.2-.5-.5-.6-.8-.1-.3-.2-.7-.1-1.2.1-.6.3-1.1.8-1.5.4-.3.9-.5 1.5-.4.5.1.9.3 1.3.7.2.5.3 1.1.2 1.9zm-2.6-1l1.4.2c0-.6-.2-.9-.6-.9-.3-.1-.6.1-.8.7zm6.6 3.5l-1.2-.2v-.6c-.2.3-.5.4-.7.5-.2.1-.5.1-.7 0-.4-.1-.7-.2-.9-.4-.2-.2-.3-.5-.2-.9 0-.3.1-.5.3-.7.2-.2.4-.3.7-.4.3-.1.9-.1 1.7 0v-.2c.1-.4-.1-.6-.5-.7-.4-.1-.7.1-.8.5l-1.1-.3c.1-.5.4-.7.8-.9.4-.1.8-.2 1.3-.1.3 0 .5.1.8.2.2.1.4.2.5.4.1.1.2.3.2.4v.8l-.2 1.8v.8zm-1-2.2c-.8 0-1.3.2-1.4.6 0 .1 0 .3.1.4.1.1.2.2.4.2s.4 0 .6-.2c.2-.2.3-.4.3-.6v-.4zm3.7-.7l-.2 1.7v.4c.1.1.2.1.4.2h.4l-.1.9h-.8c-.5-.1-.8-.2-1-.4-.2-.2-.2-.6-.2-1.1l.3-1.9-.6-.1.1-.9.7.1.3-1.2 1 .1-.2 1.3.9.1-.1.9-.9-.1zm3-2l-.3 2c.3-.4.7-.6 1.2-.5.3 0 .5.1.7.3.2.1.3.3.3.5.1.2.1.5 0 .8l-.4 2.7-1.2-.2.3-2.3c0-.3.1-.5 0-.6 0-.1 0-.2-.1-.3-.1-.1-.2-.1-.3-.1-.2 0-.3 0-.5.1s-.3.3-.3.7l-.3 2.3-1.2-.2.7-5.5 1.4.3zm6.1 3.3l-.9.1c-.1-.4-.3-.6-.7-.7-.4-.1-.6 0-.7.3 0 .1 0 .2.1.2.1.1.3.1.6.2.5.1.8.2 1 .4.2.1.4.3.5.5.1.2.1.5.1.7-.1.4-.3.7-.6 1s-.8.3-1.4.2c-1-.1-1.6-.6-1.7-1.5h1c0 .4.3.6.8.7h.5c.1-.1.2-.1.2-.3 0-.2-.1-.3-.4-.4-.8-.2-1.3-.4-1.6-.7-.2-.2-.3-.6-.3-.9.1-.4.2-.7.6-.9.3-.2.8-.3 1.3-.2.4.1.8.2 1 .4.3.2.5.5.6.9zm2.2-.7l-.6 4.1-1.2-.2.6-4.1 1.2.2zm.2-1.5l-.2 1.2-1.2-.2.2-1.2 1.2.2zm4.4.7l-.7 5.5-1.1-.2.1-.6c-.3.4-.7.6-1.2.6-.4-.1-.8-.3-1-.7-.2-.4-.3-.9-.2-1.6.1-.7.3-1.2.6-1.5.3-.3.7-.5 1.2-.4.4.1.7.3.9.6l.3-1.9 1.1.2zm-1.6 3c.1-.6-.1-1-.5-1-.5-.1-.8.4-.9 1.3-.1.8.1 1.2.5 1.3.2 0 .3 0 .5-.2.1-.1.2-.3.3-.6l.1-.8zm5.7 1.3l-2.6-.4v.2c0 .3 0 .5.1.7.1.2.3.3.5.3.4.1.7-.1.8-.5l1.1.2c-.4.9-1.1 1.3-2 1.2-.4-.1-.7-.2-1-.4-.3-.2-.5-.5-.6-.8-.1-.3-.2-.7-.1-1.2.1-.6.3-1.1.8-1.5.4-.3.9-.5 1.5-.4.5.1.9.3 1.3.7.2.5.4 1.1.2 1.9zm-2.5-1.1l1.4.2c0-.6-.2-.9-.6-.9-.4-.1-.7.2-.8.7zm10.1.4l-1.4-.1c.1-.8-.2-1.2-.7-1.3-.7-.1-1.1.5-1.3 1.7-.1.7-.1 1.2.1 1.4.1.3.4.4.7.5.5.1.9-.2 1.1-.9l1.2.2c-.2.6-.5 1.1-.9 1.4-.5.3-1 .4-1.6.3-.7-.1-1.3-.4-1.7-1-.4-.6-.5-1.3-.4-2.2.1-.8.4-1.5.9-1.9.5-.5 1.1-.7 1.9-.5 1.4.2 2.1 1 2.1 2.4zm1.3 3.7l-1.2-.2.6-4.1 1.1.1-.1.8c.2-.5.6-.8 1-.7h.2l-.2 1.2h-.6c-.1.1-.3.2-.4.4-.1.2-.2.4-.2.8l-.2 1.7zm5.6-1.1l-2.6-.4v.2c0 .3 0 .5.1.7.1.2.3.3.5.3.4.1.7-.1.8-.5l1.1.2c-.4.9-1.1 1.3-2 1.2-.4-.1-.7-.2-1-.4-.3-.2-.5-.5-.6-.8-.1-.3-.2-.7-.1-1.2.1-.6.3-1.1.8-1.5.4-.3.9-.5 1.5-.4.5.1.9.3 1.3.7.2.5.4 1.1.2 1.9zm-2.5-1l1.4.2c0-.6-.2-.9-.6-.9-.4-.1-.7.1-.8.7zm6.5.3l-.9.1c-.1-.4-.3-.6-.7-.7-.4-.1-.6 0-.7.3 0 .1 0 .2.1.2.1.1.3.1.6.2.5.1.8.2 1 .4.2.1.4.3.5.5.1.2.1.5.1.7-.1.4-.3.7-.6 1-.4.2-.8.3-1.4.2-1-.1-1.6-.6-1.7-1.5h1c0 .4.3.6.8.7h.5c.1-.1.2-.1.2-.3 0-.2-.1-.3-.4-.4-.8-.2-1.3-.4-1.6-.7-.2-.2-.3-.6-.3-.9.1-.4.2-.7.6-.9.3-.2.8-.3 1.3-.2.4.1.8.2 1 .4.4.2.5.5.6.9zm4.3 1.9l-2.6-.4v.2c0 .3 0 .5.1.7.1.2.3.3.5.3.4.1.7-.1.8-.5l1.1.2c-.4.9-1.1 1.3-2 1.2-.4-.1-.7-.2-1-.4-.3-.2-.5-.5-.6-.8-.1-.3-.2-.7-.1-1.2.1-.6.3-1.1.8-1.5.4-.3.9-.5 1.5-.4.5.1.9.3 1.3.7.3.4.4 1.1.2 1.9zm-2.5-1.1l1.4.2c0-.6-.2-.9-.6-.9-.4-.1-.6.2-.8.7zm6.6 3.5l-1.2-.2.3-2.3c0-.3.1-.5 0-.6 0-.1 0-.2-.1-.3-.1-.1-.2-.1-.3-.1-.4-.1-.7.2-.8.8l-.3 2.3-1.2-.2.6-4.1 1.1.2-.1.7c.2-.3.4-.5.6-.6.2-.1.4-.1.6-.1.4.1.7.2.9.4.2.2.3.7.2 1.3l-.3 2.8zm2.8-2.8l-.2 1.7v.4c.1.1.2.1.4.2h.4l-.1.9h-.8c-.5-.1-.8-.2-1-.4-.2-.2-.2-.6-.2-1.1l.3-1.9-.6-.1.1-.9.7.1.3-1.2 1 .1-.2 1.3.9.1-.1.9-.9-.1zM6.6 276.3l.3 3-.6.1c-.1-.2-.1-.4-.2-.6-.3.5-.8.8-1.4.9-.7.1-1.3-.1-1.8-.6-.4-.5-.7-1.1-.8-1.9-.1-.9.1-1.6.4-2.2.4-.6.9-.9 1.7-1 .6-.1 1.1.1 1.5.4s.7.7.8 1.3l-1.2.3c-.2-.7-.5-1-1-.9-.4 0-.6.2-.7.5-.1.3-.2.8-.1 1.4.1.6.2 1 .4 1.3.2.3.5.4.9.4.2 0 .4-.1.6-.3.2-.2.2-.4.2-.7l-1 .1-.1-1 2.1-.5zm2.6-1.5c.6-.1 1.1.1 1.5.5.4.4.6.9.7 1.5.1.6-.1 1.1-.4 1.6s-.8.7-1.4.7c-.6.1-1.1-.1-1.5-.5-.4-.4-.6-.9-.7-1.5 0-.4 0-.8.1-1.1.1-.3.3-.6.6-.8.3-.2.6-.4 1.1-.4zm.1.8c-.2 0-.4.1-.5.3-.1.2-.1.5-.1 1.1 0 .5.1.8.3 1 .1.2.3.3.5.3s.4-.1.5-.3c.1-.2.1-.5.1-1s-.1-.9-.3-1.1c-.1-.3-.3-.3-.5-.3zm3 3.1l-.5-5.5 1.2-.1.5 5.5-1.2.1zm5.1-6l.5 5.5-1.1.1-.1-.6c-.2.5-.6.8-1.1.8-.5 0-.8-.1-1.1-.5-.3-.3-.5-.8-.5-1.5-.1-.7 0-1.2.2-1.6s.6-.6 1.1-.7c.4 0 .8.1 1.1.4l-.2-1.9h1.2zm-.8 3.2c-.1-.6-.3-.9-.7-.9-.5 0-.7.5-.6 1.4.1.8.3 1.2.8 1.1.2 0 .3-.1.4-.3.1-.2.2-.4.1-.6v-.7zm5.1-1.2l-.9.3c-.1-.4-.4-.5-.8-.5s-.6.2-.6.4c0 .1.1.2.1.2.1.1.3.1.6.1.5 0 .8.1 1.1.1.2.1.4.2.6.4.1.2.2.4.3.7 0 .4-.1.8-.4 1.1-.3.3-.7.5-1.3.5-1 .1-1.7-.2-2-1l1-.2c.1.4.4.5 1 .5.2 0 .4-.1.5-.2.1-.1.2-.2.2-.3 0-.2-.2-.3-.5-.3-.8 0-1.4-.1-1.7-.3-.3-.2-.4-.5-.5-.9 0-.4.1-.7.4-1 .3-.3.7-.4 1.2-.5.4 0 .8 0 1.1.2.2.1.4.3.6.7zm6.2-1.6l-.9 4.2-1.1.1-.9-2.6-.4 2.7-1 .1-1.6-4 1.3-.1.9 2.4.4-2.6 1.1-.1.8 2.5.5-2.6h.9zm2.2-.3c.6-.1 1.1.1 1.5.5.4.4.6.9.7 1.5.1.6-.1 1.1-.4 1.6-.3.4-.8.7-1.4.7-.6.1-1.1-.1-1.5-.5-.4-.4-.6-.9-.7-1.5 0-.4 0-.8.1-1.1.1-.3.3-.6.6-.8.3-.2.6-.3 1.1-.4zm.1.8c-.2 0-.4.1-.5.3-.1.2-.1.5-.1 1.1 0 .5.1.8.3 1 .1.2.3.3.5.3s.4-.1.5-.3c.1-.2.1-.5.1-1s-.1-.9-.3-1.1c-.1-.2-.3-.3-.5-.3zm4.2 3l-1.2.1-.4-4.1 1.1-.1.1.8c.1-.6.4-.9.8-.9h.2l.1 1.2c-.2 0-.4.1-.6.2-.1.1-.2.2-.3.4-.1.2-.1.5-.1.8l.3 1.6zm2.9-3.4l.2 1.7c0 .2.1.4.1.4.1.1.2.1.5.1.1 0 .2 0 .4-.1l.1.9c-.3.1-.6.1-.7.2-.5 0-.9 0-1.1-.2-.2-.2-.4-.5-.4-1l-.2-1.9-.6.1-.1-.9.7-.1v-1.2l1-.2.1 1.3.9-.1.1.9-1 .1zm2.5-2.6l.2 2c.2-.4.5-.7 1-.7.3 0 .5 0 .7.1.2.1.4.2.5.4.1.2.2.5.2.8l.3 2.7-1.2.1-.2-2.3c0-.3-.1-.5-.1-.6s-.1-.2-.2-.2c-.1-.1-.2-.1-.3-.1-.2 0-.3.1-.4.2-.1.1-.2.4-.2.8l.2 2.3-1.2.1-.5-5.5 1.2-.1zm7.1 2.7l.2 2.2-1.3.1-.5-5.5 2.4-.2c.4 0 .8 0 1.1.1.3.1.5.2.7.5.2.3.3.6.4.9.1.7-.2 1.2-.8 1.5l1.2 2.3-1.4.1-1.1-2.1-.9.1zm-.2-2.4l.1 1.4.8-.1c.3 0 .4-.1.6-.1.1 0 .2-.1.3-.3.1-.1.1-.3.1-.4 0-.2-.1-.3-.2-.4-.1-.1-.2-.2-.3-.2h-.6l-.8.1zm7.4-1.7l.5 5.5-1.1.1-.1-.6c-.2.5-.6.8-1.1.8-.5 0-.8-.1-1.1-.5-.3-.3-.5-.8-.5-1.5-.1-.7 0-1.2.2-1.6.2-.4.6-.6 1.1-.7.4 0 .8.1 1.1.4l-.2-1.9h1.2zm-.9 3.3c-.1-.6-.3-.9-.7-.9-.5 0-.7.5-.6 1.4.1.8.3 1.2.8 1.1.2 0 .3-.1.4-.3.1-.2.2-.4.1-.6v-.7zm-223.6 25.1l.5 2.9-.6.1-.3-.6c-.3.5-.8.9-1.4 1-.7.1-1.3 0-1.8-.5-.5-.4-.8-1.1-1-1.9-.2-.9-.1-1.6.2-2.2.3-.6.8-1 1.6-1.1.6-.1 1.1 0 1.6.2.4.3.7.7.9 1.2l-1.2.4c-.2-.6-.6-.9-1.1-.8-.3.1-.6.3-.7.6-.1.3-.1.8 0 1.4.1.6.3 1 .5 1.2.2.3.5.4.9.3.2 0 .4-.2.6-.3.2-.2.2-.4.1-.8l-1 .2-.2-1 2.4-.3zm2.4-1.7c.6-.1 1.1 0 1.5.3.4.3.7.8.8 1.4.1.6 0 1.1-.3 1.6s-.7.8-1.3.9c-.6.1-1.1 0-1.5-.3-.4-.3-.7-.8-.8-1.4-.1-.4-.1-.8 0-1.1.1-.3.3-.6.5-.8.4-.4.7-.5 1.1-.6zm.2.8c-.2 0-.4.2-.5.4-.1.2-.1.6 0 1.1.1.5.2.8.4 1 .1.2.3.3.6.2.2 0 .3-.2.4-.4.1-.2.1-.5 0-1s-.2-.9-.4-1c-.1-.3-.3-.4-.5-.3zm3.3 2.8l-1-5.5 1.2-.2 1 5.5-1.2.2zm4.6-6.5l1 5.5-1.1.2-.1-.6c-.2.5-.5.8-1 .9-.4.1-.8 0-1.2-.4-.3-.3-.5-.8-.7-1.4-.1-.7-.1-1.2.1-1.6.2-.4.5-.7 1-.8.4-.1.8 0 1.1.3l-.3-1.8 1.2-.3zm-.6 3.3c-.1-.6-.4-.9-.8-.8-.5.1-.6.6-.4 1.5.1.8.4 1.2.9 1.1.2 0 .3-.1.4-.3.1-.2.1-.4.1-.7l-.2-.8zm5-1.6l-.8.4c-.2-.3-.5-.5-.9-.4-.4.1-.6.2-.5.5 0 .1.1.2.2.2s.3.1.6 0h1.1c.2 0 .4.1.6.3.2.2.3.4.3.7.1.4 0 .8-.3 1.1-.3.3-.7.5-1.3.6-1 .2-1.7-.1-2.1-.9l1-.3c.1.3.5.5 1 .4.2 0 .4-.1.5-.2.1-.1.2-.2.2-.3 0-.2-.2-.3-.5-.2-.8 0-1.4 0-1.7-.2-.3-.2-.5-.4-.5-.8-.1-.4 0-.7.3-1 .3-.3.6-.5 1.2-.6.4-.1.8-.1 1.1.1.1 0 .3.2.5.6zm6-2.1l-.5 4.3-1 .2-1.1-2.5-.2 2.7-1 .2-2-3.8 1.2-.2 1.1 2.3.2-2.6 1.1-.2 1 2.4.2-2.6 1-.2zm2.2-.5c.6-.1 1.1 0 1.5.3.4.3.7.8.8 1.4.1.6 0 1.1-.3 1.6s-.7.7-1.3.9c-.6.1-1.1 0-1.5-.3-.4-.3-.7-.8-.8-1.4-.1-.4-.1-.8 0-1.1.1-.3.3-.6.5-.8.3-.4.6-.5 1.1-.6zm.1.8c-.2 0-.4.2-.5.4-.1.2-.1.6 0 1.1.1.5.2.8.4 1 .1.2.3.3.6.2.2 0 .3-.2.4-.4.1-.2.1-.5 0-1s-.2-.9-.4-1c-.1-.3-.2-.4-.5-.3zm4.5 2.6l-1.2.2-.7-4 1.1-.2.1.8c.1-.6.3-.9.7-1h.2l.2 1.2c-.2 0-.4.1-.5.2-.1.1-.2.3-.3.5v.8l.4 1.5zm2.6-3.7l.3 1.7c0 .2.1.3.2.4.1.1.2.1.5 0 .1 0 .2 0 .4-.1l.2.9c-.3.1-.6.2-.7.2-.5.1-.9.1-1.1-.1-.2-.2-.4-.5-.5-1l-.3-1.9-.6.1-.2-.9.7-.1-.1-1.2 1-.3.2 1.3.9-.2.2.9-1.1.3zm2.3-2.8l.4 2c.1-.5.5-.7 1-.8h.7c.2.1.4.2.5.4.1.2.2.4.3.8l.5 2.7-1.2.2-.4-2.3c-.1-.3-.1-.5-.1-.6 0-.1-.1-.2-.2-.2-.1-.1-.2-.1-.3 0-.1 0-.3.1-.4.3-.1.1-.2.4-.1.8l.4 2.3-1.2.2-1-5.5 1.1-.3zm7.2 2l.4 2.2-1.3.2-1-5.5 2.4-.4c.4-.1.8-.1 1.1 0 .3.1.5.2.8.4.2.2.4.5.4.9.1.7-.1 1.2-.7 1.6l1.5 2.2-1.4.3-1.2-2-1 .1zm-.4-2.3l.3 1.4.8-.1c.3 0 .4-.1.5-.2l.3-.3c.1-.1.1-.3.1-.5s-.1-.3-.2-.4c-.1-.1-.2-.2-.3-.2-.1 0-.3 0-.6.1l-.9.2zm7.3-2.4l1 5.5-1.1.2-.1-.6c-.2.5-.5.8-1 .9-.4.1-.8 0-1.2-.4-.3-.3-.5-.8-.7-1.4-.1-.7-.1-1.2.1-1.6.2-.4.5-.7 1-.8.4-.1.8 0 1.1.3l-.3-1.8 1.2-.3zm-.6 3.4c-.1-.6-.4-.9-.8-.8-.5.1-.6.6-.4 1.5.1.8.4 1.2.9 1.1.2 0 .3-.1.4-.3.1-.2.1-.4.1-.7l-.2-.8zm243.8-47.4L114 244l-.8-1.2 3.7-4.5.8 1.1-2.7 3.1 3.9-1.3.6 1.1zm-.3 2.2l-3.4 2.3-.7-1 3.4-2.3.7 1zm1.3-.9l-1 .7-.7-1 1-.7.7 1zm-.8 6.2c-.4.2-.9.3-1.3.2-.4-.1-.8-.4-1.1-.8-.3-.5-.4-1-.3-1.5.1-.5.4-1 1-1.3.5-.4 1.1-.5 1.6-.4.5.1 1 .4 1.3.9.3.4.4.8.3 1.3-.1.4-.3.8-.6 1.1l-.7-.9c.4-.3.5-.6.3-.9-.3-.4-.7-.4-1.4.1-.4.3-.7.5-.7.7 0 .2 0 .4.1.5.2.3.5.4 1 .2l.5.8zm2.4.7l-1.4 1c-.2.1-.3.2-.3.3 0 .1 0 .2.2.4.1.1.1.2.2.3l-.7.5c-.2-.3-.4-.5-.5-.6-.3-.4-.4-.8-.4-1.1 0-.3.3-.6.7-.9l1.6-1.1-.4-.5.8-.5.4.6 1.1-.6.7.8-1.1.7.5.7-.8.5-.6-.5zm2.7 2.1c.4.5.5 1 .3 1.6-.1.5-.5 1-1 1.3-.5.3-1 .5-1.6.4-.5-.1-1-.4-1.3-.9-.3-.5-.4-1-.3-1.5.1-.5.5-.9 1-1.3.4-.2.7-.4 1.1-.4.3 0 .7 0 1 .1.3.1.6.4.8.7zm-.6.5c-.1-.2-.3-.3-.5-.3s-.5.2-1 .4c-.4.3-.7.5-.8.7-.1.2-.1.4 0 .6.1.2.3.3.5.3s.5-.1 1-.4c.4-.3.7-.6.8-.8.1-.1.1-.3 0-.5zm-.7 5.1l-.7-1 3.4-2.3.6.9-.6.4c.6-.2 1-.1 1.2.3 0 0 .1.1.1.2l-1 .7c-.1-.2-.3-.3-.4-.4-.1-.1-.3-.1-.5 0-.2 0-.5.2-.7.3l-1.4.9zm5.1.1l-3.4 2.3-.7-1 3.4-2.3.7 1zm1.2-.8l-1 .7-.7-1 1-.7.7 1zm-2.1 6.9l-.7-1c.1-.1.3-.3.5-.4-.4 0-.6-.1-.8-.2-.2-.1-.4-.3-.5-.5-.2-.3-.3-.6-.3-.9 0-.3.2-.6.5-.8.2-.1.4-.2.7-.2.3 0 .5.1.8.3.3.2.7.6 1.2 1.2l.2-.1c.3-.2.4-.5.2-.8-.2-.4-.5-.4-.9-.3l-.5-1c.4-.2.8-.2 1.2 0 .4.2.7.5.9.9.2.2.3.5.4.7.1.2.1.5.1.6 0 .2-.1.3-.2.5-.1.1-.3.3-.6.5l-1.5 1c-.4.2-.6.4-.7.5zm.9-2.1c-.5-.7-1-.9-1.3-.6-.1.1-.2.2-.2.3 0 .1 0 .3.1.4.1.2.3.3.5.3s.4 0 .7-.2l.2-.2zm9.2 7.1l-5.4 2-.7-1.1 2.5-2.8-3.5 1.3-.7-1 3.8-4.3.7 1.1-2.4 2.5-.1.1-.1.1 3.6-1.3.7 1-2.6 2.9c.1 0 .2-.1.3-.1l3.2-1.2.7.8zm-2.4 6.3l-.7-1c.1-.1.3-.3.5-.4-.4 0-.6-.1-.8-.2-.2-.1-.4-.3-.5-.5-.2-.3-.3-.6-.3-.9s.2-.6.5-.8c.2-.1.4-.2.7-.2.3 0 .5.1.8.3.3.2.7.6 1.2 1.2l.2-.1c.3-.2.4-.5.2-.8-.2-.4-.5-.4-.9-.3l-.5-1c.4-.2.8-.2 1.2 0 .4.2.7.5.9.9.2.2.3.5.4.7.1.2.1.5.1.6 0 .2-.1.3-.2.5s-.3.3-.6.5l-1.5 1c-.4.2-.6.4-.7.5zm.9-2.2c-.5-.7-1-.9-1.3-.6-.1.1-.2.2-.2.3 0 .1 0 .3.1.4.1.2.3.3.5.3s.4 0 .7-.2l.2-.2zm4.7 3.2l-4 1.1c-.4.1-.8.2-1 .2-.2 0-.4 0-.6-.1-.2-.1-.4-.3-.6-.6-.1-.1-.2-.3-.3-.5l.8-.5c.1.2.2.4.3.5.1.2.3.3.4.3.1 0 .3 0 .4-.1l2.6-3.5.7 1.1-1.6 2 2.4-.7.5.8zM88.7-54.8l1.7 5.5-1.2.8-4.5-3.7 1.1-.8 3.1 2.7-1.2-3.9 1-.6zm1.3-1l.7 1-1 .7-.7-1 1-.7zm.9 1.3l2.3 3.4-1 .7-2.3-3.4 1-.7zm5.2-.5c.2.4.3.9.2 1.3-.1.4-.4.8-.8 1.1-.5.3-1 .4-1.5.3-.5-.1-1-.4-1.3-1-.4-.5-.5-1.1-.4-1.6.1-.5.4-1 .9-1.3.4-.3.8-.4 1.3-.3.4.1.8.3 1.1.6l-.9.7c-.3-.4-.6-.5-.9-.3-.4.3-.4.7.1 1.4.3.4.5.7.7.7.2 0 .4 0 .5-.1.3-.2.4-.5.2-1l.8-.5zm.8-2.4l1 1.4c.1.2.2.3.3.3.1 0 .2 0 .4-.2.1-.1.2-.1.3-.2l.5.7c-.3.2-.5.4-.6.5-.4.3-.8.4-1.1.4-.3 0-.6-.3-.8-.7l-1.1-1.6-.5.4-.5-.8.6-.4-.6-1.1.8-.6.7 1.1.7-.5.5.8-.6.5zm2.1-2.7c.5-.3 1-.4 1.6-.3.5.1.9.5 1.3 1 .3.5.5 1 .4 1.6-.1.5-.4 1-.9 1.3-.5.3-1 .4-1.5.3-.5-.1-.9-.5-1.3-1-.2-.4-.4-.7-.4-1.1 0-.3 0-.7.1-1 .1-.3.4-.5.7-.8zm.5.7c-.2.1-.3.3-.3.5s.1.5.4 1c.3.4.5.7.7.8.2.1.4.1.6 0 .2-.1.3-.3.3-.5s-.1-.5-.4-1c-.3-.4-.5-.7-.7-.8-.2-.2-.4-.2-.6 0zm5.1.6l-1 .7-2.3-3.4.9-.6.4.6c-.2-.6-.1-1 .3-1.2 0 0 .1-.1.2-.1l.7 1c-.2.1-.3.3-.4.4-.1.1-.1.3-.1.5s.1.5.3.7l1 1.4zm-.7-6.3l.7 1-1 .7-.7-1 1-.7zm.9 1.3l2.3 3.4-1 .7-2.3-3.4 1-.7zm6 .9l-1 .7c-.1-.1-.3-.3-.4-.5 0 .4-.1.6-.2.8-.1.2-.3.4-.5.5-.3.2-.6.3-.9.3-.3 0-.6-.2-.8-.5-.1-.2-.2-.4-.2-.7 0-.3.1-.5.3-.8.2-.3.6-.7 1.2-1.2l-.1-.2c-.2-.3-.5-.4-.8-.2-.4.2-.4.5-.3.9l-1 .5c-.2-.4-.2-.8 0-1.2.2-.4.5-.7.9-.9.2-.2.5-.3.7-.4.2-.1.5-.1.6-.1.2 0 .3.1.5.2.1.1.3.3.5.6l1 1.5c.3.4.4.6.5.7zm-2.1-1c-.7.5-.9 1-.6 1.3.1.1.2.2.3.2.1 0 .3 0 .4-.1.2-.1.3-.3.3-.5s0-.4-.2-.7l-.2-.2zm7.1-9.1l1.9 5.4-1.1.7-2.8-2.5 1.3 3.5-1.1.7-4.3-3.8 1.1-.7 2.5 2.4.1.1.1.1-1.3-3.6 1-.7 2.8 2.6c0-.1-.1-.2-.1-.3l-1.2-3.2 1.1-.7zm6.4 2.5l-1 .7c-.1-.1-.3-.3-.4-.5 0 .4-.1.6-.2.8-.1.2-.3.4-.5.5-.3.2-.6.3-.9.3-.3 0-.6-.2-.8-.5-.1-.2-.2-.4-.2-.7 0-.3.1-.5.3-.8.2-.3.6-.7 1.2-1.2l-.1-.2c-.2-.3-.5-.4-.8-.2-.4.2-.4.5-.3.9l-1 .5c-.2-.4-.2-.8 0-1.2s.5-.7.9-.9c.2-.2.5-.3.7-.4.2-.1.5-.1.6-.1.2 0 .3.1.5.2.1.1.3.3.5.6l1 1.5c.2.4.4.6.5.7zm-2.2-.9c-.7.5-.9 1-.6 1.3.1.1.2.2.3.2.1 0 .3 0 .4-.1.2-.1.3-.3.3-.5s0-.4-.2-.7l-.2-.2zm3.2-4.8l1.1 4c.1.4.2.8.2 1 0 .2 0 .4-.1.6-.1.2-.3.4-.6.6-.1.1-.3.2-.5.3l-.5-.8c.2-.1.4-.2.5-.3.2-.1.3-.3.3-.4 0-.1 0-.3-.1-.4l-3.5-2.6 1.1-.7 2 1.6-.7-2.5.8-.4zM58-33.2l4.6 3.5-1.1.8-.9-.7-1.5 1 .4 1.1-.9.7-1.8-5.6 1.2-.8zm.8 3.6l1-.7-1.6-1.3.6 2zm3.3-3.8l.5-.3c.3-.2.4-.4.4-.6 0-.2 0-.3-.1-.5-.1-.1-.2-.2-.4-.3-.2 0-.4 0-.6.2-.4.3-.5.6-.3 1.1l-1 .5c-.2-.4-.2-.8-.1-1.3.1-.4.4-.8.9-1.1.5-.3.9-.5 1.4-.5.5 0 .8.2 1.1.6.4.5.3 1-.1 1.6.7-.3 1.3-.1 1.7.4.3.4.4.8.2 1.3-.1.5-.5.9-1 1.3s-1 .5-1.5.5-.9-.2-1.2-.6l.9-.8c.4.4.9.4 1.3.1.2-.1.3-.3.4-.5.1-.2 0-.4-.1-.6-.1-.2-.3-.3-.5-.3s-.4.1-.8.3l-.4.3-.7-.8zm7.6-2.6l.6 1-3.4 2.4-.6-.9c.1-.2.1-.4.3-.8.3-.9.5-1.6.6-2.1.1-.5 0-.8-.1-1.1-.1-.2-.3-.3-.5-.3s-.4 0-.6.2c-.4.3-.5.8-.2 1.4l-1.1.5c-.5-1.1-.3-2.1.7-2.7.5-.4 1-.5 1.5-.5.5.1.9.3 1.1.7.3.4.4.9.3 1.4-.1.5-.3 1.3-.8 2.4l2.2-1.6zm3-.7c-.6.4-1.1.5-1.8.3-.6-.2-1.2-.7-1.6-1.3-.5-.7-.7-1.3-.7-2s.3-1.2.8-1.6c.6-.4 1.2-.5 1.8-.3.6.2 1.2.7 1.6 1.3.5.7.7 1.3.7 2s-.2 1.2-.8 1.6zm-2.8-3.9c-.2.2-.3.4-.3.7.1.3.3.7.7 1.3.4.6.8 1 1 1.1.3.2.5.1.8 0 .2-.2.3-.4.3-.7-.1-.3-.3-.7-.7-1.3-.4-.6-.8-1-1.1-1.2-.2-.1-.4-.1-.7.1zm-206.5-3.3l2.3-1.2c.4-.2.7-.3 1-.3.3 0 .5 0 .7.2.2.1.4.3.6.6.3.5.2 1.1-.3 1.6.4-.1.7-.1 1 0 .3.1.5.3.7.6.2.4.2.8.1 1.2-.1.4-.5.8-1.1 1.1L-134-39l-2.6-4.9zm1.6.2l.6 1.1.9-.5c.3-.2.5-.3.5-.5s0-.3-.1-.4l-.3-.3c-.1-.1-.2-.1-.3 0-.1 0-.3.1-.5.2l-.8.4zm1.1 2l.6 1.2.9-.5c.3-.2.5-.3.6-.5.1-.2 0-.4-.1-.5-.1-.2-.2-.3-.4-.3s-.4 0-.7.1l-.9.5zm5.7-.4l-1 .6-1.9-3.6 1-.5.4.7c-.1-.6 0-1 .4-1.2.1 0 .1-.1.2-.1l.6 1.1c-.2.1-.4.2-.5.4-.1.1-.1.3-.1.5s.1.5.3.8l.6 1.3zm3.9-4.2l-2.3 1.3c0 .1.1.1.1.2.1.3.3.4.5.5.2.1.4 0 .6-.1.4-.2.5-.5.3-.9l1-.4c.2 1-.1 1.7-1 2.1-.4.2-.7.3-1 .3-.3 0-.7-.1-1-.3-.3-.2-.6-.5-.8-.9-.3-.6-.4-1.1-.3-1.7.1-.5.5-.9 1-1.2.5-.3 1-.3 1.5-.2.5.1 1 .6 1.4 1.3zm-2.7.6l1.3-.7c-.3-.5-.6-.6-1-.4-.4.2-.5.6-.3 1.1zm7-5.5l.9 4.2-.9.5-1.8-2 .7 2.6-.9.5-3.1-3 1.1-.6 1.8 1.9-.6-2.5 1-.5 1.7 1.9-.6-2.6.7-.4zm4.7 0l-2.3 1.3c0 .1.1.1.1.2.1.3.3.4.5.5.2.1.4 0 .6-.1.4-.2.5-.5.3-.9l1-.4c.2 1-.1 1.7-1 2.1-.4.2-.7.3-1 .3-.3 0-.6-.1-1-.3-.3-.2-.6-.5-.8-.9-.3-.6-.4-1.1-.3-1.7.1-.5.5-.9 1-1.2.5-.3 1-.3 1.5-.2.6.2 1 .6 1.4 1.3zm-2.6.6l1.3-.7c-.3-.5-.6-.6-1-.4-.5.2-.6.6-.3 1.1zm5.2.1l-1 .6-1.9-3.6 1-.5.4.7c-.1-.6 0-1 .4-1.2.1 0 .1-.1.2-.1l.6 1.1c-.2.1-.4.2-.5.4-.1.1-.1.3-.1.5s.1.5.3.8l.6 1.3zm2.5-6l.7 4.1c.1.5.1.8.1 1 0 .2 0 .4-.2.6-.1.2-.3.4-.6.5-.2.1-.3.2-.5.2l-.4-.8c.2-.1.4-.1.6-.2.2-.1.3-.2.4-.3v-.4l-3.3-2.9 1.1-.6 1.9 1.8-.5-2.5.7-.5zm4.4-.2l1 1.9-1.2.6-2.6-4.9 2.1-1.2c.4-.2.7-.3 1-.4.3 0 .6 0 .9.2.3.2.5.4.7.7.3.6.3 1.2-.2 1.7l2.1 1.7-1.3.7-1.8-1.5-.7.5zm-1.1-2.1l.7 1.2.7-.4c.2-.1.4-.2.5-.3.1-.1.1-.2.2-.4 0-.2 0-.3-.1-.4l-.3-.3c-.1-.1-.3-.1-.4-.1-.1 0-.3.1-.6.3l-.7.4zm6.2-4.5l2.6 4.9-1 .5-.3-.6c0 .6-.2.9-.7 1.2-.4.2-.8.2-1.2 0-.4-.2-.8-.6-1.1-1.2-.3-.6-.5-1.1-.4-1.6 0-.5.3-.8.7-1 .4-.2.8-.2 1.1 0l-.9-1.6 1.2-.6zm.5 3.4c-.3-.6-.6-.8-1-.6-.4.2-.4.7 0 1.5.4.7.8 1 1.2.8.1-.1.2-.2.3-.4 0-.2 0-.4-.1-.6l-.4-.7zM29.4 130.8l-5.3 2.4-.9-1 3.1-4.9.9 1-2.2 3.5 3.7-1.8.7.8zm0 2.2l-3.1 2.7-.8-.9 3.1-2.7.8.9zm1.2-1l-.9.8-.8-.9.9-.8.8.9zm-.1 6.1c-.4.3-.8.4-1.3.3-.4-.1-.8-.3-1.2-.7-.4-.4-.6-.9-.5-1.4 0-.5.3-1 .8-1.4.5-.4 1-.6 1.5-.6s1 .3 1.4.7c.3.4.5.8.5 1.2 0 .4-.2.8-.5 1.2l-.8-.8c.3-.4.4-.7.1-1-.3-.4-.8-.3-1.4.2-.4.3-.6.6-.6.8 0 .2 0 .4.2.5.2.3.6.3 1 0l.8 1zm2.6.5l-1.3 1.1c-.2.1-.3.3-.3.4 0 .1.1.2.2.4l.3.3-.7.6c-.3-.2-.5-.4-.6-.5-.3-.4-.5-.7-.5-1 0-.3.2-.6.6-.9l1.4-1.3-.4-.5.7-.6.5.5 1-.7.8.7-1 .9.6.7-.7.6-.6-.7zm2.9 1.7c.4.5.6 1 .5 1.5-.1.5-.3 1-.8 1.4-.5.4-1 .6-1.5.6s-1-.2-1.4-.7c-.4-.4-.5-.9-.5-1.4.1-.5.3-1 .8-1.4.3-.3.7-.5 1-.6.3-.1.7-.1 1 0 .3.1.6.3.9.6zm-.6.6c-.2-.2-.3-.2-.5-.2s-.5.2-.9.6c-.4.3-.6.6-.7.8-.1.2 0 .4.1.6.1.2.3.2.5.2s.5-.2.9-.5c.4-.4.6-.6.7-.9.1-.3.1-.5-.1-.6zm0 5.1l-.8-.9 3.1-2.7.7.8-.6.5c.5-.2.9-.2 1.2.1 0 0 .1.1.1.2l-.9.8c-.2-.2-.3-.3-.5-.4-.1-.1-.3 0-.5 0-.2.1-.4.2-.7.4l-1.1 1.2zm5.1-.5l-3.1 2.7-.8-.9 3.1-2.7.8.9zm1.1-1l-.9.8-.8-.9.9-.8.8.9zm-1.2 7.1l-.8-.9c.1-.1.2-.3.4-.5-.4 0-.6 0-.8-.1-.2-.1-.4-.2-.6-.4-.3-.3-.4-.6-.4-.9 0-.3.1-.6.4-.8.2-.2.4-.3.7-.3.3 0 .5 0 .8.2.3.1.7.5 1.3 1.1l.2-.2c.3-.3.3-.5.1-.8-.3-.3-.6-.4-.9-.1l-.7-.9c.4-.3.8-.3 1.2-.2.4.1.7.4 1 .7.2.2.3.4.4.7.1.2.2.4.2.6 0 .2 0 .4-.1.5-.1.1-.2.3-.5.6l-1.4 1.2-.5.5zm.6-2.2c-.6-.6-1.1-.7-1.4-.4-.1.1-.2.2-.2.3 0 .1 0 .3.1.4.1.2.3.2.6.2.2 0 .4-.1.6-.3l.3-.2zm10 5.8l-5.1 2.6-.8-1 2.1-3.1-3.3 1.8-.8-.9 3.2-4.7.9 1-2 2.8s0 .1-.1.2l-.1.1 3.4-1.8.8.9-2.2 3.2c.1 0 .2-.1.3-.2l3.1-1.7.6.8zm-1.6 6.7l-.8-.9c.1-.1.2-.3.4-.5-.4 0-.6 0-.8-.1-.2-.1-.4-.2-.6-.4-.3-.3-.4-.6-.4-.9s.1-.6.4-.8c.2-.2.4-.3.7-.3.3 0 .5 0 .8.2.3.1.7.5 1.3 1.1l.2-.2c.3-.3.3-.5.1-.8-.3-.3-.6-.4-.9-.1l-.7-.9c.4-.3.8-.3 1.2-.2.4.1.7.4 1 .7.2.2.3.4.4.7.1.2.2.4.2.6 0 .2 0 .4-.1.5-.1.1-.2.3-.5.6l-1.4 1.2c-.2.1-.4.3-.5.5zm.7-2.3c-.6-.6-1.1-.7-1.4-.4-.1.1-.2.2-.2.3 0 .1 0 .3.1.4.1.2.3.2.6.2.2 0 .4-.1.6-.3l.3-.2zm5.1 2.5l-3.8 1.6c-.4.2-.7.3-1 .4-.2.1-.4 0-.6 0-.2-.1-.4-.2-.7-.5-.1-.1-.2-.3-.3-.5l.7-.6c.1.2.2.3.4.5s.3.3.4.3c.1 0 .3 0 .4-.1l2.1-3.8.8 1-1.3 2.2 2.3-1 .6.5z" fill="#9D9A9A"/><ellipse fill="#3E4242" cx="128.4" cy="-19" rx="7" ry="6.6"/><path fill="#FFF" d="M128-17.9v2.7h-1.8v-7.4h2.9c.6 0 1.1.1 1.5.2.3.1.7.4.9.7.3.4.4.8.4 1.3 0 .4-.1.7-.2 1.1-.1.3-.3.6-.6.8-.3.2-.5.3-.8.4-.2.1-.6.1-1.2.1l-1.1.1zm-.1-1.4h1.1c.4 0 .7-.1.9-.3.2-.2.3-.4.3-.7 0-.3-.1-.5-.3-.7-.2-.2-.5-.3-.9-.3h-1.1v2z"/><ellipse fill="#3E4242" cx="-36.6" cy="-80.2" rx="7" ry="6.6"/><path fill="#FFF" d="M-37.1-79.2v2.7h-1.8v-7.4h2.9c.6 0 1.1.1 1.5.2.3.1.7.4.9.7.3.4.4.8.4 1.3 0 .4-.1.7-.2 1.1-.1.3-.3.6-.6.8-.3.2-.5.3-.8.4-.2.1-.6.1-1.2.1l-1.1.1zm-.1-1.3h1.1c.4 0 .7-.1.9-.3.2-.2.3-.4.3-.7 0-.3-.1-.5-.3-.7-.2-.2-.5-.3-.9-.3h-1.1v2z"/><ellipse fill="#3E4242" cx="451.4" cy="187.3" rx="7" ry="6.6"/><path fill="#FFF" d="M451 188.3v2.7h-1.8v-7.4h2.9c.6 0 1.1.1 1.5.2.3.1.7.4.9.7.3.4.4.8.4 1.3 0 .4-.1.7-.2 1.1-.1.3-.3.6-.6.8-.3.2-.5.3-.8.4-.2.1-.6.1-1.2.1H451zm-.1-1.3h1.1c.4 0 .7-.1.9-.3.2-.2.3-.4.3-.7 0-.3-.1-.5-.3-.7-.2-.2-.5-.3-.9-.3h-1.1v2z"/><path fill="#F3BB72" d="M93.2 106.9S75.9 84.7 75.9 75.2c0-18.7 17.3-18.9 17.3-18.9s17.5.2 17.5 18.8c0 9.8-17.5 31.8-17.5 31.8z"/><g fill="#FFF"><path d="M93.4 83.3c6.5 0 11.8-5.3 11.8-11.8 0-1-.1-2-.4-3-.1-.2-.2-.4-.4-.5-.4-.2-.9-.5-1.3-.7-1-.5-2.1-.9-3.2-1.2-.1 0-.1 0-.2-.1-2.1-.6-4.3-.9-6.5-.9-3.4 0-6.7.8-9.8 2.2-.4.2-.9.4-1.3.7-.2.1-.3.3-.4.5-.3.9-.4 2-.4 3 .2 6.4 5.5 11.8 12.1 11.8zm0-1.6c-3.7 0-7-2-8.8-5 1.7-1.2 3.7-1.8 5.7-1.8.8 0 1.5.1 2.2.3v.6c0 .4.3.8.8.8s.8-.3.8-.8v-.6c.7-.2 1.5-.3 2.2-.3 2.1 0 4 .6 5.7 1.8-1.7 3-4.9 5-8.6 5zm-8.7-13.2c.5-.2 1-.4 1.6-.6V69c0 .4-.3.8-.8.8-.4 0-.8-.3-.8-.8v-.5zm3.1-1.1c.5-.1 1-.3 1.6-.3v1c0 .4-.3.8-.8.8s-.8-.3-.8-.8v-.7zm3.2-.6c.5-.1 1-.1 1.6-.1v.8c0 .4-.3.8-.8.8-.4 0-.8-.3-.8-.8v-.7zm3.1-.1c.5 0 1 .1 1.6.1v.7c0 .4-.3.8-.8.8-.4 0-.8-.3-.8-.8v-.8zm3.2.3c.5.1 1 .2 1.6.3v.7c0 .4-.3.8-.8.8s-.8-.3-.8-.8v-1zm3.2.9c.5.2 1.1.4 1.6.6v.5c0 .4-.3.8-.8.8-.4 0-.8-.3-.8-.8v-1.1zm-17.3 1.9c.3.9 1.2 1.6 2.2 1.6.9 0 1.7-.5 2.1-1.2.3.2.7.3 1.1.3.8 0 1.5-.4 1.9-1 .3.2.8.3 1.2.3.6 0 1.2-.2 1.6-.6.4.4 1 .6 1.6.6.4 0 .9-.1 1.2-.3.4.6 1.1 1 1.9 1 .4 0 .8-.1 1.1-.3.4.7 1.2 1.2 2.1 1.2 1 0 1.9-.7 2.2-1.6.1.5.1 1.1.1 1.6 0 1.4-.3 2.7-.8 3.9-1.9-1.3-4.1-1.9-6.5-1.9-1 0-2.1.1-3 .4-1-.3-2-.4-3-.4-2.3 0-4.5.7-6.5 1.9-.5-1.2-.8-2.5-.8-3.9.2-.5.2-1.1.3-1.6z"/><path d="M102.9 80.9c-5.2 5.2-13.7 5.2-19 0-.3-.3-.8-.3-1.1 0-.3.3-.3.8 0 1.1 2.9 2.9 6.8 4.4 10.6 4.4 3.9 0 7.7-1.5 10.6-4.4.3-.3.3-.8 0-1.1-.3-.3-.9-.3-1.1 0z"/></g><path fill="#FF85A7" d="M236.7 142.3s-17.3-22.2-17.3-31.7c0-18.7 17.3-18.9 17.3-18.9s17.5.2 17.5 18.8c0 9.8-17.5 31.8-17.5 31.8z"/><g fill="#FFF"><path d="M236.8 118.6c6.5 0 11.8-5.3 11.8-11.8 0-1-.1-2-.4-3-.1-.2-.2-.4-.4-.5-.4-.2-.9-.5-1.3-.7-1-.5-2.1-.9-3.2-1.2-.1 0-.1 0-.2-.1-2.1-.6-4.3-.9-6.5-.9-3.4 0-6.7.8-9.8 2.2-.4.2-.9.4-1.3.7-.2.1-.3.3-.4.5-.3.9-.4 2-.4 3 .3 6.5 5.6 11.8 12.1 11.8zm0-1.6c-3.7 0-7-2-8.8-5 1.7-1.2 3.7-1.8 5.7-1.8.8 0 1.5.1 2.2.3v.6c0 .4.3.8.8.8.4 0 .8-.3.8-.8v-.6c.7-.2 1.5-.3 2.2-.3 2.1 0 4 .6 5.7 1.8-1.6 3-4.8 5-8.6 5zm-8.6-13.1c.5-.2 1-.4 1.6-.6v1.1c0 .4-.3.8-.8.8s-.8-.3-.8-.8v-.5zm3.1-1.1c.5-.1 1-.3 1.6-.3v1c0 .4-.3.8-.8.8-.4 0-.8-.3-.8-.8v-.7zm3.2-.6c.5-.1 1-.1 1.6-.1v.8c0 .4-.3.8-.8.8s-.8-.3-.8-.8v-.7zm3.1-.2c.5 0 1 .1 1.6.1v.7c0 .4-.3.8-.8.8s-.8-.3-.8-.8v-.8zm3.2.4c.5.1 1 .2 1.6.3v.7c0 .4-.3.8-.8.8-.4 0-.8-.3-.8-.8v-1zm3.1.8c.5.2 1.1.4 1.6.6v.5c0 .4-.3.8-.8.8s-.8-.3-.8-.8v-1.1zm-17.2 2c.3.9 1.2 1.6 2.2 1.6.9 0 1.7-.5 2.1-1.2.3.2.7.3 1.1.3.8 0 1.5-.4 1.9-1 .3.2.8.3 1.2.3.6 0 1.2-.2 1.6-.6.4.4 1 .6 1.6.6.4 0 .9-.1 1.2-.3.4.6 1.1 1 1.9 1 .4 0 .8-.1 1.1-.3.4.7 1.2 1.2 2.1 1.2 1 0 1.9-.7 2.2-1.6.1.5.1 1.1.1 1.6 0 1.4-.3 2.7-.8 3.9-1.9-1.3-4.1-1.9-6.5-1.9-1 0-2.1.1-3 .4-1-.3-2-.4-3-.4-2.3 0-4.5.7-6.5 1.9-.5-1.2-.8-2.5-.8-3.9.2-.6.2-1.1.3-1.6z"/><path d="M246.3 116.2c-5.2 5.2-13.7 5.2-19 0-.3-.3-.8-.3-1.1 0-.3.3-.3.8 0 1.1 2.9 2.9 6.8 4.4 10.6 4.4 3.9 0 7.7-1.5 10.6-4.4.3-.3.3-.8 0-1.1-.2-.2-.8-.3-1.1 0z"/></g><path fill="#7BECED" d="M87.7 219.2S70.4 197 70.4 187.5c0-18.7 17.3-18.9 17.3-18.9s17.5.2 17.5 18.8c0 9.8-17.5 31.8-17.5 31.8z"/><g fill="#FFF"><path d="M87.9 195.6c6.5 0 11.8-5.3 11.8-11.8 0-1-.1-2-.4-3-.1-.2-.2-.4-.4-.5-.4-.2-.9-.5-1.3-.7-1-.5-2.1-.9-3.2-1.2-.1 0-.1 0-.2-.1-2.1-.6-4.3-.9-6.5-.9-3.4 0-6.7.8-9.8 2.2-.4.2-.9.4-1.3.7-.2.1-.3.3-.4.5-.3.9-.4 2-.4 3 .2 6.4 5.5 11.8 12.1 11.8zm0-1.6c-3.7 0-7-2-8.8-5 1.7-1.2 3.7-1.8 5.7-1.8.8 0 1.5.1 2.2.3v.6c0 .4.3.8.8.8.4 0 .8-.3.8-.8v-.6c.7-.2 1.5-.3 2.2-.3 2.1 0 4 .6 5.7 1.8-1.7 3-4.9 5-8.6 5zm-8.7-13.2c.5-.2 1-.4 1.6-.6v1.1c0 .4-.3.8-.8.8s-.8-.3-.8-.8v-.5zm3.1-1.1c.5-.1 1-.3 1.6-.3v1c0 .4-.3.8-.8.8-.4 0-.8-.3-.8-.8v-.7zm3.2-.6c.5-.1 1-.1 1.6-.1v.8c0 .4-.3.8-.8.8s-.8-.3-.8-.8v-.7zm3.1-.1c.5 0 1 .1 1.6.1v.7c0 .4-.3.8-.8.8s-.8-.3-.8-.8v-.8zm3.2.3c.5.1 1 .2 1.6.3v.7c0 .4-.3.8-.8.8-.4 0-.8-.3-.8-.8v-1zm3.2.9c.5.2 1.1.4 1.6.6v.5c0 .4-.3.8-.8.8s-.8-.3-.8-.8v-1.1zm-17.3 1.9c.3.9 1.2 1.6 2.2 1.6.9 0 1.7-.5 2.1-1.2.3.2.7.3 1.1.3.8 0 1.5-.4 1.9-1 .3.2.8.3 1.2.3.6 0 1.2-.2 1.6-.6.4.4 1 .6 1.6.6.4 0 .9-.1 1.2-.3.4.6 1.1 1 1.9 1 .4 0 .8-.1 1.1-.3.4.7 1.2 1.2 2.1 1.2 1 0 1.9-.7 2.2-1.6.1.5.1 1.1.1 1.6 0 1.4-.3 2.7-.8 3.9-1.9-1.3-4.1-1.9-6.5-1.9-1 0-2.1.1-3 .4-1-.3-2-.4-3-.4-2.3 0-4.5.7-6.5 1.9-.5-1.2-.8-2.5-.8-3.9.2-.6.2-1.1.3-1.6z"/><path d="M97.4 193.2c-5.2 5.2-13.7 5.2-19 0-.3-.3-.8-.3-1.1 0-.3.3-.3.8 0 1.1 2.9 2.9 6.8 4.4 10.6 4.4 3.9 0 7.7-1.5 10.6-4.4.3-.3.3-.8 0-1.1-.3-.3-.9-.3-1.1 0z"/></g><path fill="#ACD874" d="M188.2 223.9s-17.3-22.2-17.3-31.7c0-18.7 17.3-18.9 17.3-18.9s17.5.2 17.5 18.8c0 9.8-17.5 31.8-17.5 31.8z"/><g fill="#FFF"><path d="M188.4 200.3c6.5 0 11.8-5.3 11.8-11.8 0-1-.1-2-.4-3-.1-.2-.2-.4-.4-.5-.4-.2-.9-.5-1.3-.7-1-.5-2.1-.9-3.2-1.2-.1 0-.1 0-.2-.1-2.1-.6-4.3-.9-6.5-.9-3.4 0-6.7.8-9.8 2.2-.4.2-.9.4-1.3.7-.2.1-.3.3-.4.5-.3.9-.4 2-.4 3 .2 6.4 5.5 11.8 12.1 11.8zm0-1.6c-3.7 0-7-2-8.8-5 1.7-1.2 3.7-1.8 5.7-1.8.8 0 1.5.1 2.2.3v.6c0 .4.3.8.8.8s.8-.3.8-.8v-.6c.7-.2 1.5-.3 2.2-.3 2.1 0 4 .6 5.7 1.8-1.7 3-4.9 5-8.6 5zm-8.7-13.2c.5-.2 1-.4 1.6-.6v1.1c0 .4-.3.8-.8.8s-.8-.3-.8-.8v-.5zm3.1-1.1c.5-.1 1-.3 1.6-.3v1c0 .4-.3.8-.8.8s-.8-.3-.8-.8v-.7zm3.2-.6c.5-.1 1-.1 1.6-.1v.8c0 .4-.3.8-.8.8-.4 0-.8-.3-.8-.8v-.7zm3.1-.1c.5 0 1 .1 1.6.1v.7c0 .4-.3.8-.8.8s-.8-.3-.8-.8v-.8zm3.2.3c.5.1 1 .2 1.6.3v.7c0 .4-.3.8-.8.8s-.8-.3-.8-.8v-1zm3.2.9c.5.2 1.1.4 1.6.6v.5c0 .4-.3.8-.8.8-.4 0-.8-.3-.8-.8v-1.1zm-17.3 1.9c.3.9 1.2 1.6 2.2 1.6.9 0 1.7-.5 2.1-1.2.3.2.7.3 1.1.3.8 0 1.5-.4 1.9-1 .3.2.8.3 1.2.3.6 0 1.2-.2 1.6-.6.4.4 1 .6 1.6.6.4 0 .9-.1 1.2-.3.4.6 1.1 1 1.9 1 .4 0 .8-.1 1.1-.3.4.7 1.2 1.2 2.1 1.2 1 0 1.9-.7 2.2-1.6.1.5.1 1.1.1 1.6 0 1.4-.3 2.7-.8 3.9-1.9-1.3-4.1-1.9-6.5-1.9-1 0-2.1.1-3 .4-1-.3-2-.4-3-.4-2.3 0-4.5.7-6.5 1.9-.5-1.2-.8-2.5-.8-3.9.2-.5.2-1.1.3-1.6z"/><path d="M197.9 197.9c-5.2 5.2-13.7 5.2-19 0-.3-.3-.8-.3-1.1 0-.3.3-.3.8 0 1.1 2.9 2.9 6.8 4.4 10.6 4.4s7.7-1.5 10.6-4.4c.3-.3.3-.8 0-1.1-.3-.3-.9-.3-1.1 0z"/></g></svg>